<svg width="190" height="85" viewBox="0 0 190 85" fill="none" xmlns="http://www.w3.org/2000/svg">
<path d="M27.4436 24.1125C27.8554 24.1125 28.2365 24.3239 28.5871 24.7469C31.7756 27.9354 34.8139 30.9709 37.7019 33.8533H37.7103V25.4063C37.7103 24.8721 37.9746 24.4742 38.5032 24.2127C38.6701 24.1459 38.8399 24.1125 39.0124 24.1125C39.4464 24.1125 39.8053 24.3184 40.0891 24.7302C40.2115 24.9361 40.2728 25.1447 40.2728 25.3562V37.0084C40.2728 37.4202 40.0696 37.768 39.6634 38.0518C39.4687 38.1631 39.3156 38.2188 39.2044 38.2188H38.7787C38.5839 38.2188 38.3474 38.0991 38.0692 37.8598C37.713 37.4814 35.6152 35.378 31.7756 31.5496C28.4257 28.1997 26.6506 26.4218 26.4503 26.2159C26.2555 25.9655 26.1581 25.7095 26.1581 25.448V25.3228C26.1581 24.9555 26.3446 24.6244 26.7174 24.3295C26.9567 24.1848 27.1987 24.1125 27.4436 24.1125ZM27.694 35.0887H27.7774C28.2838 35.0887 28.7123 35.3279 29.0629 35.8065C29.2298 36.0847 29.3133 36.3463 29.3133 36.5911V36.708C29.3133 37.2088 29.0796 37.6317 28.6121 37.9767C28.3506 38.1381 28.1364 38.2188 27.9694 38.2188H27.502C27.2572 38.2188 26.965 38.0796 26.6256 37.8014C26.314 37.4564 26.1581 37.103 26.1581 36.7413V36.6161C26.1581 36.1376 26.378 35.7258 26.8176 35.3808C27.0958 35.186 27.3879 35.0887 27.694 35.0887ZM44.321 23.9456H44.3377C44.794 23.9456 45.1501 24.1793 45.4061 24.6467C45.4729 24.8136 45.5063 24.9778 45.5063 25.1392C45.5063 25.6066 45.2698 25.9655 44.7968 26.2159C44.6354 26.2827 44.4852 26.3161 44.346 26.3161H44.296C43.8452 26.3161 43.4919 26.0851 43.2359 25.6233C43.1691 25.4563 43.1357 25.295 43.1357 25.1392V25.1225C43.1357 24.6217 43.3917 24.2516 43.9037 24.0123C44.0483 23.9678 44.1874 23.9456 44.321 23.9456ZM53.8198 23.9456C54.3039 23.9456 54.6684 24.1932 54.9132 24.6884C54.9689 24.8442 54.9967 24.9945 54.9967 25.1392V32.3342C54.9967 34.3152 54.1369 35.9456 52.4175 37.2255C52.0335 37.4759 51.6691 37.6734 51.324 37.8181C50.5895 38.0852 50.0025 38.2188 49.5628 38.2188H48.5863C48.0743 38.2188 47.4316 38.0657 46.6581 37.7597C46.2742 37.5872 45.8986 37.3701 45.5313 37.1086C43.9064 35.851 43.094 34.2428 43.094 32.2841C43.094 31.8278 43.3222 31.4717 43.7784 31.2157C43.951 31.1434 44.1095 31.1072 44.2542 31.1072H44.2876C44.755 31.1072 45.1112 31.3353 45.356 31.7916C45.4339 31.9085 45.4729 32.17 45.4729 32.5762C45.523 33.1271 45.701 33.653 46.0071 34.1538C46.4968 34.8995 47.1617 35.4142 48.002 35.698C48.3359 35.7981 48.6614 35.8482 48.9786 35.8482H49.1622C50.1694 35.8482 51.043 35.4337 51.7831 34.6045C52.3451 33.9702 52.6262 33.18 52.6262 32.234V25.1392C52.6262 24.6996 52.8237 24.3546 53.2188 24.1041C53.4024 23.9984 53.6027 23.9456 53.8198 23.9456ZM58.4773 23.9456H63.3185C63.7248 23.9456 64.0614 24.1542 64.3285 24.5716C64.4231 24.7608 64.4704 24.9416 64.4704 25.1141V37.0669C64.4704 37.512 64.245 37.8654 63.7943 38.1269C63.6441 38.1881 63.5383 38.2188 63.4771 38.2188H63.0681C62.8734 38.2076 62.6536 38.0963 62.4087 37.8849C62.1861 37.6512 62.0748 37.3395 62.0748 36.95V26.3328H58.4606C58.0878 26.3328 57.7623 26.1408 57.4841 25.7568C57.3728 25.5287 57.3171 25.3228 57.3171 25.1392C57.3171 24.7274 57.5063 24.3879 57.8847 24.1208C58.085 24.004 58.2826 23.9456 58.4773 23.9456ZM67.9928 23.9456H68.0846C68.463 23.9456 68.7913 24.1403 69.0695 24.5298C69.1753 24.7302 69.2281 24.9388 69.2281 25.1559C69.2281 25.5843 69.0167 25.9321 68.5938 26.1992C68.4046 26.2883 68.2321 26.3328 68.0763 26.3328H67.9845C67.5782 26.3328 67.2444 26.1269 66.9828 25.7151C66.8827 25.5203 66.8326 25.3256 66.8326 25.1308C66.8326 24.7023 67.0385 24.3573 67.4502 24.0958C67.6339 23.9956 67.8147 23.9456 67.9928 23.9456ZM78.5099 23.9456H78.6267C79.1164 23.9456 79.5393 24.2433 79.8955 24.8387C80.4909 25.7234 80.7886 26.6889 80.7886 27.735V27.7684C80.7886 29.0539 80.349 30.2085 79.4698 31.2324C79.0302 31.6776 78.7269 31.9447 78.56 32.0337C78.2929 32.2173 78.0369 32.3648 77.7921 32.4761V32.4928C79.5004 34.6797 80.4325 35.8816 80.5883 36.0986C80.7107 36.3324 80.7719 36.5466 80.7719 36.7413V36.8832C80.7719 37.3451 80.5326 37.7374 80.0541 38.0602C79.837 38.1659 79.6785 38.2188 79.5783 38.2188H79.1025C78.8521 38.1965 78.5878 38.0602 78.3096 37.8098C75.7777 34.5656 74.4867 32.9018 74.4366 32.8183C74.3364 32.5902 74.2864 32.362 74.2864 32.1339V32.017C74.2864 31.4772 74.534 31.0042 75.0292 30.598C75.352 30.381 75.6553 30.2725 75.939 30.2725C76.195 30.2224 76.4148 30.1584 76.5985 30.0805C77.1883 29.7967 77.6196 29.3627 77.8922 28.7784C78.0313 28.4278 78.1009 28.119 78.1009 27.8519V27.8102C78.1009 27.7879 78.1037 27.7712 78.1092 27.7601L78.1009 27.7017V27.6599C78.1009 27.1925 77.9395 26.7251 77.6168 26.2576C77.6223 26.241 77.6251 26.2298 77.6251 26.2243C77.3636 25.9683 77.2328 25.6567 77.2328 25.2894V25.2644C77.2328 24.7969 77.4471 24.4213 77.8755 24.1375C78.087 24.0095 78.2984 23.9456 78.5099 23.9456ZM91.6229 23.9456H91.7147C92.1376 23.9456 92.4882 24.1542 92.7664 24.5716C92.861 24.7608 92.9083 24.9416 92.9083 25.1141V37.0502C92.9083 37.551 92.6495 37.921 92.132 38.1603C92.0152 38.1993 91.9345 38.2188 91.89 38.2188H91.4476C91.2473 38.2188 91.008 38.0908 90.7298 37.8348C90.5294 37.6011 90.4293 37.3284 90.4293 37.0168V25.1559C90.4293 24.6328 90.6964 24.2516 91.2306 24.0123C91.3752 23.9678 91.506 23.9456 91.6229 23.9456ZM101.047 23.9456H105.888C106.294 23.9456 106.631 24.1542 106.898 24.5716C106.992 24.7608 107.04 24.9416 107.04 25.1141V37.0669C107.04 37.512 106.814 37.8654 106.363 38.1269C106.213 38.1881 106.108 38.2188 106.046 38.2188H105.637C105.443 38.2076 105.223 38.0963 104.978 37.8849C104.755 37.6512 104.644 37.3395 104.644 36.95V26.3328H101.03C100.657 26.3328 100.331 26.1408 100.053 25.7568C99.9419 25.5287 99.8863 25.3228 99.8863 25.1392C99.8863 24.7274 100.075 24.3879 100.454 24.1208C100.654 24.004 100.852 23.9456 101.047 23.9456ZM110.562 23.9456H110.654C111.032 23.9456 111.36 24.1403 111.639 24.5298C111.744 24.7302 111.797 24.9388 111.797 25.1559C111.797 25.5843 111.586 25.9321 111.163 26.1992C110.974 26.2883 110.801 26.3328 110.645 26.3328H110.554C110.147 26.3328 109.814 26.1269 109.552 25.7151C109.452 25.5203 109.402 25.3256 109.402 25.1308C109.402 24.7023 109.608 24.3573 110.019 24.0958C110.203 23.9956 110.384 23.9456 110.562 23.9456ZM120.002 23.9456H120.094C120.517 23.9456 120.868 24.1542 121.146 24.5716C121.24 24.7608 121.288 24.9416 121.288 25.1141V37.0502C121.288 37.551 121.029 37.921 120.511 38.1603C120.395 38.1993 120.314 38.2188 120.269 38.2188H119.827C119.627 38.2188 119.387 38.0908 119.109 37.8348C118.909 37.6011 118.809 37.3284 118.809 37.0168V25.1559C118.809 24.6328 119.076 24.2516 119.61 24.0123C119.755 23.9678 119.885 23.9456 120.002 23.9456ZM138.699 23.9456C139.106 23.9456 139.487 24.1431 139.843 24.5382C139.865 24.5382 140.071 24.7441 140.461 25.1559C141.768 26.636 142.422 28.3611 142.422 30.3309C142.422 32.9908 141.248 35.1777 138.9 36.8916C138.482 37.1754 138.065 37.4119 137.648 37.6011C137.275 37.7625 136.891 37.896 136.496 38.0017C135.867 38.1464 135.383 38.2188 135.043 38.2188H133.917C133.338 38.2188 132.589 38.0629 131.671 37.7513C131.143 37.5343 130.672 37.2922 130.261 37.0251C129.916 36.8137 129.451 36.4297 128.867 35.8733C128.633 35.6173 128.516 35.3279 128.516 35.0052V34.9802C128.516 34.4905 128.755 34.1037 129.234 33.8199C129.423 33.7309 129.626 33.6864 129.843 33.6864C130.133 33.6864 130.405 33.7865 130.661 33.9869C131.691 35.0608 132.968 35.5978 134.493 35.5978C136.29 35.5978 137.748 34.8271 138.866 33.2857C139.456 32.4177 139.751 31.4272 139.751 30.3142C139.751 28.656 139.067 27.2648 137.698 26.1408C137.481 25.8681 137.372 25.576 137.372 25.2644C137.372 24.7747 137.606 24.3852 138.073 24.0958C138.279 23.9956 138.488 23.9456 138.699 23.9456ZM146.804 24.1125C147.216 24.1125 147.597 24.3239 147.948 24.7469C151.136 27.9354 154.175 30.9709 157.063 33.8533H157.071V25.4063C157.071 24.8721 157.335 24.4742 157.864 24.2127C158.031 24.1459 158.201 24.1125 158.373 24.1125C158.807 24.1125 159.166 24.3184 159.45 24.7302C159.572 24.9361 159.633 25.1447 159.633 25.3562V37.0084C159.633 37.4202 159.43 37.768 159.024 38.0518C158.829 38.1631 158.676 38.2188 158.565 38.2188H158.139C157.945 38.2188 157.708 38.0991 157.43 37.8598C157.074 37.4814 154.976 35.378 151.136 31.5496C147.786 28.1997 146.011 26.4218 145.811 26.2159C145.616 25.9655 145.519 25.7095 145.519 25.448V25.3228C145.519 24.9555 145.705 24.6244 146.078 24.3295C146.317 24.1848 146.559 24.1125 146.804 24.1125ZM147.055 35.0887H147.138C147.644 35.0887 148.073 35.3279 148.424 35.8065C148.59 36.0847 148.674 36.3463 148.674 36.5911V36.708C148.674 37.2088 148.44 37.6317 147.973 37.9767C147.711 38.1381 147.497 38.2188 147.33 38.2188H146.863C146.618 38.2188 146.326 38.0796 145.986 37.8014C145.675 37.4564 145.519 37.103 145.519 36.7413V36.6161C145.519 36.1376 145.739 35.7258 146.178 35.3808C146.456 35.186 146.749 35.0887 147.055 35.0887ZM14.9022 43.3412H14.9996C15.3242 43.3412 15.6218 43.4764 15.8923 43.747C16.4225 44.3475 16.7931 45.0995 17.0041 46.0031C17.0744 46.3277 17.1096 46.6415 17.1096 46.9445V47.1717C17.1096 48.1348 16.7904 49.087 16.152 50.0284C15.9897 50.2502 15.7354 50.5288 15.3891 50.8643C14.9292 51.2376 14.5289 51.4973 14.188 51.6434V55.5875C14.188 56.0907 13.9635 56.5289 13.5144 56.9022C13.2006 57.1132 12.9436 57.2188 12.7434 57.2188H12.2159C11.9616 57.1863 11.7074 57.0808 11.4531 56.9022C11.004 56.5397 10.7795 56.0718 10.7795 55.4983V51.4486C10.7795 51.427 10.7822 51.3999 10.7876 51.3674C10.7822 51.3566 10.7795 51.3323 10.7795 51.2944C10.7795 50.5153 11.1528 49.9472 11.8994 49.5901C12.1375 49.5144 12.3323 49.4765 12.4837 49.4765C12.949 49.3737 13.3413 49.1844 13.6605 48.9084C14.2178 48.3782 14.4964 47.7669 14.4964 47.0743V47.0013C14.4964 46.5089 14.3395 46.0409 14.0257 45.5973C14.0311 45.5811 14.0338 45.5702 14.0338 45.5648C13.7795 45.2997 13.6524 45.0103 13.6524 44.6965V44.5829C13.6524 44.242 13.8012 43.9309 14.0987 43.6496C14.3584 43.444 14.6262 43.3412 14.9022 43.3412ZM24.2432 43.3412H31.0278L31.0602 43.3574H31.0846C31.4903 43.3574 31.8204 43.5657 32.0747 43.9823C32.1612 44.1554 32.2045 44.334 32.2045 44.5179C32.2045 44.967 31.9827 45.3133 31.539 45.5567C31.3875 45.6271 31.2361 45.6622 31.0846 45.6622H24.1701C23.8455 45.6622 23.5588 45.5134 23.3099 45.2159C23.1476 44.9995 23.0664 44.7776 23.0664 44.5504V44.453C23.0664 44.0959 23.245 43.7902 23.602 43.5359C23.7968 43.4169 23.9889 43.3574 24.1782 43.3574H24.2107L24.2432 43.3412ZM24.2269 49.1438L27.7247 49.16C27.9574 49.16 28.2063 49.279 28.4714 49.5171C28.6824 49.7606 28.7879 50.0257 28.7879 50.3124C28.7879 50.7128 28.6012 51.0401 28.2279 51.2944C28.0439 51.4026 27.8654 51.4567 27.6923 51.4567H24.1539C23.8076 51.4567 23.5074 51.2836 23.2531 50.9373C23.1286 50.7425 23.0664 50.5478 23.0664 50.353V50.2556C23.0664 49.8877 23.2585 49.5712 23.6426 49.3061C23.8374 49.2087 24.0213 49.16 24.1945 49.16H24.2107C24.2215 49.16 24.2269 49.1546 24.2269 49.1438ZM31.0196 49.16H31.0764C31.5147 49.16 31.8582 49.3873 32.1071 49.8417C32.172 50.004 32.2045 50.1609 32.2045 50.3124C32.2045 50.7669 31.98 51.1159 31.5309 51.3593C31.3686 51.4243 31.2252 51.4567 31.1008 51.4567H30.9872C30.6193 51.4567 30.3055 51.2646 30.0458 50.8805C29.943 50.6857 29.8916 50.4937 29.8916 50.3043C29.8916 49.8607 30.1134 49.5144 30.5571 49.2655C30.7248 49.1952 30.879 49.16 31.0196 49.16ZM24.2432 54.9221H31.0278C31.0278 54.9329 31.1116 54.9464 31.2793 54.9626C31.5607 55.033 31.7744 55.1601 31.9205 55.3441C32.1098 55.5659 32.2045 55.8202 32.2045 56.1069C32.2045 56.5452 31.9827 56.8914 31.539 57.1457C31.4038 57.1944 31.3118 57.2188 31.2631 57.2188H24.0078C23.8185 57.2188 23.5912 57.0916 23.3261 56.8373C23.153 56.6047 23.0664 56.3693 23.0664 56.1313V56.0582C23.0664 55.6579 23.2693 55.3305 23.6751 55.0762C23.7941 55.0059 23.9781 54.9572 24.2269 54.9302C24.2269 54.9248 24.2323 54.9221 24.2432 54.9221ZM42.422 43.3412H42.5356C43.0117 43.3412 43.4229 43.6306 43.7692 44.2095C44.3481 45.0698 44.6375 46.0085 44.6375 47.0256V47.0581C44.6375 48.3079 44.2101 49.4305 43.3553 50.426C42.9278 50.8589 42.633 51.1186 42.4707 51.2051C42.211 51.3837 41.9621 51.5271 41.724 51.6353V51.6515C43.385 53.7778 44.2913 54.9464 44.4427 55.1574C44.5618 55.3846 44.6213 55.5929 44.6213 55.7823V55.9203C44.6213 56.3693 44.3886 56.7508 43.9233 57.0646C43.7123 57.1674 43.5581 57.2188 43.4608 57.2188H42.9982C42.7547 57.1971 42.4977 57.0646 42.2272 56.8211C39.7655 53.6668 38.5103 52.0492 38.4616 51.968C38.3642 51.7462 38.3155 51.5243 38.3155 51.3025V51.1889C38.3155 50.6641 38.5563 50.2042 39.0378 49.8093C39.3516 49.5983 39.6465 49.4928 39.9224 49.4928C40.1713 49.4441 40.385 49.3818 40.5635 49.3061C41.137 49.0302 41.5563 48.6082 41.8214 48.0401C41.9567 47.6992 42.0243 47.3989 42.0243 47.1392V47.0987C42.0243 47.077 42.027 47.0608 42.0324 47.05L42.0243 46.9932V46.9526C42.0243 46.4981 41.8674 46.0437 41.5536 45.5892C41.559 45.5729 41.5617 45.5621 41.5617 45.5567C41.3074 45.3078 41.1803 45.0049 41.1803 44.6478V44.6234C41.1803 44.169 41.3886 43.8038 41.8052 43.5278C42.0108 43.4034 42.2164 43.3412 42.422 43.3412ZM54.855 43.3412H54.9524C55.5313 43.3412 56.1075 43.4981 56.681 43.8119C56.9677 44.0608 57.1111 44.3421 57.1111 44.6559V44.7208C57.1111 45.0995 56.919 45.4106 56.5349 45.6541C56.3672 45.7299 56.2076 45.7677 56.0561 45.7677H56.0155C55.8748 45.7677 55.6233 45.7001 55.2608 45.5648C55.1201 45.527 54.974 45.508 54.8225 45.508C54.4059 45.508 54.0164 45.6866 53.6539 46.0437C53.378 46.4116 53.24 46.7822 53.24 47.1555C53.24 47.5883 53.3996 47.9779 53.7188 48.3241C53.8487 48.5189 53.9136 48.7299 53.9136 48.9571C53.9136 49.3737 53.7053 49.6983 53.2887 49.931C53.1372 49.9959 53.0019 50.0284 52.8829 50.0284H52.7774C52.3662 50.0284 52.001 49.7552 51.6818 49.2087C51.276 48.5486 51.0731 47.8615 51.0731 47.1474C51.0731 46.2709 51.3869 45.4404 52.0145 44.6559C52.2688 44.3746 52.4934 44.1717 52.6881 44.0472C53.4185 43.5765 54.1408 43.3412 54.855 43.3412ZM55.1877 49.2168C55.6368 49.2168 55.9722 49.4468 56.194 49.9066C56.2373 50.0419 56.259 50.1636 56.259 50.2718V50.3205C56.259 50.7101 56.0669 51.0212 55.6828 51.2538C55.5205 51.335 55.3717 51.3756 55.2364 51.3756H55.1309C54.7846 51.3756 54.4898 51.1943 54.2463 50.8318C54.1543 50.6479 54.1084 50.4829 54.1084 50.3368V50.2718C54.1084 49.931 54.2625 49.6442 54.5709 49.4116C54.7549 49.2818 54.9605 49.2168 55.1877 49.2168ZM57.525 50.564H57.5575C57.947 50.564 58.2743 50.7669 58.5394 51.1727C59.0534 51.8923 59.3104 52.6605 59.3104 53.4775C59.3104 54.3377 59.002 55.152 58.3852 55.9203C58.0065 56.326 57.6981 56.583 57.4601 56.6912C57.103 56.886 56.8595 56.9969 56.7297 57.024C56.3455 57.1538 56.0426 57.2188 55.8207 57.2188H55.139C54.8415 57.2188 54.4276 57.1024 53.8973 56.8698L53.6214 56.675C53.3834 56.4478 53.2643 56.1773 53.2643 55.8635C53.2643 55.436 53.4835 55.1087 53.9217 54.8815C54.0732 54.822 54.2166 54.7922 54.3518 54.7922C54.5249 54.7922 54.763 54.8625 55.066 55.0032C55.2553 55.0519 55.4231 55.0762 55.5691 55.0762C56.1372 55.0762 56.5998 54.7841 56.9569 54.1998C57.0759 53.9617 57.1354 53.7237 57.1354 53.4856C57.1354 53.0365 56.9677 52.6226 56.6323 52.2439C56.5133 52.0492 56.4537 51.8436 56.4537 51.6271C56.4537 51.2592 56.6323 50.9563 56.9894 50.7182C57.1625 50.6154 57.341 50.564 57.525 50.564ZM73.3503 43.3412C73.7453 43.3412 74.1159 43.5332 74.4621 43.9174C74.4838 43.9174 74.684 44.1176 75.0627 44.5179C76.3341 45.9571 76.9698 47.6343 76.9698 49.5496C76.9698 52.1357 75.8282 54.262 73.5451 55.9284C73.1393 56.2043 72.7335 56.4342 72.3277 56.6182C71.9652 56.7751 71.5919 56.9049 71.2078 57.0077C70.5964 57.1484 70.1257 57.2188 69.7957 57.2188H68.7001C68.1374 57.2188 67.4097 57.0673 66.517 56.7643C66.003 56.5533 65.5459 56.3179 65.1455 56.0582C64.81 55.8526 64.3583 55.4793 63.7902 54.9383C63.563 54.6894 63.4493 54.4081 63.4493 54.0943V54.0699C63.4493 53.5938 63.682 53.2178 64.1473 52.9419C64.3312 52.8553 64.5287 52.812 64.7397 52.812C65.021 52.812 65.2862 52.9094 65.535 53.1042C66.5359 54.1484 67.7776 54.6705 69.2601 54.6705C71.0076 54.6705 72.4251 53.9211 73.5126 52.4225C74.0861 51.5784 74.3729 50.6154 74.3729 49.5333C74.3729 47.921 73.7074 46.5685 72.3764 45.4756C72.1654 45.2105 72.0599 44.9264 72.0599 44.6234C72.0599 44.1473 72.2872 43.7686 72.7416 43.4873C72.9418 43.3899 73.1447 43.3412 73.3503 43.3412ZM81.2305 43.5035C81.6309 43.5035 82.0015 43.7091 82.3423 44.1203C85.4425 47.2204 88.3965 50.1718 91.2045 52.9743H91.2126V44.7614C91.2126 44.242 91.4696 43.8552 91.9836 43.6009C92.1459 43.5359 92.3109 43.5035 92.4786 43.5035C92.9006 43.5035 93.2496 43.7037 93.5255 44.104C93.6446 44.3042 93.7041 44.5071 93.7041 44.7127V56.042C93.7041 56.4424 93.5066 56.7805 93.1116 57.0564C92.9223 57.1646 92.7735 57.2188 92.6653 57.2188H92.2514C92.062 57.2188 91.8321 57.1024 91.5616 56.8698C91.2153 56.5019 89.1756 54.4568 85.4425 50.7344C82.1854 47.4774 80.4595 45.7488 80.2647 45.5486C80.0754 45.3051 79.9807 45.0563 79.9807 44.802V44.6802C79.9807 44.3232 80.1619 44.0012 80.5244 43.7145C80.7571 43.5738 80.9924 43.5035 81.2305 43.5035ZM81.474 54.1754H81.5551C82.0475 54.1754 82.4641 54.4081 82.8049 54.8734C82.9672 55.1439 83.0484 55.3982 83.0484 55.6362V55.7498C83.0484 56.2368 82.8211 56.648 82.3667 56.9834C82.1124 57.1403 81.9041 57.2188 81.7418 57.2188H81.2873C81.0492 57.2188 80.7652 57.0835 80.4352 56.813C80.1322 56.4775 79.9807 56.134 79.9807 55.7823V55.6606C79.9807 55.1953 80.1944 54.7949 80.6218 54.4595C80.8923 54.2701 81.1764 54.1754 81.474 54.1754ZM98.2731 43.5035C98.6735 43.5035 99.0441 43.7091 99.385 44.1203C102.485 47.2204 105.439 50.1718 108.247 52.9743H108.255V44.7614C108.255 44.242 108.512 43.8552 109.026 43.6009C109.189 43.5359 109.354 43.5035 109.521 43.5035C109.943 43.5035 110.292 43.7037 110.568 44.104C110.687 44.3042 110.747 44.5071 110.747 44.7127V56.042C110.747 56.4424 110.549 56.7805 110.154 57.0564C109.965 57.1646 109.816 57.2188 109.708 57.2188H109.294C109.105 57.2188 108.875 57.1024 108.604 56.8698C108.258 56.5019 106.218 54.4568 102.485 50.7344C99.2281 47.4774 97.5021 45.7488 97.3074 45.5486C97.118 45.3051 97.0233 45.0563 97.0233 44.802V44.6802C97.0233 44.3232 97.2046 44.0012 97.5671 43.7145C97.7997 43.5738 98.0351 43.5035 98.2731 43.5035ZM98.5166 54.1754H98.5977C99.0901 54.1754 99.5067 54.4081 99.8475 54.8734C100.01 55.1439 100.091 55.3982 100.091 55.6362V55.7498C100.091 56.2368 99.8638 56.648 99.4093 56.9834C99.155 57.1403 98.9467 57.2188 98.7844 57.2188H98.3299C98.0919 57.2188 97.8078 57.0835 97.4778 56.813C97.1748 56.4775 97.0233 56.134 97.0233 55.7823V55.6606C97.0233 55.1953 97.237 54.7949 97.6645 54.4595C97.935 54.2701 98.219 54.1754 98.5166 54.1754ZM120.096 43.4629H120.193C120.615 43.4629 120.964 43.6739 121.24 44.0959C123.301 48.1916 124.346 50.2827 124.373 50.3692C124.448 50.6343 124.486 50.7939 124.486 50.8481C124.486 51.335 124.251 51.7164 123.78 51.9923C123.58 52.0897 123.383 52.1384 123.188 52.1384C122.766 52.1384 122.411 51.9464 122.125 51.5622C122.092 51.5135 121.516 50.3665 120.396 48.1212C120.32 48.0455 120.236 48.0076 120.145 48.0076C119.971 48.0076 119.831 48.1591 119.722 48.4621L115.567 56.6831C115.405 56.9266 115.167 57.0997 114.853 57.2025C114.81 57.2133 114.772 57.2188 114.74 57.2188H114.309C114.12 57.2188 113.896 57.1105 113.636 56.8941C113.376 56.629 113.246 56.3206 113.246 55.969C113.246 55.7255 113.43 55.2656 113.798 54.5893C113.798 54.5731 115.232 51.7083 118.099 45.995C118.727 44.7289 119.065 44.0608 119.114 43.9904C119.401 43.6387 119.728 43.4629 120.096 43.4629ZM125.728 54.7435H125.833C126.245 54.7435 126.588 54.9491 126.864 55.3603C126.983 55.5821 127.043 55.7904 127.043 55.9852C127.043 56.4559 126.815 56.8292 126.361 57.1051C126.199 57.1809 126.077 57.2188 125.996 57.2188H125.574C125.379 57.2188 125.146 57.0997 124.876 56.8617C124.643 56.5966 124.527 56.3071 124.527 55.9933C124.527 55.5929 124.697 55.2548 125.038 54.9789C125.271 54.822 125.501 54.7435 125.728 54.7435ZM131.303 43.3412C131.758 43.3412 132.104 43.5684 132.342 44.0229C132.407 44.169 132.44 44.3042 132.44 44.4287V56.1394C132.44 56.5343 132.231 56.8617 131.815 57.1214C131.663 57.1863 131.558 57.2188 131.498 57.2188H131.092C130.908 57.2079 130.695 57.0997 130.451 56.8941C130.246 56.6453 130.143 56.3991 130.143 56.1556C130.137 56.1556 130.135 56.1069 130.135 56.0095V44.5504C130.135 43.9769 130.419 43.5873 130.987 43.3818C131.095 43.3547 131.201 43.3412 131.303 43.3412ZM135.864 54.9302H138.153C138.753 54.9302 139.157 55.2061 139.362 55.758C139.389 55.8716 139.403 55.9663 139.403 56.042V56.1475C139.403 56.5262 139.2 56.8481 138.794 57.1132C138.632 57.1836 138.518 57.2188 138.453 57.2188H135.588C135.383 57.2188 135.153 57.0889 134.899 56.8292C134.72 56.6074 134.631 56.3774 134.631 56.1394V56.0501C134.631 55.6497 134.834 55.3224 135.239 55.0681C135.418 54.9762 135.626 54.9302 135.864 54.9302ZM148.5 43.3412H148.589C149.001 43.3412 149.342 43.5441 149.612 43.9498C149.704 44.1338 149.75 44.3096 149.75 44.4774V56.0826C149.75 56.5695 149.498 56.9293 148.995 57.1619C148.882 57.1998 148.803 57.2188 148.76 57.2188H148.33C148.135 57.2188 147.902 57.0943 147.632 56.8454C147.437 56.6182 147.34 56.3531 147.34 56.0501V44.5179C147.34 44.0094 147.599 43.6387 148.119 43.4061C148.259 43.3628 148.387 43.3412 148.5 43.3412ZM161.98 43.3412H162.078C162.656 43.3412 163.233 43.4981 163.806 43.8119C164.093 44.0608 164.236 44.3421 164.236 44.6559V44.7208C164.236 45.0995 164.044 45.4106 163.66 45.6541C163.492 45.7299 163.333 45.7677 163.181 45.7677H163.141C163 45.7677 162.748 45.7001 162.386 45.5648C162.245 45.527 162.099 45.508 161.948 45.508C161.531 45.508 161.142 45.6866 160.779 46.0437C160.503 46.4116 160.365 46.7822 160.365 47.1555C160.365 47.5883 160.525 47.9779 160.844 48.3241C160.974 48.5189 161.039 48.7299 161.039 48.9571C161.039 49.3737 160.83 49.6983 160.414 49.931C160.262 49.9959 160.127 50.0284 160.008 50.0284H159.903C159.491 50.0284 159.126 49.7552 158.807 49.2087C158.401 48.5486 158.198 47.8615 158.198 47.1474C158.198 46.2709 158.512 45.4404 159.14 44.6559C159.394 44.3746 159.619 44.1717 159.813 44.0472C160.544 43.5765 161.266 43.3412 161.98 43.3412ZM162.313 49.2168C162.762 49.2168 163.097 49.4468 163.319 49.9066C163.362 50.0419 163.384 50.1636 163.384 50.2718V50.3205C163.384 50.7101 163.192 51.0212 162.808 51.2538C162.646 51.335 162.497 51.3756 162.362 51.3756H162.256C161.91 51.3756 161.615 51.1943 161.371 50.8318C161.279 50.6479 161.233 50.4829 161.233 50.3368V50.2718C161.233 49.931 161.388 49.6442 161.696 49.4116C161.88 49.2818 162.086 49.2168 162.313 49.2168ZM164.65 50.564H164.683C165.072 50.564 165.399 50.7669 165.665 51.1727C166.179 51.8923 166.436 52.6605 166.436 53.4775C166.436 54.3377 166.127 55.152 165.51 55.9203C165.132 56.326 164.823 56.583 164.585 56.6912C164.228 56.886 163.985 56.9969 163.855 57.024C163.471 57.1538 163.168 57.2188 162.946 57.2188H162.264C161.967 57.2188 161.553 57.1024 161.022 56.8698L160.747 56.675C160.509 56.4478 160.389 56.1773 160.389 55.8635C160.389 55.436 160.609 55.1087 161.047 54.8815C161.198 54.822 161.342 54.7922 161.477 54.7922C161.65 54.7922 161.888 54.8625 162.191 55.0032C162.38 55.0519 162.548 55.0762 162.694 55.0762C163.262 55.0762 163.725 54.7841 164.082 54.1998C164.201 53.9617 164.261 53.7237 164.261 53.4856C164.261 53.0365 164.093 52.6226 163.757 52.2439C163.638 52.0492 163.579 51.8436 163.579 51.6271C163.579 51.2592 163.757 50.9563 164.115 50.7182C164.288 50.6154 164.466 50.564 164.65 50.564ZM172.758 43.3412H179.542L179.575 43.3574H179.599C180.005 43.3574 180.335 43.5657 180.589 43.9823C180.676 44.1554 180.719 44.334 180.719 44.5179C180.719 44.967 180.497 45.3133 180.053 45.5567C179.902 45.6271 179.75 45.6622 179.599 45.6622H172.685C172.36 45.6622 172.073 45.5134 171.824 45.2159C171.662 44.9995 171.581 44.7776 171.581 44.5504V44.453C171.581 44.0959 171.759 43.7902 172.116 43.5359C172.311 43.4169 172.503 43.3574 172.693 43.3574H172.725L172.758 43.3412ZM172.741 49.1438L176.239 49.16C176.472 49.16 176.721 49.279 176.986 49.5171C177.197 49.7606 177.302 50.0257 177.302 50.3124C177.302 50.7128 177.116 51.0401 176.742 51.2944C176.558 51.4026 176.38 51.4567 176.207 51.4567H172.668C172.322 51.4567 172.022 51.2836 171.767 50.9373C171.643 50.7425 171.581 50.5478 171.581 50.353V50.2556C171.581 49.8877 171.773 49.5712 172.157 49.3061C172.352 49.2087 172.536 49.16 172.709 49.16H172.725C172.736 49.16 172.741 49.1546 172.741 49.1438ZM179.534 49.16H179.591C180.029 49.16 180.373 49.3873 180.622 49.8417C180.686 50.004 180.719 50.1609 180.719 50.3124C180.719 50.7669 180.494 51.1159 180.045 51.3593C179.883 51.4243 179.74 51.4567 179.615 51.4567H179.502C179.134 51.4567 178.82 51.2646 178.56 50.8805C178.457 50.6857 178.406 50.4937 178.406 50.3043C178.406 49.8607 178.628 49.5144 179.071 49.2655C179.239 49.1952 179.393 49.16 179.534 49.16ZM172.758 54.9221H179.542C179.542 54.9329 179.626 54.9464 179.794 54.9626C180.075 55.033 180.289 55.1601 180.435 55.3441C180.624 55.5659 180.719 55.8202 180.719 56.1069C180.719 56.5452 180.497 56.8914 180.053 57.1457C179.918 57.1944 179.826 57.2188 179.778 57.2188H172.522C172.333 57.2188 172.106 57.0916 171.841 56.8373C171.667 56.6047 171.581 56.3693 171.581 56.1313V56.0582C171.581 55.6579 171.784 55.3305 172.189 55.0762C172.308 55.0059 172.492 54.9572 172.741 54.9302C172.741 54.9248 172.747 54.9221 172.758 54.9221Z" fill="white"/>
</svg>
