<svg width="190" height="84" viewBox="0 0 190 84" fill="none" xmlns="http://www.w3.org/2000/svg">
<path d="M6.59101 34.4427H6.68328C7.23172 34.4427 7.77759 34.5913 8.32091 34.8886C8.59256 35.1244 8.72839 35.3909 8.72839 35.6882V35.7497C8.72839 36.1085 8.54643 36.4032 8.18252 36.6339C8.02362 36.7056 7.87242 36.7415 7.7289 36.7415H7.69046C7.55719 36.7415 7.31885 36.6774 6.97544 36.5493C6.84217 36.5134 6.70378 36.4955 6.56026 36.4955C6.16559 36.4955 5.79655 36.6646 5.45313 37.0029C5.19173 37.3514 5.06102 37.7026 5.06102 38.0562C5.06102 38.4663 5.21223 38.8353 5.51464 39.1634C5.63765 39.3479 5.69916 39.5478 5.69916 39.763C5.69916 40.1577 5.50182 40.4653 5.10715 40.6857C4.96364 40.7472 4.8355 40.7779 4.72273 40.7779H4.62278C4.23324 40.7779 3.88726 40.5191 3.58485 40.0014C3.20043 39.3761 3.00822 38.7251 3.00822 38.0485C3.00822 37.2182 3.3055 36.4314 3.90007 35.6882C4.14098 35.4217 4.35369 35.2294 4.53821 35.1116C5.23017 34.6656 5.91444 34.4427 6.59101 34.4427ZM6.90624 40.0091C7.33166 40.0091 7.64945 40.2269 7.8596 40.6626C7.90061 40.7907 7.92111 40.9061 7.92111 41.0086V41.0547C7.92111 41.4237 7.73915 41.7185 7.37523 41.9389C7.22146 42.0157 7.08051 42.0542 6.95237 42.0542H6.85242C6.52438 42.0542 6.24504 41.8825 6.01438 41.5391C5.92725 41.3648 5.88368 41.2085 5.88368 41.0701V41.0086C5.88368 40.6857 6.02976 40.414 6.32192 40.1936C6.49619 40.0706 6.69096 40.0091 6.90624 40.0091ZM9.1205 41.2854H9.15125C9.5203 41.2854 9.8304 41.4776 10.0816 41.862C10.5685 42.5437 10.812 43.2715 10.812 44.0455C10.812 44.8605 10.5198 45.6319 9.93547 46.3597C9.57668 46.7441 9.28452 46.9876 9.05899 47.0901C8.7207 47.2746 8.49005 47.3797 8.36704 47.4053C8.00312 47.5283 7.71609 47.5898 7.50594 47.5898H6.86011C6.5782 47.5898 6.18609 47.4796 5.68378 47.2592L5.42238 47.0747C5.19685 46.8594 5.08409 46.6032 5.08409 46.3059C5.08409 45.901 5.29167 45.5909 5.70685 45.3756C5.85037 45.3192 5.98619 45.291 6.11433 45.291C6.27835 45.291 6.50388 45.3576 6.79091 45.4909C6.97031 45.537 7.1292 45.5601 7.26759 45.5601C7.80578 45.5601 8.24402 45.2833 8.58231 44.7298C8.69508 44.5042 8.75146 44.2787 8.75146 44.0532C8.75146 43.6278 8.59256 43.2356 8.27478 42.8769C8.16201 42.6923 8.10563 42.4976 8.10563 42.2925C8.10563 41.944 8.27478 41.657 8.61307 41.4314C8.77709 41.334 8.94623 41.2854 9.1205 41.2854ZM24.4051 34.4427C24.5844 34.4427 24.7664 34.4965 24.9509 34.6041C25.2995 34.8502 25.4737 35.1628 25.4737 35.5421C25.4737 35.7113 25.4225 35.9009 25.32 36.1111C25.0637 36.4647 24.7638 36.6416 24.4204 36.6416H21.0913V46.4212C21.0913 46.78 20.9888 47.067 20.7838 47.2823C20.5583 47.4771 20.3558 47.5796 20.1764 47.5898H19.7997C19.7433 47.5898 19.6459 47.5617 19.5075 47.5053C19.0924 47.2644 18.8848 46.9389 18.8848 46.5288V35.519C18.8848 35.3602 18.9283 35.1936 19.0155 35.0193C19.2615 34.6349 19.5716 34.4427 19.9458 34.4427H24.4051ZM15.6403 34.4427C15.8043 34.4427 15.9709 34.4888 16.14 34.5811C16.5193 34.822 16.709 35.1398 16.709 35.5344C16.709 35.7138 16.6628 35.8932 16.5706 36.0726C16.3297 36.4519 16.0221 36.6416 15.648 36.6416H15.5634C15.4199 36.6416 15.261 36.6005 15.0867 36.5185C14.6972 36.2725 14.5024 35.9522 14.5024 35.5575C14.5024 35.3576 14.5511 35.1654 14.6485 34.9809C14.9047 34.6221 15.2072 34.4427 15.5557 34.4427H15.6403ZM34.0232 34.4427H34.1309C34.5819 34.4427 34.9715 34.7169 35.2995 35.2653C35.848 36.0803 36.1222 36.9696 36.1222 37.9332V37.964C36.1222 39.148 35.7173 40.2115 34.9074 41.1546C34.5025 41.5647 34.2231 41.8107 34.0694 41.8927C33.8233 42.0619 33.5876 42.1977 33.362 42.3002V42.3156C34.9356 44.33 35.7941 45.4371 35.9377 45.637C36.0504 45.8523 36.1068 46.0496 36.1068 46.229V46.3597C36.1068 46.7851 35.8864 47.1465 35.4456 47.4438C35.2457 47.5412 35.0996 47.5898 35.0074 47.5898H34.5691C34.3385 47.5693 34.095 47.4438 33.8387 47.2131C31.5066 44.2249 30.3174 42.6923 30.2713 42.6154C30.179 42.4053 30.1329 42.1951 30.1329 41.985V41.8774C30.1329 41.3802 30.361 40.9445 30.8172 40.5703C31.1145 40.3704 31.3938 40.2705 31.6552 40.2705C31.891 40.2244 32.0935 40.1654 32.2626 40.0936C32.8059 39.8322 33.2032 39.4324 33.4543 38.8943C33.5824 38.5713 33.6465 38.2869 33.6465 38.0408V38.0024C33.6465 37.9819 33.6491 37.9665 33.6542 37.9563L33.6465 37.9025V37.864C33.6465 37.4335 33.4979 37.0029 33.2006 36.5724C33.2057 36.557 33.2083 36.5467 33.2083 36.5416C32.9674 36.3058 32.8469 36.0188 32.8469 35.6805V35.6574C32.8469 35.2269 33.0443 34.8809 33.4389 34.6195C33.6337 34.5016 33.8285 34.4427 34.0232 34.4427ZM42.9418 34.4427H49.3693L49.4001 34.458H49.4231C49.8075 34.458 50.1202 34.6554 50.3611 35.0501C50.4431 35.2141 50.4841 35.3832 50.4841 35.5575C50.4841 35.9829 50.274 36.311 49.8537 36.5416C49.7102 36.6082 49.5666 36.6416 49.4231 36.6416H42.8726C42.5651 36.6416 42.2934 36.5006 42.0576 36.2187C41.9039 36.0137 41.827 35.8035 41.827 35.5882V35.496C41.827 35.1577 41.9961 34.8681 42.3344 34.6272C42.5189 34.5144 42.7009 34.458 42.8803 34.458H42.911L42.9418 34.4427ZM42.9264 39.9399L46.2401 39.9553C46.4605 39.9553 46.6963 40.068 46.9475 40.2935C47.1474 40.5242 47.2473 40.7754 47.2473 41.047C47.2473 41.4263 47.0705 41.7364 46.7168 41.9773C46.5425 42.0798 46.3734 42.1311 46.2094 42.1311H42.8572C42.5292 42.1311 42.2447 41.9671 42.0038 41.639C41.8859 41.4545 41.827 41.27 41.827 41.0855V40.9932C41.827 40.6446 42.0089 40.3448 42.3729 40.0936C42.5574 40.0014 42.7317 39.9553 42.8957 39.9553H42.911C42.9213 39.9553 42.9264 39.9501 42.9264 39.9399ZM49.3616 39.9553H49.4154C49.8306 39.9553 50.1561 40.1705 50.3919 40.6011C50.4534 40.7549 50.4841 40.9035 50.4841 41.047C50.4841 41.4776 50.2714 41.8082 49.846 42.0388C49.6922 42.1003 49.5564 42.1311 49.4385 42.1311H49.3309C48.9823 42.1311 48.685 41.9491 48.439 41.5852C48.3416 41.4007 48.2929 41.2187 48.2929 41.0393C48.2929 40.619 48.5031 40.291 48.9234 40.0552C49.0823 39.9886 49.2284 39.9553 49.3616 39.9553ZM42.9418 45.414H49.3693C49.3693 45.4243 49.4488 45.4371 49.6076 45.4525C49.8742 45.5191 50.0766 45.6396 50.215 45.8138C50.3944 46.024 50.4841 46.2649 50.4841 46.5365C50.4841 46.9517 50.274 47.2797 49.8537 47.5206C49.7255 47.5668 49.6384 47.5898 49.5923 47.5898H42.7188C42.5394 47.5898 42.3242 47.4694 42.073 47.2285C41.909 47.0081 41.827 46.7851 41.827 46.5596V46.4904C41.827 46.1111 42.0192 45.801 42.4036 45.5601C42.5164 45.4935 42.6906 45.4473 42.9264 45.4217C42.9264 45.4166 42.9315 45.414 42.9418 45.414ZM56.0121 34.4427H62.4396L62.4704 34.458H62.4934C62.8778 34.458 63.1905 34.6554 63.4314 35.0501C63.5134 35.2141 63.5544 35.3832 63.5544 35.5575C63.5544 35.9829 63.3443 36.311 62.924 36.5416C62.7805 36.6082 62.6369 36.6416 62.4934 36.6416H55.9429C55.6354 36.6416 55.3637 36.5006 55.1279 36.2187C54.9742 36.0137 54.8973 35.8035 54.8973 35.5882V35.496C54.8973 35.1577 55.0664 34.8681 55.4047 34.6272C55.5892 34.5144 55.7712 34.458 55.9506 34.458H55.9813L56.0121 34.4427ZM55.9967 39.9399L59.3104 39.9553C59.5308 39.9553 59.7666 40.068 60.0177 40.2935C60.2176 40.5242 60.3176 40.7754 60.3176 41.047C60.3176 41.4263 60.1408 41.7364 59.7871 41.9773C59.6128 42.0798 59.4437 42.1311 59.2797 42.1311H55.9275C55.5995 42.1311 55.315 41.9671 55.0741 41.639C54.9562 41.4545 54.8973 41.27 54.8973 41.0855V40.9932C54.8973 40.6446 55.0792 40.3448 55.4431 40.0936C55.6277 40.0014 55.8019 39.9553 55.966 39.9553H55.9813C55.9916 39.9553 55.9967 39.9501 55.9967 39.9399ZM62.4319 39.9553H62.4857C62.9009 39.9553 63.2264 40.1705 63.4622 40.6011C63.5237 40.7549 63.5544 40.9035 63.5544 41.047C63.5544 41.4776 63.3417 41.8082 62.9163 42.0388C62.7625 42.1003 62.6267 42.1311 62.5088 42.1311H62.4012C62.0526 42.1311 61.7553 41.9491 61.5093 41.5852C61.4119 41.4007 61.3632 41.2187 61.3632 41.0393C61.3632 40.619 61.5734 40.291 61.9937 40.0552C62.1526 39.9886 62.2986 39.9553 62.4319 39.9553ZM56.0121 45.414H62.4396C62.4396 45.4243 62.519 45.4371 62.6779 45.4525C62.9445 45.5191 63.1469 45.6396 63.2853 45.8138C63.4647 46.024 63.5544 46.2649 63.5544 46.5365C63.5544 46.9517 63.3443 47.2797 62.924 47.5206C62.7958 47.5668 62.7087 47.5898 62.6626 47.5898H55.7891C55.6097 47.5898 55.3945 47.4694 55.1433 47.2285C54.9793 47.0081 54.8973 46.7851 54.8973 46.5596V46.4904C54.8973 46.1111 55.0895 45.801 55.4739 45.5601C55.5867 45.4935 55.7609 45.4473 55.9967 45.4217C55.9967 45.4166 56.0018 45.414 56.0121 45.414ZM76.6862 34.4427C76.8656 34.4427 77.0476 34.4965 77.2321 34.6041C77.5806 34.8502 77.7549 35.1628 77.7549 35.5421C77.7549 35.7113 77.7036 35.9009 77.6011 36.1111C77.3449 36.4647 77.045 36.6416 76.7016 36.6416H73.3725V46.4212C73.3725 46.78 73.27 47.067 73.065 47.2823C72.8395 47.4771 72.637 47.5796 72.4576 47.5898H72.0809C72.0245 47.5898 71.9271 47.5617 71.7887 47.5053C71.3735 47.2644 71.1659 46.9389 71.1659 46.5288V35.519C71.1659 35.3602 71.2095 35.1936 71.2966 35.0193C71.5427 34.6349 71.8528 34.4427 72.2269 34.4427H76.6862ZM67.9214 34.4427C68.0855 34.4427 68.252 34.4888 68.4212 34.5811C68.8005 34.822 68.9901 35.1398 68.9901 35.5344C68.9901 35.7138 68.944 35.8932 68.8517 36.0726C68.6108 36.4519 68.3033 36.6416 67.9291 36.6416H67.8446C67.701 36.6416 67.5421 36.6005 67.3679 36.5185C66.9783 36.2725 66.7835 35.9522 66.7835 35.5575C66.7835 35.3576 66.8322 35.1654 66.9296 34.9809C67.1859 34.6221 67.4883 34.4427 67.8369 34.4427H67.9214ZM102.55 34.3812C102.781 34.3812 103.009 34.4555 103.234 34.6041C103.578 34.8707 103.749 35.1987 103.749 35.5882V35.619C103.749 35.701 103.744 35.7548 103.734 35.7805C103.734 35.9137 103.603 36.2264 103.342 36.7184C102.353 38.7072 101.853 39.7041 101.843 39.7092C100.525 42.354 99.8642 43.679 99.8591 43.6841C98.8442 45.7241 98.3316 46.7467 98.3214 46.7518C98.2753 46.8594 98.2471 46.9133 98.2368 46.9133L98.1292 47.0901C97.8626 47.4233 97.5372 47.5898 97.1528 47.5898H97.122C97.0092 47.5898 96.8939 47.5719 96.776 47.536C96.4685 47.4284 96.2404 47.2541 96.0918 47.0132L93.8929 42.6308C93.8929 42.6308 93.8109 42.7923 93.6468 43.1152C92.6473 45.1142 92.0938 46.2162 91.9861 46.4212C91.7965 46.8261 91.6684 47.067 91.6017 47.1439C91.3301 47.4412 91.02 47.5898 90.6714 47.5898H90.633C90.3511 47.5898 90.0922 47.495 89.8565 47.3054C89.5643 47.0388 89.4182 46.7339 89.4182 46.3905V46.3443C89.4182 46.2008 89.449 46.0522 89.5105 45.8984C89.5412 45.8164 90.0333 44.8323 90.9866 42.946C91.3711 42.1721 91.9221 41.0726 92.6397 39.6477C92.7627 39.3761 92.8575 39.1967 92.9241 39.1095C93.1907 38.7969 93.5136 38.6405 93.8929 38.6405C94.0108 38.6405 94.1363 38.661 94.2696 38.702C94.5515 38.7943 94.7719 38.9635 94.9308 39.2095C95.0487 39.4453 95.7868 40.9061 97.1451 43.5919H97.1528C97.9011 42.1003 98.324 41.2597 98.4213 41.0701C99.1287 39.6452 100.062 37.782 101.22 35.4806C101.384 35.1321 101.499 34.9194 101.566 34.8425C101.827 34.5349 102.14 34.3812 102.504 34.3812H102.55ZM85.2819 34.3812C85.5228 34.3812 85.7585 34.4632 85.9892 34.6272C86.3121 34.8937 86.4736 35.2192 86.4736 35.6036C86.4736 35.8394 86.4044 36.0649 86.266 36.2802C85.9994 36.639 85.6637 36.8184 85.2588 36.8184H85.2434C85.0076 36.8184 84.7795 36.7466 84.5591 36.6031C84.2106 36.3315 84.0363 35.9983 84.0363 35.6036C84.0363 35.3012 84.1337 35.0347 84.3285 34.804C84.5899 34.5221 84.8897 34.3812 85.228 34.3812H85.2819ZM115.666 34.4427C116.041 34.4427 116.392 34.6246 116.72 34.9885C116.74 34.9885 116.93 35.1782 117.289 35.5575C118.493 36.9209 119.095 38.5098 119.095 40.3243C119.095 42.7743 118.014 44.7887 115.851 46.3674C115.467 46.6288 115.082 46.8466 114.698 47.0209C114.354 47.1695 114.001 47.2926 113.637 47.3899C113.058 47.5232 112.612 47.5898 112.299 47.5898H111.261C110.728 47.5898 110.039 47.4463 109.193 47.1593C108.706 46.9594 108.273 46.7364 107.893 46.4904C107.576 46.2956 107.148 45.942 106.609 45.4294C106.394 45.1936 106.287 44.9271 106.287 44.6298V44.6067C106.287 44.1557 106.507 43.7995 106.948 43.5381C107.122 43.456 107.309 43.415 107.509 43.415C107.776 43.415 108.027 43.5073 108.262 43.6918C109.211 44.6811 110.387 45.1757 111.791 45.1757C113.447 45.1757 114.79 44.4658 115.82 43.046C116.364 42.2464 116.635 41.334 116.635 40.3089C116.635 38.7815 116.005 37.5001 114.744 36.4647C114.544 36.2136 114.444 35.9445 114.444 35.6574C114.444 35.2064 114.659 34.8476 115.09 34.5811C115.279 34.4888 115.472 34.4427 115.666 34.4427ZM127.883 34.4427H127.991C128.442 34.4427 128.832 34.7169 129.16 35.2653C129.708 36.0803 129.982 36.9696 129.982 37.9332V37.964C129.982 39.148 129.577 40.2115 128.767 41.1546C128.363 41.5647 128.083 41.8107 127.929 41.8927C127.683 42.0619 127.448 42.1977 127.222 42.3002V42.3156C128.796 44.33 129.654 45.4371 129.798 45.637C129.91 45.8523 129.967 46.0496 129.967 46.229V46.3597C129.967 46.7851 129.746 47.1465 129.306 47.4438C129.106 47.5412 128.96 47.5898 128.867 47.5898H128.429C128.199 47.5693 127.955 47.4438 127.699 47.2131C125.367 44.2249 124.178 42.6923 124.131 42.6154C124.039 42.4053 123.993 42.1951 123.993 41.985V41.8774C123.993 41.3802 124.221 40.9445 124.677 40.5703C124.975 40.3704 125.254 40.2705 125.515 40.2705C125.751 40.2244 125.954 40.1654 126.123 40.0936C126.666 39.8322 127.063 39.4324 127.314 38.8943C127.443 38.5713 127.507 38.2869 127.507 38.0408V38.0024C127.507 37.9819 127.509 37.9665 127.514 37.9563L127.507 37.9025V37.864C127.507 37.4335 127.358 37.0029 127.061 36.5724C127.066 36.557 127.068 36.5467 127.068 36.5416C126.827 36.3058 126.707 36.0188 126.707 35.6805V35.6574C126.707 35.2269 126.904 34.8809 127.299 34.6195C127.494 34.5016 127.689 34.4427 127.883 34.4427ZM145.428 34.4427C145.823 34.4427 146.154 34.6246 146.42 34.9885C146.548 35.1987 146.612 35.4063 146.612 35.6113V35.6574C146.612 36.1034 146.382 36.4724 145.92 36.7646L140.492 41.0239V41.047C140.595 41.1136 141.656 41.9414 143.675 43.5304L146.259 45.5524C146.494 45.8036 146.612 46.088 146.612 46.4058V46.4212C146.612 46.8928 146.376 47.2541 145.905 47.5053C145.772 47.5617 145.674 47.5898 145.613 47.5898H145.221C145.005 47.5898 144.688 47.4079 144.267 47.044C140.064 43.7482 137.96 42.1003 137.955 42.1003C137.694 41.9773 137.507 41.7646 137.394 41.4622C137.343 41.334 137.317 41.2085 137.317 41.0855V40.9701C137.317 40.5755 137.509 40.2474 137.894 39.986C137.986 39.9399 138.278 39.7169 138.77 39.3171C139.001 39.1428 140.951 37.6154 144.621 34.7348C144.862 34.5401 145.131 34.4427 145.428 34.4427ZM158.722 34.4427C159.096 34.4427 159.447 34.6246 159.775 34.9885C159.795 34.9885 159.985 35.1782 160.344 35.5575C161.548 36.9209 162.151 38.5098 162.151 40.3243C162.151 42.7743 161.069 44.7887 158.906 46.3674C158.522 46.6288 158.137 46.8466 157.753 47.0209C157.409 47.1695 157.056 47.2926 156.692 47.3899C156.113 47.5232 155.667 47.5898 155.354 47.5898H154.316C153.783 47.5898 153.094 47.4463 152.248 47.1593C151.761 46.9594 151.328 46.7364 150.949 46.4904C150.631 46.2956 150.203 45.942 149.665 45.4294C149.449 45.1936 149.342 44.9271 149.342 44.6298V44.6067C149.342 44.1557 149.562 43.7995 150.003 43.5381C150.177 43.456 150.364 43.415 150.564 43.415C150.831 43.415 151.082 43.5073 151.318 43.6918C152.266 44.6811 153.442 45.1757 154.847 45.1757C156.502 45.1757 157.845 44.4658 158.875 43.046C159.419 42.2464 159.69 41.334 159.69 40.3089C159.69 38.7815 159.06 37.5001 157.799 36.4647C157.599 36.2136 157.499 35.9445 157.499 35.6574C157.499 35.2064 157.714 34.8476 158.145 34.5811C158.335 34.4888 158.527 34.4427 158.722 34.4427ZM174.291 34.4427C174.414 34.4427 174.542 34.4632 174.675 34.5042C175.147 34.7246 175.382 35.0654 175.382 35.5267V35.5421C175.382 35.6856 175.352 35.8343 175.29 35.988C175.054 36.4135 174.729 36.6262 174.314 36.6262H174.267C174.139 36.6262 174.001 36.5954 173.852 36.5339C173.417 36.3033 173.199 35.9727 173.199 35.5421C173.199 35.3935 173.23 35.2423 173.291 35.0885C173.527 34.6579 173.855 34.4427 174.275 34.4427H174.291ZM165.541 34.4427C165.741 34.4427 165.926 34.4914 166.095 34.5887C166.459 34.8194 166.641 35.1372 166.641 35.5421V42.0773C166.641 42.9486 166.899 43.6764 167.417 44.2608C168.099 45.0245 168.904 45.4063 169.831 45.4063H170C170.293 45.4063 170.592 45.3602 170.9 45.2679C171.674 45.0065 172.286 44.5324 172.737 43.8456C173.019 43.3843 173.183 42.8999 173.23 42.3925C173.23 42.0183 173.265 41.7774 173.337 41.6698C173.563 41.2495 173.891 41.0393 174.321 41.0393H174.352C174.485 41.0393 174.631 41.0726 174.79 41.1393C175.211 41.375 175.421 41.7031 175.421 42.1234C175.421 43.9276 174.672 45.4089 173.176 46.5673C172.837 46.8082 172.491 47.0081 172.138 47.167C171.425 47.4489 170.833 47.5898 170.362 47.5898H169.462C169.057 47.5898 168.517 47.4668 167.84 47.2208C167.522 47.0875 167.186 46.9056 166.833 46.6749C165.249 45.496 164.457 43.9942 164.457 42.1695V35.5421C164.457 35.4088 164.483 35.2705 164.534 35.1269C164.759 34.6708 165.095 34.4427 165.541 34.4427ZM187.461 34.4427C187.64 34.4427 187.822 34.4965 188.007 34.6041C188.355 34.8502 188.529 35.1628 188.529 35.5421C188.529 35.7113 188.478 35.9009 188.376 36.1111C188.119 36.4647 187.82 36.6416 187.476 36.6416H184.147V46.4212C184.147 46.78 184.045 47.067 183.84 47.2823C183.614 47.4771 183.412 47.5796 183.232 47.5898H182.855C182.799 47.5898 182.702 47.5617 182.563 47.5053C182.148 47.2644 181.941 46.9389 181.941 46.5288V35.519C181.941 35.3602 181.984 35.1936 182.071 35.0193C182.317 34.6349 182.627 34.4427 183.002 34.4427H187.461ZM178.696 34.4427C178.86 34.4427 179.027 34.4888 179.196 34.5811C179.575 34.822 179.765 35.1398 179.765 35.5344C179.765 35.7138 179.719 35.8932 179.626 36.0726C179.385 36.4519 179.078 36.6416 178.704 36.6416H178.619C178.476 36.6416 178.317 36.6005 178.142 36.5185C177.753 36.2725 177.558 35.9522 177.558 35.5575C177.558 35.3576 177.607 35.1654 177.704 34.9809C177.96 34.6221 178.263 34.4427 178.611 34.4427H178.696Z" fill="white"/>
</svg>
