<svg width="230" height="62" viewBox="0 0 230 62" fill="none" xmlns="http://www.w3.org/2000/svg">
<path fill-rule="evenodd" clip-rule="evenodd" d="M221.163 9.86364C220.757 9.86364 220.391 10.1092 220.237 10.4851L215.305 22.5455L206.907 0.642004C206.759 0.255297 206.388 0 205.973 0H202.162C201.748 0 201.377 0.255296 201.228 0.642004L192.83 22.5455L187.898 10.4851C187.744 10.1092 187.379 9.86364 186.973 9.86364H180.605C179.864 9.86364 179.381 10.6398 179.707 11.3042L189.373 31L179.707 50.6958C179.381 51.3602 179.864 52.1364 180.605 52.1364H186.973C187.379 52.1364 187.744 51.8908 187.898 51.5149L192.83 39.4545L201.228 61.358C201.377 61.7447 201.748 62 202.162 62H205.973C206.388 62 206.759 61.7447 206.907 61.358L215.305 39.4545L220.237 51.5149C220.391 51.8908 220.757 52.1364 221.163 52.1364H227.531C228.271 52.1364 228.755 51.3602 228.429 50.6958L218.763 31L229.219 11.3331C229.573 10.667 229.09 9.86364 228.336 9.86364H227.407H221.163ZM203.878 9.02137C203.939 8.83932 204.196 8.83932 204.257 9.02137L209.254 23.9545H198.881L203.878 9.02137ZM212.712 31L210.983 29.5909H197.152L195.424 31L197.152 32.4091H210.983L212.712 31ZM204.257 52.9786C204.196 53.1607 203.939 53.1607 203.878 52.9786L198.881 38.0455H209.254L204.257 52.9786Z" fill="white"/>
<path d="M138.252 17.6611C138.253 17.929 138.305 18.1938 138.405 18.4403C138.504 18.6867 138.649 18.9099 138.83 19.0969C139.012 19.2839 139.227 19.4309 139.463 19.5296C139.698 19.6282 139.95 19.6765 140.204 19.6715L165.389 19.6715C165.898 19.6727 166.388 19.4629 166.753 19.0871C167.118 18.7112 167.329 18.1993 167.341 17.6611C167.339 17.3932 167.287 17.1284 167.188 16.8819C167.088 16.6355 166.944 16.4123 166.762 16.2253C166.58 16.0383 166.366 15.8912 166.13 15.7926C165.894 15.694 165.642 15.6457 165.389 15.6507L140.156 15.6507C139.654 15.6599 139.175 15.8747 138.819 16.2497C138.464 16.6247 138.261 17.1307 138.252 17.6611Z" fill="white"/>
<path d="M121.426 46.9272C121.675 46.9252 121.921 46.8692 122.151 46.7624C122.38 46.6556 122.587 46.5 122.761 46.3048C122.935 46.1095 123.072 45.8785 123.164 45.625C123.255 45.3715 123.3 45.1006 123.296 44.828V17.7476C123.297 17.1996 123.102 16.673 122.752 16.2806C122.403 15.8881 121.926 15.6612 121.426 15.6484C121.177 15.6504 120.93 15.7064 120.701 15.8132C120.472 15.92 120.264 16.0756 120.091 16.2708C119.917 16.4661 119.78 16.6971 119.688 16.9506C119.596 17.2041 119.552 17.475 119.556 17.7476V44.8796C119.565 45.4195 119.764 45.9346 120.113 46.3165C120.462 46.6985 120.933 46.9174 121.426 46.9272Z" fill="white"/>
<path d="M165.471 46.9272C165.72 46.9252 165.966 46.8692 166.195 46.7624C166.425 46.6556 166.632 46.5 166.806 46.3048C166.98 46.1095 167.117 45.8785 167.208 45.625C167.3 45.3715 167.345 45.1006 167.34 44.828V17.7476C167.342 17.1996 167.146 16.673 166.797 16.2806C166.447 15.8881 165.971 15.6612 165.471 15.6484C165.222 15.6504 164.975 15.7064 164.746 15.8132C164.517 15.92 164.309 16.0756 164.135 16.2708C163.962 16.4661 163.825 16.6971 163.733 16.9506C163.641 17.2041 163.596 17.475 163.601 17.7476V44.8796C163.61 45.4195 163.809 45.9346 164.158 46.3165C164.507 46.6985 164.977 46.9174 165.471 46.9272Z" fill="white"/>
<path d="M138.252 44.9189C138.253 45.1868 138.305 45.4516 138.405 45.6981C138.504 45.9445 138.649 46.1677 138.83 46.3547C139.012 46.5417 139.227 46.6887 139.463 46.7874C139.698 46.886 139.95 46.9343 140.204 46.9293L165.389 46.9293C165.898 46.9305 166.388 46.7207 166.753 46.3449C167.118 45.9691 167.329 45.4572 167.341 44.9189C167.339 44.651 167.287 44.3862 167.188 44.1397C167.088 43.8933 166.944 43.6701 166.762 43.4831C166.58 43.2961 166.366 43.149 166.13 43.0504C165.894 42.9518 165.642 42.9035 165.389 42.9085L140.156 42.9085C139.654 42.9177 139.175 43.1325 138.819 43.5075C138.464 43.8825 138.261 44.3885 138.252 44.9189Z" fill="white"/>
<path d="M83.1935 46.9272C83.4426 46.9252 83.6889 46.8692 83.9181 46.7624C84.1473 46.6556 84.3549 46.5 84.5288 46.3048C84.7027 46.1095 84.8394 45.8785 84.9312 45.625C85.0229 45.3715 85.0678 45.1006 85.0632 44.828V17.7476C85.0643 17.1996 84.8692 16.673 84.5196 16.2806C84.1701 15.8881 83.6941 15.6612 83.1935 15.6484C82.9443 15.6504 82.698 15.7064 82.4688 15.8132C82.2396 15.92 82.0321 16.0756 81.8582 16.2708C81.6843 16.4661 81.5475 16.6971 81.4558 16.9506C81.364 17.2041 81.3191 17.475 81.3237 17.7476V44.8796C81.3241 45.4223 81.5212 45.9427 81.8717 46.3266C82.2222 46.7104 82.6976 46.9264 83.1935 46.9272Z" fill="white"/>
<path d="M94.846 24.3485C94.4708 24.7122 94.2614 25.1964 94.2614 25.7001C94.2614 26.2038 94.4708 26.688 94.846 27.0517L106.853 38.2046C107.044 38.3824 107.271 38.5235 107.52 38.6198C107.77 38.7161 108.038 38.7656 108.308 38.7656C108.578 38.7656 108.846 38.7161 109.096 38.6198C109.345 38.5235 109.572 38.3824 109.763 38.2046C110.138 37.8409 110.348 37.3567 110.348 36.853C110.348 36.3493 110.138 35.865 109.763 35.5013L97.7562 24.3485C97.3647 24 96.8434 23.8055 96.3011 23.8055C95.7588 23.8055 95.2375 24 94.846 24.3485Z" fill="white"/>
<path d="M60.753 46.9272C61.0021 46.9252 61.2484 46.8692 61.4777 46.7624C61.7069 46.6556 61.9144 46.5 62.0883 46.3048C62.2622 46.1095 62.399 45.8785 62.4907 45.625C62.5825 45.3715 62.6273 45.1006 62.6227 44.828V17.7476C62.6238 17.1996 62.4287 16.673 62.0792 16.2806C61.7297 15.8881 61.2536 15.6612 60.753 15.6484C60.5039 15.6504 60.2576 15.7064 60.0284 15.8132C59.7992 15.92 59.5916 16.0756 59.4177 16.2708C59.2438 16.4661 59.107 16.6971 59.0153 16.9506C58.9236 17.2041 58.8787 17.475 58.8833 17.7476V44.8796C58.8919 45.4195 59.0916 45.9346 59.4404 46.3165C59.7891 46.6985 60.2597 46.9174 60.753 46.9272Z" fill="white"/>
<path d="M15.8692 46.9269C16.1183 46.925 16.3647 46.869 16.5939 46.7622C16.8231 46.6553 17.0306 46.4998 17.2045 46.3046C17.3784 46.1093 17.5152 45.8783 17.6069 45.6248C17.6987 45.3713 17.7435 45.1004 17.7389 44.8278V17.7476C17.74 17.1996 17.5449 16.673 17.1954 16.2806C16.8459 15.8881 16.3698 15.6612 15.8692 15.6484C15.6201 15.6504 15.3738 15.7064 15.1446 15.8132C14.9154 15.92 14.7078 16.0756 14.5339 16.2708C14.36 16.4661 14.2232 16.6971 14.1315 16.9506C14.0398 17.2041 13.9949 17.475 13.9995 17.7476V44.8794C13.9957 45.1493 14.0414 45.4173 14.134 45.6676C14.2266 45.9178 14.3641 46.1451 14.5385 46.3361C14.7129 46.5271 14.9205 46.6778 15.1491 46.7793C15.3777 46.8807 15.6226 46.931 15.8692 46.9269Z" fill="white"/>
<path d="M38.3116 39.3284C38.5607 39.3265 38.807 39.2713 39.0363 39.166C39.2655 39.0607 39.473 38.9074 39.6469 38.715C39.8208 38.5225 39.9576 38.2948 40.0493 38.0449C40.1411 37.7951 40.1859 37.5281 40.1813 37.2594V25.3112C40.1824 24.7711 39.9873 24.252 39.6378 23.8652C39.2883 23.4784 38.8122 23.2548 38.3116 23.2422C38.0625 23.2441 37.8162 23.2993 37.587 23.4046C37.3578 23.5099 37.1502 23.6632 36.9763 23.8556C36.8024 24.0481 36.6656 24.2758 36.5739 24.5256C36.4822 24.7755 36.4373 25.0425 36.4419 25.3112V37.2594C36.4373 37.5281 36.4822 37.7951 36.5739 38.0449C36.6656 38.2948 36.8024 38.5225 36.9763 38.715C37.1502 38.9074 37.3578 39.0607 37.587 39.166C37.8162 39.2713 38.0625 39.3265 38.3116 39.3284Z" fill="white"/>
<path d="M4.8907 46.615V45.0113H5.7002V48.9973H4.13801C3.66935 49.0182 3.2046 48.9162 2.80781 48.7055C2.64429 48.6068 2.51516 48.4731 2.43386 48.3183C2.35256 48.1634 2.32201 47.9931 2.34541 47.8251C2.34198 47.6366 2.40648 47.4516 2.53039 47.2945C2.65431 47.1373 2.83186 47.0154 3.03974 46.9446C2.81336 46.8687 2.62284 46.7325 2.49742 46.5569C2.37201 46.3813 2.31859 46.1759 2.34541 45.9723V45.6805C2.35708 45.4812 2.3178 45.2822 2.2302 45.0969V45H3.03974C3.09974 45.1902 3.1195 45.3877 3.0981 45.5836V46.1295C3.15645 46.4213 3.38689 46.5672 3.84626 46.6163L4.8907 46.615ZM4.8907 47.1987H4.0228C3.7976 47.188 3.57438 47.2392 3.38688 47.3446C3.31161 47.387 3.25066 47.4451 3.21002 47.5132C3.16938 47.5813 3.15042 47.6571 3.15495 47.7332C3.13781 47.8244 3.15028 47.9178 3.19111 48.0035C3.23194 48.0892 3.2996 48.164 3.38688 48.22C3.61338 48.3303 3.87393 48.3811 4.13504 48.3659H4.88321L4.8907 47.1987Z" fill="white"/>
<path d="M0.399489 47C0.399489 48.9885 2.01149 50.6005 4 50.6005C5.98851 50.6005 7.60051 48.9885 7.60051 47C7.60051 45.0115 5.98851 43.3995 4 43.3995C2.01149 43.3995 0.399489 45.0115 0.399489 47Z" stroke="white" stroke-width="0.798979"/>
</svg>
