<svg width="1500" height="431" viewBox="0 0 1500 431" fill="none" xmlns="http://www.w3.org/2000/svg">
<path fill-rule="evenodd" clip-rule="evenodd" d="M64.9126 68.7473C65.589 68.7473 66.1982 69.1564 66.4543 69.7824L102.048 156.815L161.666 1.31937C161.913 0.675244 162.531 0.25 163.221 0.25H196.948C197.637 0.25 198.256 0.675241 198.503 1.31937L258.121 156.815L293.714 69.7824C293.971 69.1564 294.58 68.7473 295.256 68.7473H351.493C352.726 68.7473 353.532 70.0401 352.988 71.1468L282.132 215.527L352.988 359.908C353.532 361.014 352.726 362.307 351.493 362.307H295.256C294.58 362.307 293.971 361.898 293.714 361.272L258.121 274.239L198.503 429.735C198.256 430.379 197.637 430.804 196.948 430.804H163.221C162.531 430.804 161.913 430.379 161.666 429.735L102.048 274.239L66.4543 361.272C66.1982 361.898 65.589 362.307 64.9126 362.307H8.67571C7.44287 362.307 6.63725 361.014 7.1804 359.908L78.0366 215.527L1.30128 71.1949C0.711439 70.0854 1.51553 68.7473 2.77202 68.7473H18.0084H64.9126ZM180.4 59.9061C180.299 59.6029 179.87 59.6029 179.768 59.9061L144.068 166.601H216.101L180.4 59.9061ZM120.056 215.527L132.062 205.742H228.107L240.113 215.527L228.107 225.312H132.062L120.056 215.527ZM179.768 371.148C179.87 371.451 180.299 371.451 180.4 371.148L216.101 264.454H144.068L179.768 371.148Z" fill="#929292"/>
<path d="M637.139 122.903C637.127 124.764 636.765 126.603 636.075 128.314C635.385 130.026 634.38 131.576 633.12 132.874C631.859 134.173 630.366 135.194 628.729 135.879C627.092 136.564 625.342 136.899 623.582 136.865L448.688 136.865C445.149 136.873 441.748 135.416 439.213 132.806C436.679 130.196 435.213 126.641 435.131 122.903C435.143 121.043 435.505 119.204 436.195 117.493C436.885 115.781 437.889 114.231 439.15 112.933C440.411 111.634 441.904 110.613 443.541 109.928C445.178 109.243 446.928 108.908 448.688 108.942L623.915 108.942C627.402 109.006 630.729 110.498 633.196 113.102C635.662 115.706 637.076 119.22 637.139 122.903Z" fill="#929292"/>
<path d="M753.982 326.135C752.252 326.121 750.542 325.732 748.95 324.99C747.358 324.248 745.917 323.168 744.71 321.812C743.502 320.457 742.552 318.852 741.915 317.092C741.278 315.331 740.966 313.45 740.998 311.557V123.5C740.991 119.694 742.346 116.037 744.773 113.312C747.2 110.587 750.506 109.011 753.982 108.922C755.712 108.935 757.423 109.324 759.014 110.066C760.606 110.808 762.048 111.888 763.255 113.244C764.463 114.6 765.413 116.204 766.05 117.965C766.687 119.725 766.998 121.606 766.966 123.5V311.915C766.907 315.664 765.52 319.242 763.098 321.894C760.676 324.547 757.408 326.067 753.982 326.135Z" fill="#929292"/>
<path d="M448.117 326.135C446.387 326.121 444.677 325.732 443.085 324.99C441.493 324.248 440.052 323.168 438.844 321.812C437.637 320.457 436.687 318.852 436.05 317.092C435.413 315.331 435.101 313.45 435.133 311.557V123.5C435.125 119.694 436.481 116.037 438.908 113.312C441.335 110.587 444.641 109.011 448.117 108.922C449.847 108.935 451.558 109.324 453.149 110.066C454.741 110.808 456.182 111.888 457.39 113.244C458.598 114.6 459.548 116.204 460.185 117.965C460.822 119.725 461.133 121.606 461.101 123.5V311.915C461.041 315.664 459.654 319.242 457.233 321.894C454.811 324.547 451.543 326.067 448.117 326.135Z" fill="#929292"/>
<path d="M637.139 312.177C637.127 314.037 636.765 315.876 636.075 317.588C635.385 319.299 634.38 320.849 633.12 322.148C631.859 323.446 630.366 324.467 628.729 325.152C627.092 325.837 625.342 326.173 623.582 326.138L448.688 326.138C445.149 326.147 441.748 324.689 439.213 322.079C436.679 319.47 435.213 315.915 435.131 312.177C435.143 310.317 435.505 308.478 436.195 306.766C436.885 305.055 437.889 303.505 439.15 302.206C440.411 300.908 441.904 299.886 443.541 299.201C445.178 298.516 446.928 298.181 448.688 298.216L623.915 298.216C627.402 298.28 630.729 299.771 633.196 302.375C635.662 304.98 637.076 308.493 637.139 312.177Z" fill="#929292"/>
<path d="M1019.49 326.135C1017.76 326.121 1016.05 325.732 1014.45 324.99C1012.86 324.248 1011.42 323.168 1010.21 321.812C1009.01 320.457 1008.06 318.852 1007.42 317.092C1006.78 315.331 1006.47 313.45 1006.5 311.557V123.5C1006.49 119.694 1007.85 116.037 1010.28 113.312C1012.7 110.587 1016.01 109.011 1019.49 108.922C1021.22 108.935 1022.93 109.324 1024.52 110.066C1026.11 110.808 1027.55 111.888 1028.76 113.244C1029.97 114.6 1030.92 116.204 1031.55 117.965C1032.19 119.725 1032.5 121.606 1032.47 123.5V311.915C1032.47 315.684 1031.1 319.298 1028.67 321.964C1026.23 324.63 1022.93 326.13 1019.49 326.135Z" fill="#929292"/>
<path d="M934.943 269.314C932.417 271.919 929.055 273.374 925.557 273.374C922.059 273.374 918.696 271.919 916.171 269.314L838.72 185.934C837.485 184.608 836.505 183.033 835.837 181.299C835.168 179.565 834.824 177.706 834.824 175.829C834.824 173.951 835.168 172.092 835.837 170.358C836.505 168.624 837.485 167.049 838.72 165.724C841.246 163.118 844.609 161.664 848.106 161.664C851.604 161.664 854.967 163.118 857.493 165.724L934.943 249.104C937.363 251.823 938.714 255.443 938.714 259.209C938.714 262.975 937.363 266.595 934.943 269.314Z" fill="#929292"/>
<path d="M1175.32 326.135C1173.59 326.121 1171.88 325.732 1170.29 324.99C1168.7 324.248 1167.26 323.168 1166.05 321.812C1164.84 320.457 1163.89 318.852 1163.26 317.092C1162.62 315.331 1162.31 313.45 1162.34 311.557V123.5C1162.33 119.694 1163.69 116.037 1166.11 113.312C1168.54 110.587 1171.85 109.011 1175.32 108.922C1177.05 108.935 1178.76 109.324 1180.36 110.066C1181.95 110.808 1183.39 111.888 1184.6 113.244C1185.8 114.6 1186.75 116.204 1187.39 117.965C1188.03 119.725 1188.34 121.606 1188.31 123.5V311.915C1188.25 315.664 1186.86 319.242 1184.44 321.894C1182.02 324.547 1178.75 326.067 1175.32 326.135Z" fill="#929292"/>
<path d="M1487.01 326.133C1485.28 326.12 1483.57 325.731 1481.98 324.989C1480.39 324.247 1478.95 323.167 1477.74 321.811C1476.53 320.455 1475.58 318.851 1474.95 317.09C1474.31 315.33 1474 313.449 1474.03 311.556V123.499C1474.02 119.694 1475.38 116.037 1477.8 113.312C1480.23 110.586 1483.54 109.011 1487.01 108.922C1488.74 108.935 1490.45 109.324 1492.05 110.066C1493.64 110.808 1495.08 111.888 1496.29 113.244C1497.49 114.6 1498.44 116.204 1499.08 117.965C1499.72 119.725 1500.03 121.606 1500 123.499V311.914C1500.02 313.788 1499.71 315.65 1499.06 317.388C1498.42 319.125 1497.47 320.704 1496.25 322.03C1495.04 323.356 1493.6 324.403 1492.01 325.108C1490.43 325.812 1488.73 326.161 1487.01 326.133Z" fill="#929292"/>
<path d="M1331.16 273.373C1329.43 273.36 1327.72 272.977 1326.13 272.246C1324.54 271.514 1323.1 270.45 1321.89 269.114C1320.68 267.777 1319.73 266.196 1319.1 264.461C1318.46 262.726 1318.15 260.871 1318.18 259.006V176.032C1318.17 172.281 1319.53 168.676 1321.95 165.991C1324.38 163.305 1327.69 161.752 1331.16 161.664C1332.89 161.677 1334.6 162.061 1336.2 162.792C1337.79 163.523 1339.23 164.588 1340.44 165.924C1341.64 167.26 1342.59 168.842 1343.23 170.577C1343.87 172.312 1344.18 174.166 1344.15 176.032V259.006C1344.18 260.871 1343.87 262.726 1343.23 264.461C1342.59 266.196 1341.64 267.777 1340.44 269.114C1339.23 270.45 1337.79 271.514 1336.2 272.246C1334.6 272.977 1332.89 273.36 1331.16 273.373Z" fill="#929292"/>
</svg>
