<svg width="8709" height="2367" viewBox="0 0 8709 2367" fill="none" xmlns="http://www.w3.org/2000/svg">
<path fill-rule="evenodd" clip-rule="evenodd" d="M361.21 376.568C362.326 376.568 363.331 377.243 363.753 378.276L561.085 860.727L890.459 1.76381C890.866 0.701388 891.886 0 893.024 0H1087.28C1088.41 0 1089.43 0.701375 1089.84 1.7638L1419.22 860.727L1616.55 378.276C1616.97 377.243 1617.97 376.568 1619.09 376.568H1942.89C1944.92 376.568 1946.25 378.701 1945.35 380.526L1551.24 1183.5L1945.35 1986.47C1946.25 1988.3 1944.92 1990.43 1942.89 1990.43H1619.09C1617.97 1990.43 1616.97 1989.76 1616.55 1988.72L1419.22 1506.27L1089.84 2365.24C1089.43 2366.3 1088.41 2367 1087.28 2367H893.024C891.886 2367 890.866 2366.3 890.459 2365.24L561.085 1506.27L363.753 1988.72C363.331 1989.76 362.326 1990.43 361.21 1990.43H37.4141C35.3805 1990.43 34.0517 1988.3 34.9477 1986.47L429.065 1183.5L2.14676 380.606C1.1737 378.776 2.50003 376.568 4.57266 376.568H99.015H361.21ZM990.671 324.33C990.504 323.83 989.797 323.83 989.629 324.33L792.12 914.523H1188.18L990.671 324.33ZM660.1 1183.5L726.11 1129.7H1254.19L1320.2 1183.5L1254.19 1237.3H726.11L660.1 1183.5ZM989.629 2042.67C989.797 2043.17 990.504 2043.17 990.671 2042.67L1188.18 1452.48H792.12L989.629 2042.67Z" fill="#929292"/>
<path d="M3600.16 662.296C3600.09 672.522 3598.1 682.634 3594.31 692.043C3590.51 701.452 3584.99 709.972 3578.06 717.111C3571.12 724.249 3562.92 729.864 3553.92 733.63C3544.91 737.395 3535.3 739.238 3525.62 739.049L2564 739.049C2544.54 739.095 2525.84 731.084 2511.91 716.736C2497.97 702.388 2489.92 682.845 2489.46 662.296C2489.53 652.069 2491.52 641.959 2495.31 632.55C2499.11 623.14 2504.63 614.619 2511.56 607.48C2518.5 600.342 2526.7 594.727 2535.7 590.962C2544.7 587.196 2554.32 585.354 2564 585.543L3527.45 585.543C3546.62 585.896 3564.91 594.095 3578.47 608.412C3592.04 622.728 3599.81 642.045 3600.16 662.296Z" fill="#929292"/>
<path d="M4441.4 1780.14C4431.89 1780.07 4422.49 1777.93 4413.73 1773.85C4404.98 1769.77 4397.06 1763.83 4390.42 1756.38C4383.78 1748.93 4378.56 1740.1 4375.05 1730.43C4371.55 1720.75 4369.84 1710.41 4370.01 1700V666.142C4369.97 645.22 4377.42 625.114 4390.77 610.133C4404.11 595.151 4422.29 586.488 4441.4 586C4450.91 586.074 4460.32 588.212 4469.07 592.29C4477.82 596.369 4485.75 602.307 4492.39 609.761C4499.03 617.215 4504.25 626.036 4507.75 635.714C4511.25 645.392 4512.97 655.734 4512.79 666.142V1701.97C4512.46 1722.58 4504.84 1742.25 4491.52 1756.83C4478.2 1771.41 4460.24 1779.77 4441.4 1780.14Z" fill="#929292"/>
<path d="M2560.87 1779.57C2551.35 1779.5 2541.95 1777.36 2533.2 1773.28C2524.44 1769.2 2516.52 1763.26 2509.88 1755.81C2503.24 1748.36 2498.02 1739.53 2494.52 1729.86C2491.01 1720.18 2489.3 1709.84 2489.48 1699.43V665.571C2489.43 644.65 2496.88 624.544 2510.23 609.562C2523.57 594.581 2541.75 585.918 2560.87 585.43C2570.38 585.503 2579.78 587.641 2588.53 591.72C2597.28 595.799 2605.21 601.737 2611.85 609.191C2618.49 616.645 2623.71 625.466 2627.21 635.144C2630.72 644.822 2632.43 655.164 2632.25 665.571V1701.4C2631.93 1722.01 2624.3 1741.68 2610.98 1756.26C2597.67 1770.84 2579.7 1779.2 2560.87 1779.57Z" fill="#929292"/>
<path d="M3600.16 1702.83C3600.09 1713.06 3598.1 1723.17 3594.31 1732.58C3590.51 1741.99 3584.99 1750.51 3578.06 1757.65C3571.12 1764.79 3562.92 1770.4 3553.92 1774.17C3544.91 1777.93 3535.3 1779.78 3525.62 1779.59L2564 1779.59C2544.54 1779.63 2525.84 1771.62 2511.91 1757.28C2497.97 1742.93 2489.92 1723.38 2489.46 1702.83C2489.53 1692.61 2491.52 1682.5 2495.31 1673.09C2499.11 1663.68 2504.63 1655.16 2511.56 1648.02C2518.5 1640.88 2526.7 1635.27 2535.7 1631.5C2544.7 1627.73 2554.32 1625.89 2564 1626.08L3527.45 1626.08C3546.62 1626.44 3564.91 1634.63 3578.47 1648.95C3592.04 1663.27 3599.81 1682.58 3600.16 1702.83Z" fill="#929292"/>
<path d="M5901.21 1780.14C5891.7 1780.07 5882.29 1777.93 5873.54 1773.85C5864.79 1769.77 5856.86 1763.83 5850.22 1756.38C5843.58 1748.93 5838.36 1740.1 5834.86 1730.43C5831.36 1720.75 5829.64 1710.41 5829.82 1700V666.142C5829.78 645.22 5837.23 625.114 5850.57 610.133C5863.92 595.151 5882.1 586.488 5901.21 586C5910.72 586.074 5920.13 588.212 5928.88 592.29C5937.63 596.369 5945.55 602.307 5952.19 609.761C5958.83 617.215 5964.06 626.036 5967.56 635.714C5971.06 645.392 5972.77 655.734 5972.6 666.142V1701.97C5972.59 1722.69 5965.06 1742.56 5951.68 1757.21C5938.29 1771.87 5920.14 1780.11 5901.21 1780.14Z" fill="#929292"/>
<path d="M5436.37 1467.77C5422.48 1482.09 5403.99 1490.08 5384.76 1490.08C5365.53 1490.08 5347.04 1482.09 5333.15 1467.77L4907.31 1009.38C4900.52 1002.09 4895.13 993.43 4891.46 983.898C4887.78 974.365 4885.89 964.145 4885.89 953.824C4885.89 943.502 4887.78 933.283 4891.46 923.75C4895.13 914.217 4900.52 905.558 4907.31 898.271C4921.2 883.949 4939.69 875.953 4958.92 875.953C4978.15 875.953 4996.64 883.949 5010.53 898.271L5436.37 1356.66C5449.67 1371.61 5457.1 1391.51 5457.1 1412.21C5457.1 1432.92 5449.67 1452.82 5436.37 1467.77Z" fill="#929292"/>
<path d="M6923.4 1780.14C6913.89 1780.07 6904.49 1777.93 6895.73 1773.85C6886.98 1769.77 6879.06 1763.83 6872.42 1756.38C6865.78 1748.93 6860.55 1740.1 6857.05 1730.43C6853.55 1720.75 6851.84 1710.41 6852.01 1700V666.142C6851.97 645.22 6859.42 625.114 6872.77 610.133C6886.11 595.151 6904.29 586.488 6923.4 586C6932.91 586.074 6942.32 588.212 6951.07 592.29C6959.82 596.369 6967.75 602.307 6974.39 609.761C6981.03 617.215 6986.25 626.036 6989.75 635.714C6993.25 645.392 6994.97 655.734 6994.79 666.142V1701.97C6994.46 1722.58 6986.84 1742.25 6973.52 1756.83C6960.2 1771.41 6942.24 1779.77 6923.4 1780.14Z" fill="#929292"/>
<path d="M8637.15 1780.13C8627.64 1780.06 8618.23 1777.92 8609.48 1773.84C8600.73 1769.76 8592.8 1763.83 8586.16 1756.37C8579.52 1748.92 8574.3 1740.1 8570.8 1730.42C8567.3 1720.74 8565.58 1710.4 8565.76 1699.99V666.141C8565.72 645.22 8573.17 625.114 8586.51 610.132C8599.86 595.151 8618.04 586.488 8637.15 586C8646.66 586.074 8656.07 588.212 8664.82 592.29C8673.57 596.369 8681.5 602.307 8688.13 609.761C8694.77 617.215 8700 626.036 8703.5 635.714C8707 645.392 8708.71 655.734 8708.54 666.141V1701.96C8708.69 1712.27 8706.94 1722.5 8703.41 1732.05C8699.87 1741.61 8694.62 1750.29 8687.96 1757.58C8681.3 1764.87 8673.37 1770.62 8664.65 1774.49C8655.92 1778.37 8646.57 1780.29 8637.15 1780.13Z" fill="#929292"/>
<path d="M7780.25 1490.08C7770.74 1490.01 7761.33 1487.9 7752.58 1483.88C7743.83 1479.86 7735.9 1474.01 7729.26 1466.66C7722.62 1459.32 7717.4 1450.62 7713.9 1441.08C7710.4 1431.55 7708.68 1421.35 7708.86 1411.09V954.942C7708.82 934.322 7716.27 914.504 7729.61 899.739C7742.96 884.973 7761.14 876.434 7780.25 875.953C7789.76 876.026 7799.17 878.133 7807.92 882.153C7816.67 886.173 7824.59 892.026 7831.23 899.372C7837.87 906.719 7843.1 915.413 7846.6 924.952C7850.1 934.491 7851.81 944.684 7851.64 954.942V1411.09C7851.81 1421.35 7850.1 1431.55 7846.6 1441.08C7843.1 1450.62 7837.87 1459.32 7831.23 1466.66C7824.59 1474.01 7816.67 1479.86 7807.92 1483.88C7799.17 1487.9 7789.76 1490.01 7780.25 1490.08Z" fill="#929292"/>
</svg>
