<svg width="190" height="85" viewBox="0 0 190 85" fill="none" xmlns="http://www.w3.org/2000/svg">
<path d="M14.2598 24.8594C14.6973 24.8594 15.0306 25.0781 15.2598 25.5156C15.3223 25.6562 15.3535 25.7865 15.3535 25.9062V37.1797C15.3535 37.5599 15.153 37.875 14.752 38.125C14.6061 38.1875 14.5046 38.2188 14.4473 38.2188H14.0566C13.8796 38.2083 13.6738 38.1042 13.4395 37.9062C13.2415 37.6667 13.1426 37.4297 13.1426 37.1953C13.1374 37.1953 13.1348 37.1484 13.1348 37.0547V26.0234C13.1348 25.4714 13.4082 25.0964 13.9551 24.8984C14.0592 24.8724 14.1608 24.8594 14.2598 24.8594ZM18.6504 36.0156H20.8535C21.4316 36.0156 21.8197 36.2812 22.0176 36.8125C22.0436 36.9219 22.0566 37.013 22.0566 37.0859V37.1875C22.0566 37.5521 21.8613 37.862 21.4707 38.1172C21.3145 38.1849 21.2051 38.2188 21.1426 38.2188H18.3848C18.1868 38.2188 17.9655 38.0938 17.7207 37.8438C17.5488 37.6302 17.4629 37.4089 17.4629 37.1797V37.0938C17.4629 36.7083 17.6582 36.3932 18.0488 36.1484C18.2207 36.0599 18.4212 36.0156 18.6504 36.0156ZM27.6035 24.8594H34.1348L34.166 24.875H34.1895C34.5801 24.875 34.8978 25.0755 35.1426 25.4766C35.2259 25.6432 35.2676 25.8151 35.2676 25.9922C35.2676 26.4245 35.054 26.7578 34.627 26.9922C34.4811 27.0599 34.3353 27.0938 34.1895 27.0938H27.5332C27.2207 27.0938 26.9447 26.9505 26.7051 26.6641C26.5488 26.4557 26.4707 26.2422 26.4707 26.0234V25.9297C26.4707 25.5859 26.6426 25.2917 26.9863 25.0469C27.1738 24.9323 27.3587 24.875 27.541 24.875H27.5723L27.6035 24.8594ZM27.5879 30.4453L30.9551 30.4609C31.179 30.4609 31.4186 30.5755 31.6738 30.8047C31.877 31.0391 31.9785 31.2943 31.9785 31.5703C31.9785 31.9557 31.7988 32.2708 31.4395 32.5156C31.2624 32.6198 31.0905 32.6719 30.9238 32.6719H27.5176C27.1842 32.6719 26.8952 32.5052 26.6504 32.1719C26.5306 31.9844 26.4707 31.7969 26.4707 31.6094V31.5156C26.4707 31.1615 26.6556 30.8568 27.0254 30.6016C27.2129 30.5078 27.39 30.4609 27.5566 30.4609H27.5723C27.5827 30.4609 27.5879 30.4557 27.5879 30.4453ZM34.127 30.4609H34.1816C34.6035 30.4609 34.9342 30.6797 35.1738 31.1172C35.2363 31.2734 35.2676 31.4245 35.2676 31.5703C35.2676 32.0078 35.0514 32.3438 34.6191 32.5781C34.4629 32.6406 34.3249 32.6719 34.2051 32.6719H34.0957C33.7415 32.6719 33.4395 32.487 33.1895 32.1172C33.0905 31.9297 33.041 31.7448 33.041 31.5625C33.041 31.1354 33.2546 30.8021 33.6816 30.5625C33.8431 30.4948 33.9915 30.4609 34.127 30.4609ZM27.6035 36.0078H34.1348C34.1348 36.0182 34.2155 36.0312 34.377 36.0469C34.6478 36.1146 34.8535 36.237 34.9941 36.4141C35.1764 36.6276 35.2676 36.8724 35.2676 37.1484C35.2676 37.5703 35.054 37.9036 34.627 38.1484C34.4967 38.1953 34.4082 38.2188 34.3613 38.2188H27.377C27.1947 38.2188 26.9759 38.0964 26.7207 37.8516C26.554 37.6276 26.4707 37.401 26.4707 37.1719V37.1016C26.4707 36.7161 26.666 36.401 27.0566 36.1562C27.1712 36.0885 27.3483 36.0417 27.5879 36.0156C27.5879 36.0104 27.5931 36.0078 27.6035 36.0078ZM49.1426 24.8594H49.2363C49.5488 24.8594 49.8353 24.9896 50.0957 25.25C50.6061 25.8281 50.9629 26.5521 51.166 27.4219C51.2337 27.7344 51.2676 28.0365 51.2676 28.3281V28.5469C51.2676 29.474 50.9603 30.3906 50.3457 31.2969C50.1895 31.5104 49.9447 31.7786 49.6113 32.1016C49.1686 32.4609 48.7832 32.7109 48.4551 32.8516V36.6484C48.4551 37.1328 48.2389 37.5547 47.8066 37.9141C47.5046 38.1172 47.2572 38.2188 47.0645 38.2188H46.5566C46.3118 38.1875 46.0671 38.0859 45.8223 37.9141C45.39 37.5651 45.1738 37.1146 45.1738 36.5625V32.6641C45.1738 32.6432 45.1764 32.6172 45.1816 32.5859C45.1764 32.5755 45.1738 32.5521 45.1738 32.5156C45.1738 31.7656 45.5332 31.2188 46.252 30.875C46.4811 30.8021 46.6686 30.7656 46.8145 30.7656C47.2624 30.6667 47.64 30.4844 47.9473 30.2188C48.4837 29.7083 48.752 29.1198 48.752 28.4531V28.3828C48.752 27.9089 48.6009 27.4583 48.2988 27.0312C48.304 27.0156 48.3066 27.0052 48.3066 27C48.0618 26.7448 47.9395 26.4661 47.9395 26.1641V26.0547C47.9395 25.7266 48.0827 25.4271 48.3691 25.1562C48.6191 24.9583 48.877 24.8594 49.1426 24.8594ZM62.3535 24.8594H62.4629C62.9212 24.8594 63.3171 25.138 63.6504 25.6953C64.2077 26.5234 64.4863 27.4271 64.4863 28.4062V28.4375C64.4863 29.6406 64.0749 30.7214 63.252 31.6797C62.8405 32.0964 62.5566 32.3464 62.4004 32.4297C62.1504 32.6016 61.9108 32.7396 61.6816 32.8438V32.8594C63.2806 34.9062 64.153 36.0312 64.2988 36.2344C64.4134 36.4531 64.4707 36.6536 64.4707 36.8359V36.9688C64.4707 37.401 64.2467 37.7682 63.7988 38.0703C63.5957 38.1693 63.4473 38.2188 63.3535 38.2188H62.9082C62.6738 38.1979 62.4264 38.0703 62.166 37.8359C59.7962 34.7995 58.5879 33.2422 58.541 33.1641C58.4473 32.9505 58.4004 32.737 58.4004 32.5234V32.4141C58.4004 31.9089 58.6322 31.4661 59.0957 31.0859C59.3978 30.8828 59.6816 30.7812 59.9473 30.7812C60.1868 30.7344 60.3926 30.6745 60.5645 30.6016C61.1165 30.3359 61.5202 29.9297 61.7754 29.3828C61.9056 29.0547 61.9707 28.7656 61.9707 28.5156V28.4766C61.9707 28.4557 61.9733 28.4401 61.9785 28.4297L61.9707 28.375V28.3359C61.9707 27.8984 61.8197 27.4609 61.5176 27.0234C61.5228 27.0078 61.5254 26.9974 61.5254 26.9922C61.2806 26.7526 61.1582 26.4609 61.1582 26.1172V26.0938C61.1582 25.6562 61.3587 25.3047 61.7598 25.0391C61.9577 24.9193 62.1556 24.8594 62.3535 24.8594ZM78.8457 24.8594C79.2259 24.8594 79.5827 25.0443 79.916 25.4141C79.9368 25.4141 80.1296 25.6068 80.4941 25.9922C81.7181 27.3776 82.3301 28.9922 82.3301 30.8359C82.3301 33.3255 81.2311 35.3724 79.0332 36.9766C78.6426 37.2422 78.252 37.4635 77.8613 37.6406C77.5124 37.7917 77.153 37.9167 76.7832 38.0156C76.1947 38.151 75.7415 38.2188 75.4238 38.2188H74.3691C73.8275 38.2188 73.127 38.0729 72.2676 37.7812C71.7728 37.5781 71.3327 37.3516 70.9473 37.1016C70.6243 36.9036 70.1895 36.5443 69.6426 36.0234C69.4238 35.7839 69.3145 35.513 69.3145 35.2109V35.1875C69.3145 34.7292 69.5384 34.3672 69.9863 34.1016C70.1634 34.0182 70.3535 33.9766 70.5566 33.9766C70.8275 33.9766 71.0827 34.0703 71.3223 34.2578C72.2858 35.263 73.4811 35.7656 74.9082 35.7656C76.5905 35.7656 77.9551 35.0443 79.002 33.6016C79.554 32.7891 79.8301 31.862 79.8301 30.8203C79.8301 29.2682 79.1895 27.9661 77.9082 26.9141C77.7051 26.6589 77.6035 26.3854 77.6035 26.0938C77.6035 25.6354 77.8223 25.2708 78.2598 25C78.4525 24.9062 78.6478 24.8594 78.8457 24.8594ZM88.8223 25.3281C89.2806 25.3281 89.6426 25.5599 89.9082 26.0234C89.9863 26.2266 90.0254 26.3958 90.0254 26.5312C90.0254 26.9271 89.8327 27.2786 89.4473 27.5859C88.5046 28.5234 88.0332 29.6693 88.0332 31.0234C88.0332 32.7318 88.7728 34.0938 90.252 35.1094C91.0332 35.5885 91.8978 35.8281 92.8457 35.8281C94.278 35.8281 95.4889 35.2865 96.4785 34.2031V31.1094C96.4785 30.5156 96.7728 30.1094 97.3613 29.8906C97.4915 29.8646 97.6009 29.8516 97.6895 29.8516C98.1738 29.8516 98.5436 30.0964 98.7988 30.5859C98.8561 30.7526 98.8848 30.9167 98.8848 31.0781V34.9609C98.8171 35.1484 98.5072 35.5365 97.9551 36.125C97.3822 36.6458 96.8926 37.0234 96.4863 37.2578C96.0384 37.5182 95.6061 37.7161 95.1895 37.8516C94.4134 38.0964 93.8171 38.2188 93.4004 38.2188H92.2676C91.7467 38.2188 91.0671 38.0703 90.2285 37.7734C89.791 37.6016 89.3405 37.3646 88.877 37.0625C86.6999 35.4844 85.6113 33.4688 85.6113 31.0156C85.6113 29.0104 86.3327 27.2995 87.7754 25.8828C88.0827 25.513 88.4316 25.3281 88.8223 25.3281ZM93.916 29.8125C94.39 29.8125 94.7546 30.0469 95.0098 30.5156C95.0775 30.6771 95.1113 30.8307 95.1113 30.9766V31.0547C95.1113 31.4557 94.916 31.7865 94.5254 32.0469C94.3327 32.1615 94.127 32.2188 93.9082 32.2188C93.4395 32.2188 93.0749 31.9818 92.8145 31.5078C92.7467 31.3464 92.7129 31.1953 92.7129 31.0547V30.9766C92.7129 30.5703 92.9134 30.2344 93.3145 29.9688C93.5072 29.8646 93.7077 29.8125 93.916 29.8125ZM108.447 24.8594H108.557C109.015 24.8594 109.411 25.138 109.744 25.6953C110.301 26.5234 110.58 27.4271 110.58 28.4062V28.4375C110.58 29.6406 110.169 30.7214 109.346 31.6797C108.934 32.0964 108.65 32.3464 108.494 32.4297C108.244 32.6016 108.005 32.7396 107.775 32.8438V32.8594C109.374 34.9062 110.247 36.0312 110.393 36.2344C110.507 36.4531 110.564 36.6536 110.564 36.8359V36.9688C110.564 37.401 110.34 37.7682 109.893 38.0703C109.689 38.1693 109.541 38.2188 109.447 38.2188H109.002C108.768 38.1979 108.52 38.0703 108.26 37.8359C105.89 34.7995 104.682 33.2422 104.635 33.1641C104.541 32.9505 104.494 32.737 104.494 32.5234V32.4141C104.494 31.9089 104.726 31.4661 105.189 31.0859C105.492 30.8828 105.775 30.7812 106.041 30.7812C106.281 30.7344 106.486 30.6745 106.658 30.6016C107.21 30.3359 107.614 29.9297 107.869 29.3828C107.999 29.0547 108.064 28.7656 108.064 28.5156V28.4766C108.064 28.4557 108.067 28.4401 108.072 28.4297L108.064 28.375V28.3359C108.064 27.8984 107.913 27.4609 107.611 27.0234C107.617 27.0078 107.619 26.9974 107.619 26.9922C107.374 26.7526 107.252 26.4609 107.252 26.1172V26.0938C107.252 25.6562 107.452 25.3047 107.854 25.0391C108.051 24.9193 108.249 24.8594 108.447 24.8594ZM121.596 24.9766C121.95 24.9766 122.265 25.1458 122.541 25.4844C122.588 25.5521 122.913 26.1953 123.518 27.4141C126.278 32.9141 127.658 35.6719 127.658 35.6875C128.012 36.3385 128.189 36.7812 128.189 37.0156C128.189 37.3542 128.064 37.651 127.814 37.9062C127.564 38.1146 127.348 38.2188 127.166 38.2188H126.752C126.721 38.2188 126.684 38.2135 126.643 38.2031C126.34 38.1042 126.111 37.9375 125.955 37.7031L121.955 29.7891C121.851 29.4974 121.715 29.3516 121.549 29.3516C121.46 29.3516 121.38 29.388 121.307 29.4609C120.229 31.6224 119.674 32.7266 119.643 32.7734C119.367 33.1432 119.025 33.3281 118.619 33.3281C118.432 33.3281 118.242 33.2812 118.049 33.1875C117.596 32.9219 117.369 32.5547 117.369 32.0859C117.369 32.0339 117.406 31.8802 117.479 31.625C117.505 31.5417 118.51 29.5286 120.494 25.5859C120.76 25.1797 121.096 24.9766 121.502 24.9766H121.596ZM116.174 35.8359C116.393 35.8359 116.614 35.9115 116.838 36.0625C117.166 36.3281 117.33 36.6536 117.33 37.0391C117.33 37.3411 117.218 37.6198 116.994 37.875C116.734 38.1042 116.51 38.2188 116.322 38.2188H115.916C115.838 38.2188 115.721 38.1823 115.564 38.1094C115.127 37.8438 114.908 37.4844 114.908 37.0312C114.908 36.8438 114.965 36.6432 115.08 36.4297C115.346 36.0339 115.676 35.8359 116.072 35.8359H116.174ZM131.729 25.0938H131.775C132.15 25.0938 132.481 25.2734 132.768 25.6328C132.872 25.7734 134.15 27.3984 136.604 30.5078C136.984 30.9818 137.176 31.2214 137.182 31.2266C138.963 28.9818 140.484 27.0573 141.744 25.4531C142.005 25.2135 142.281 25.0938 142.572 25.0938H142.65C143.051 25.0938 143.385 25.2917 143.65 25.6875C143.76 25.8854 143.814 26.0833 143.814 26.2812C143.814 26.625 143.656 26.9661 143.338 27.3047L138.025 34.0312C137.77 34.2604 137.489 34.375 137.182 34.375C136.739 34.375 136.385 34.1719 136.119 33.7656L132.986 29.8125V36.9688C132.986 37.5625 132.71 37.9661 132.158 38.1797C132.08 38.2057 132.023 38.2188 131.986 38.2188H131.596C131.403 38.2188 131.179 38.1068 130.924 37.8828C130.695 37.638 130.58 37.3438 130.58 37V26.6172L130.541 26.2969C130.541 25.8438 130.757 25.487 131.189 25.2266C131.367 25.138 131.546 25.0938 131.729 25.0938ZM148.135 25.0938H148.182C148.557 25.0938 148.887 25.2734 149.174 25.6328C149.278 25.7734 150.557 27.3984 153.01 30.5078C153.39 30.9818 153.583 31.2214 153.588 31.2266C155.369 28.9818 156.89 27.0573 158.15 25.4531C158.411 25.2135 158.687 25.0938 158.979 25.0938H159.057C159.458 25.0938 159.791 25.2917 160.057 25.6875C160.166 25.8854 160.221 26.0833 160.221 26.2812C160.221 26.625 160.062 26.9661 159.744 27.3047L154.432 34.0312C154.176 34.2604 153.895 34.375 153.588 34.375C153.145 34.375 152.791 34.1719 152.525 33.7656L149.393 29.8125V36.9688C149.393 37.5625 149.117 37.9661 148.564 38.1797C148.486 38.2057 148.429 38.2188 148.393 38.2188H148.002C147.809 38.2188 147.585 38.1068 147.33 37.8828C147.101 37.638 146.986 37.3438 146.986 37V26.6172L146.947 26.2969C146.947 25.8438 147.163 25.487 147.596 25.2266C147.773 25.138 147.952 25.0938 148.135 25.0938ZM165.166 24.8594H171.697L171.729 24.875H171.752C172.143 24.875 172.46 25.0755 172.705 25.4766C172.788 25.6432 172.83 25.8151 172.83 25.9922C172.83 26.4245 172.617 26.7578 172.189 26.9922C172.044 27.0599 171.898 27.0938 171.752 27.0938H165.096C164.783 27.0938 164.507 26.9505 164.268 26.6641C164.111 26.4557 164.033 26.2422 164.033 26.0234V25.9297C164.033 25.5859 164.205 25.2917 164.549 25.0469C164.736 24.9323 164.921 24.875 165.104 24.875H165.135L165.166 24.8594ZM165.15 30.4453L168.518 30.4609C168.742 30.4609 168.981 30.5755 169.236 30.8047C169.439 31.0391 169.541 31.2943 169.541 31.5703C169.541 31.9557 169.361 32.2708 169.002 32.5156C168.825 32.6198 168.653 32.6719 168.486 32.6719H165.08C164.747 32.6719 164.458 32.5052 164.213 32.1719C164.093 31.9844 164.033 31.7969 164.033 31.6094V31.5156C164.033 31.1615 164.218 30.8568 164.588 30.6016C164.775 30.5078 164.952 30.4609 165.119 30.4609H165.135C165.145 30.4609 165.15 30.4557 165.15 30.4453ZM171.689 30.4609H171.744C172.166 30.4609 172.497 30.6797 172.736 31.1172C172.799 31.2734 172.83 31.4245 172.83 31.5703C172.83 32.0078 172.614 32.3438 172.182 32.5781C172.025 32.6406 171.887 32.6719 171.768 32.6719H171.658C171.304 32.6719 171.002 32.487 170.752 32.1172C170.653 31.9297 170.604 31.7448 170.604 31.5625C170.604 31.1354 170.817 30.8021 171.244 30.5625C171.406 30.4948 171.554 30.4609 171.689 30.4609ZM165.166 36.0078H171.697C171.697 36.0182 171.778 36.0312 171.939 36.0469C172.21 36.1146 172.416 36.237 172.557 36.4141C172.739 36.6276 172.83 36.8724 172.83 37.1484C172.83 37.5703 172.617 37.9036 172.189 38.1484C172.059 38.1953 171.971 38.2188 171.924 38.2188H164.939C164.757 38.2188 164.538 38.0964 164.283 37.8516C164.117 37.6276 164.033 37.401 164.033 37.1719V37.1016C164.033 36.7161 164.229 36.401 164.619 36.1562C164.734 36.0885 164.911 36.0417 165.15 36.0156C165.15 36.0104 165.156 36.0078 165.166 36.0078ZM14.9022 43.3412H14.9996C15.3242 43.3412 15.6218 43.4764 15.8923 43.747C16.4225 44.3475 16.7931 45.0995 17.0041 46.0031C17.0744 46.3277 17.1096 46.6415 17.1096 46.9445V47.1717C17.1096 48.1348 16.7904 49.087 16.152 50.0284C15.9897 50.2502 15.7354 50.5288 15.3891 50.8643C14.9292 51.2376 14.5289 51.4973 14.188 51.6434V55.5875C14.188 56.0907 13.9635 56.5289 13.5144 56.9022C13.2006 57.1132 12.9436 57.2188 12.7434 57.2188H12.2159C11.9616 57.1863 11.7074 57.0808 11.4531 56.9022C11.004 56.5397 10.7795 56.0718 10.7795 55.4983V51.4486C10.7795 51.427 10.7822 51.3999 10.7876 51.3674C10.7822 51.3566 10.7795 51.3323 10.7795 51.2944C10.7795 50.5153 11.1528 49.9472 11.8994 49.5901C12.1375 49.5144 12.3323 49.4765 12.4837 49.4765C12.949 49.3737 13.3413 49.1844 13.6605 48.9084C14.2178 48.3782 14.4964 47.7669 14.4964 47.0743V47.0013C14.4964 46.5089 14.3395 46.0409 14.0257 45.5973C14.0311 45.5811 14.0338 45.5702 14.0338 45.5648C13.7795 45.2997 13.6524 45.0103 13.6524 44.6965V44.5829C13.6524 44.242 13.8012 43.9309 14.0987 43.6496C14.3584 43.444 14.6262 43.3412 14.9022 43.3412ZM24.2432 43.3412H31.0278L31.0602 43.3574H31.0846C31.4903 43.3574 31.8204 43.5657 32.0747 43.9823C32.1612 44.1554 32.2045 44.334 32.2045 44.5179C32.2045 44.967 31.9827 45.3133 31.539 45.5567C31.3875 45.6271 31.2361 45.6622 31.0846 45.6622H24.1701C23.8455 45.6622 23.5588 45.5134 23.3099 45.2159C23.1476 44.9995 23.0664 44.7776 23.0664 44.5504V44.453C23.0664 44.0959 23.245 43.7902 23.602 43.5359C23.7968 43.4169 23.9889 43.3574 24.1782 43.3574H24.2107L24.2432 43.3412ZM24.2269 49.1438L27.7247 49.16C27.9574 49.16 28.2063 49.279 28.4714 49.5171C28.6824 49.7606 28.7879 50.0257 28.7879 50.3124C28.7879 50.7128 28.6012 51.0401 28.2279 51.2944C28.0439 51.4026 27.8654 51.4567 27.6923 51.4567H24.1539C23.8076 51.4567 23.5074 51.2836 23.2531 50.9373C23.1286 50.7425 23.0664 50.5478 23.0664 50.353V50.2556C23.0664 49.8877 23.2585 49.5712 23.6426 49.3061C23.8374 49.2087 24.0213 49.16 24.1945 49.16H24.2107C24.2215 49.16 24.2269 49.1546 24.2269 49.1438ZM31.0196 49.16H31.0764C31.5147 49.16 31.8582 49.3873 32.1071 49.8417C32.172 50.004 32.2045 50.1609 32.2045 50.3124C32.2045 50.7669 31.98 51.1159 31.5309 51.3593C31.3686 51.4243 31.2252 51.4567 31.1008 51.4567H30.9872C30.6193 51.4567 30.3055 51.2646 30.0458 50.8805C29.943 50.6857 29.8916 50.4937 29.8916 50.3043C29.8916 49.8607 30.1134 49.5144 30.5571 49.2655C30.7248 49.1952 30.879 49.16 31.0196 49.16ZM24.2432 54.9221H31.0278C31.0278 54.9329 31.1116 54.9464 31.2793 54.9626C31.5607 55.033 31.7744 55.1601 31.9205 55.3441C32.1098 55.5659 32.2045 55.8202 32.2045 56.1069C32.2045 56.5452 31.9827 56.8914 31.539 57.1457C31.4038 57.1944 31.3118 57.2188 31.2631 57.2188H24.0078C23.8185 57.2188 23.5912 57.0916 23.3261 56.8373C23.153 56.6047 23.0664 56.3693 23.0664 56.1313V56.0582C23.0664 55.6579 23.2693 55.3305 23.6751 55.0762C23.7941 55.0059 23.9781 54.9572 24.2269 54.9302C24.2269 54.9248 24.2323 54.9221 24.2432 54.9221ZM42.422 43.3412H42.5356C43.0117 43.3412 43.4229 43.6306 43.7692 44.2095C44.3481 45.0698 44.6375 46.0085 44.6375 47.0256V47.0581C44.6375 48.3079 44.2101 49.4305 43.3553 50.426C42.9278 50.8589 42.633 51.1186 42.4707 51.2051C42.211 51.3837 41.9621 51.5271 41.724 51.6353V51.6515C43.385 53.7778 44.2913 54.9464 44.4427 55.1574C44.5618 55.3846 44.6213 55.5929 44.6213 55.7823V55.9203C44.6213 56.3693 44.3886 56.7508 43.9233 57.0646C43.7123 57.1674 43.5581 57.2188 43.4608 57.2188H42.9982C42.7547 57.1971 42.4977 57.0646 42.2272 56.8211C39.7655 53.6668 38.5103 52.0492 38.4616 51.968C38.3642 51.7462 38.3155 51.5243 38.3155 51.3025V51.1889C38.3155 50.6641 38.5563 50.2042 39.0378 49.8093C39.3516 49.5983 39.6465 49.4928 39.9224 49.4928C40.1713 49.4441 40.385 49.3818 40.5635 49.3061C41.137 49.0302 41.5563 48.6082 41.8214 48.0401C41.9567 47.6992 42.0243 47.3989 42.0243 47.1392V47.0987C42.0243 47.077 42.027 47.0608 42.0324 47.05L42.0243 46.9932V46.9526C42.0243 46.4981 41.8674 46.0437 41.5536 45.5892C41.559 45.5729 41.5617 45.5621 41.5617 45.5567C41.3074 45.3078 41.1803 45.0049 41.1803 44.6478V44.6234C41.1803 44.169 41.3886 43.8038 41.8052 43.5278C42.0108 43.4034 42.2164 43.3412 42.422 43.3412ZM54.855 43.3412H54.9524C55.5313 43.3412 56.1075 43.4981 56.681 43.8119C56.9677 44.0608 57.1111 44.3421 57.1111 44.6559V44.7208C57.1111 45.0995 56.919 45.4106 56.5349 45.6541C56.3672 45.7299 56.2076 45.7677 56.0561 45.7677H56.0155C55.8748 45.7677 55.6233 45.7001 55.2608 45.5648C55.1201 45.527 54.974 45.508 54.8225 45.508C54.4059 45.508 54.0164 45.6866 53.6539 46.0437C53.378 46.4116 53.24 46.7822 53.24 47.1555C53.24 47.5883 53.3996 47.9779 53.7188 48.3241C53.8487 48.5189 53.9136 48.7299 53.9136 48.9571C53.9136 49.3737 53.7053 49.6983 53.2887 49.931C53.1372 49.9959 53.0019 50.0284 52.8829 50.0284H52.7774C52.3662 50.0284 52.001 49.7552 51.6818 49.2087C51.276 48.5486 51.0731 47.8615 51.0731 47.1474C51.0731 46.2709 51.3869 45.4404 52.0145 44.6559C52.2688 44.3746 52.4934 44.1717 52.6881 44.0472C53.4185 43.5765 54.1408 43.3412 54.855 43.3412ZM55.1877 49.2168C55.6368 49.2168 55.9722 49.4468 56.194 49.9066C56.2373 50.0419 56.259 50.1636 56.259 50.2718V50.3205C56.259 50.7101 56.0669 51.0212 55.6828 51.2538C55.5205 51.335 55.3717 51.3756 55.2364 51.3756H55.1309C54.7846 51.3756 54.4898 51.1943 54.2463 50.8318C54.1543 50.6479 54.1084 50.4829 54.1084 50.3368V50.2718C54.1084 49.931 54.2625 49.6442 54.5709 49.4116C54.7549 49.2818 54.9605 49.2168 55.1877 49.2168ZM57.525 50.564H57.5575C57.947 50.564 58.2743 50.7669 58.5394 51.1727C59.0534 51.8923 59.3104 52.6605 59.3104 53.4775C59.3104 54.3377 59.002 55.152 58.3852 55.9203C58.0065 56.326 57.6981 56.583 57.4601 56.6912C57.103 56.886 56.8595 56.9969 56.7297 57.024C56.3455 57.1538 56.0426 57.2188 55.8207 57.2188H55.139C54.8415 57.2188 54.4276 57.1024 53.8973 56.8698L53.6214 56.675C53.3834 56.4478 53.2643 56.1773 53.2643 55.8635C53.2643 55.436 53.4835 55.1087 53.9217 54.8815C54.0732 54.822 54.2166 54.7922 54.3518 54.7922C54.5249 54.7922 54.763 54.8625 55.066 55.0032C55.2553 55.0519 55.4231 55.0762 55.5691 55.0762C56.1372 55.0762 56.5998 54.7841 56.9569 54.1998C57.0759 53.9617 57.1354 53.7237 57.1354 53.4856C57.1354 53.0365 56.9677 52.6226 56.6323 52.2439C56.5133 52.0492 56.4537 51.8436 56.4537 51.6271C56.4537 51.2592 56.6323 50.9563 56.9894 50.7182C57.1625 50.6154 57.341 50.564 57.525 50.564ZM73.3503 43.3412C73.7453 43.3412 74.1159 43.5332 74.4621 43.9174C74.4838 43.9174 74.684 44.1176 75.0627 44.5179C76.3341 45.9571 76.9698 47.6343 76.9698 49.5496C76.9698 52.1357 75.8282 54.262 73.5451 55.9284C73.1393 56.2043 72.7335 56.4342 72.3277 56.6182C71.9652 56.7751 71.5919 56.9049 71.2078 57.0077C70.5964 57.1484 70.1257 57.2188 69.7957 57.2188H68.7001C68.1374 57.2188 67.4097 57.0673 66.517 56.7643C66.003 56.5533 65.5459 56.3179 65.1455 56.0582C64.81 55.8526 64.3583 55.4793 63.7902 54.9383C63.563 54.6894 63.4493 54.4081 63.4493 54.0943V54.0699C63.4493 53.5938 63.682 53.2178 64.1473 52.9419C64.3312 52.8553 64.5287 52.812 64.7397 52.812C65.021 52.812 65.2862 52.9094 65.535 53.1042C66.5359 54.1484 67.7776 54.6705 69.2601 54.6705C71.0076 54.6705 72.4251 53.9211 73.5126 52.4225C74.0861 51.5784 74.3729 50.6154 74.3729 49.5333C74.3729 47.921 73.7074 46.5685 72.3764 45.4756C72.1654 45.2105 72.0599 44.9264 72.0599 44.6234C72.0599 44.1473 72.2872 43.7686 72.7416 43.4873C72.9418 43.3899 73.1447 43.3412 73.3503 43.3412ZM81.2305 43.5035C81.6309 43.5035 82.0015 43.7091 82.3423 44.1203C85.4425 47.2204 88.3965 50.1718 91.2045 52.9743H91.2126V44.7614C91.2126 44.242 91.4696 43.8552 91.9836 43.6009C92.1459 43.5359 92.3109 43.5035 92.4786 43.5035C92.9006 43.5035 93.2496 43.7037 93.5255 44.104C93.6446 44.3042 93.7041 44.5071 93.7041 44.7127V56.042C93.7041 56.4424 93.5066 56.7805 93.1116 57.0564C92.9223 57.1646 92.7735 57.2188 92.6653 57.2188H92.2514C92.062 57.2188 91.8321 57.1024 91.5616 56.8698C91.2153 56.5019 89.1756 54.4568 85.4425 50.7344C82.1854 47.4774 80.4595 45.7488 80.2647 45.5486C80.0754 45.3051 79.9807 45.0563 79.9807 44.802V44.6802C79.9807 44.3232 80.1619 44.0012 80.5244 43.7145C80.7571 43.5738 80.9924 43.5035 81.2305 43.5035ZM81.474 54.1754H81.5551C82.0475 54.1754 82.4641 54.4081 82.8049 54.8734C82.9672 55.1439 83.0484 55.3982 83.0484 55.6362V55.7498C83.0484 56.2368 82.8211 56.648 82.3667 56.9834C82.1124 57.1403 81.9041 57.2188 81.7418 57.2188H81.2873C81.0492 57.2188 80.7652 57.0835 80.4352 56.813C80.1322 56.4775 79.9807 56.134 79.9807 55.7823V55.6606C79.9807 55.1953 80.1944 54.7949 80.6218 54.4595C80.8923 54.2701 81.1764 54.1754 81.474 54.1754ZM98.2731 43.5035C98.6735 43.5035 99.0441 43.7091 99.385 44.1203C102.485 47.2204 105.439 50.1718 108.247 52.9743H108.255V44.7614C108.255 44.242 108.512 43.8552 109.026 43.6009C109.189 43.5359 109.354 43.5035 109.521 43.5035C109.943 43.5035 110.292 43.7037 110.568 44.104C110.687 44.3042 110.747 44.5071 110.747 44.7127V56.042C110.747 56.4424 110.549 56.7805 110.154 57.0564C109.965 57.1646 109.816 57.2188 109.708 57.2188H109.294C109.105 57.2188 108.875 57.1024 108.604 56.8698C108.258 56.5019 106.218 54.4568 102.485 50.7344C99.2281 47.4774 97.5021 45.7488 97.3074 45.5486C97.118 45.3051 97.0233 45.0563 97.0233 44.802V44.6802C97.0233 44.3232 97.2046 44.0012 97.5671 43.7145C97.7997 43.5738 98.0351 43.5035 98.2731 43.5035ZM98.5166 54.1754H98.5977C99.0901 54.1754 99.5067 54.4081 99.8475 54.8734C100.01 55.1439 100.091 55.3982 100.091 55.6362V55.7498C100.091 56.2368 99.8638 56.648 99.4093 56.9834C99.155 57.1403 98.9467 57.2188 98.7844 57.2188H98.3299C98.0919 57.2188 97.8078 57.0835 97.4778 56.813C97.1748 56.4775 97.0233 56.134 97.0233 55.7823V55.6606C97.0233 55.1953 97.237 54.7949 97.6645 54.4595C97.935 54.2701 98.219 54.1754 98.5166 54.1754ZM120.096 43.4629H120.193C120.615 43.4629 120.964 43.6739 121.24 44.0959C123.301 48.1916 124.346 50.2827 124.373 50.3692C124.448 50.6343 124.486 50.7939 124.486 50.8481C124.486 51.335 124.251 51.7164 123.78 51.9923C123.58 52.0897 123.383 52.1384 123.188 52.1384C122.766 52.1384 122.411 51.9464 122.125 51.5622C122.092 51.5135 121.516 50.3665 120.396 48.1212C120.32 48.0455 120.236 48.0076 120.145 48.0076C119.971 48.0076 119.831 48.1591 119.722 48.4621L115.567 56.6831C115.405 56.9266 115.167 57.0997 114.853 57.2025C114.81 57.2133 114.772 57.2188 114.74 57.2188H114.309C114.12 57.2188 113.896 57.1105 113.636 56.8941C113.376 56.629 113.246 56.3206 113.246 55.969C113.246 55.7255 113.43 55.2656 113.798 54.5893C113.798 54.5731 115.232 51.7083 118.099 45.995C118.727 44.7289 119.065 44.0608 119.114 43.9904C119.401 43.6387 119.728 43.4629 120.096 43.4629ZM125.728 54.7435H125.833C126.245 54.7435 126.588 54.9491 126.864 55.3603C126.983 55.5821 127.043 55.7904 127.043 55.9852C127.043 56.4559 126.815 56.8292 126.361 57.1051C126.199 57.1809 126.077 57.2188 125.996 57.2188H125.574C125.379 57.2188 125.146 57.0997 124.876 56.8617C124.643 56.5966 124.527 56.3071 124.527 55.9933C124.527 55.5929 124.697 55.2548 125.038 54.9789C125.271 54.822 125.501 54.7435 125.728 54.7435ZM131.303 43.3412C131.758 43.3412 132.104 43.5684 132.342 44.0229C132.407 44.169 132.44 44.3042 132.44 44.4287V56.1394C132.44 56.5343 132.231 56.8617 131.815 57.1214C131.663 57.1863 131.558 57.2188 131.498 57.2188H131.092C130.908 57.2079 130.695 57.0997 130.451 56.8941C130.246 56.6453 130.143 56.3991 130.143 56.1556C130.137 56.1556 130.135 56.1069 130.135 56.0095V44.5504C130.135 43.9769 130.419 43.5873 130.987 43.3818C131.095 43.3547 131.201 43.3412 131.303 43.3412ZM135.864 54.9302H138.153C138.753 54.9302 139.157 55.2061 139.362 55.758C139.389 55.8716 139.403 55.9663 139.403 56.042V56.1475C139.403 56.5262 139.2 56.8481 138.794 57.1132C138.632 57.1836 138.518 57.2188 138.453 57.2188H135.588C135.383 57.2188 135.153 57.0889 134.899 56.8292C134.72 56.6074 134.631 56.3774 134.631 56.1394V56.0501C134.631 55.6497 134.834 55.3224 135.239 55.0681C135.418 54.9762 135.626 54.9302 135.864 54.9302ZM148.5 43.3412H148.589C149.001 43.3412 149.342 43.5441 149.612 43.9498C149.704 44.1338 149.75 44.3096 149.75 44.4774V56.0826C149.75 56.5695 149.498 56.9293 148.995 57.1619C148.882 57.1998 148.803 57.2188 148.76 57.2188H148.33C148.135 57.2188 147.902 57.0943 147.632 56.8454C147.437 56.6182 147.34 56.3531 147.34 56.0501V44.5179C147.34 44.0094 147.599 43.6387 148.119 43.4061C148.259 43.3628 148.387 43.3412 148.5 43.3412ZM161.98 43.3412H162.078C162.656 43.3412 163.233 43.4981 163.806 43.8119C164.093 44.0608 164.236 44.3421 164.236 44.6559V44.7208C164.236 45.0995 164.044 45.4106 163.66 45.6541C163.492 45.7299 163.333 45.7677 163.181 45.7677H163.141C163 45.7677 162.748 45.7001 162.386 45.5648C162.245 45.527 162.099 45.508 161.948 45.508C161.531 45.508 161.142 45.6866 160.779 46.0437C160.503 46.4116 160.365 46.7822 160.365 47.1555C160.365 47.5883 160.525 47.9779 160.844 48.3241C160.974 48.5189 161.039 48.7299 161.039 48.9571C161.039 49.3737 160.83 49.6983 160.414 49.931C160.262 49.9959 160.127 50.0284 160.008 50.0284H159.903C159.491 50.0284 159.126 49.7552 158.807 49.2087C158.401 48.5486 158.198 47.8615 158.198 47.1474C158.198 46.2709 158.512 45.4404 159.14 44.6559C159.394 44.3746 159.619 44.1717 159.813 44.0472C160.544 43.5765 161.266 43.3412 161.98 43.3412ZM162.313 49.2168C162.762 49.2168 163.097 49.4468 163.319 49.9066C163.362 50.0419 163.384 50.1636 163.384 50.2718V50.3205C163.384 50.7101 163.192 51.0212 162.808 51.2538C162.646 51.335 162.497 51.3756 162.362 51.3756H162.256C161.91 51.3756 161.615 51.1943 161.371 50.8318C161.279 50.6479 161.233 50.4829 161.233 50.3368V50.2718C161.233 49.931 161.388 49.6442 161.696 49.4116C161.88 49.2818 162.086 49.2168 162.313 49.2168ZM164.65 50.564H164.683C165.072 50.564 165.399 50.7669 165.665 51.1727C166.179 51.8923 166.436 52.6605 166.436 53.4775C166.436 54.3377 166.127 55.152 165.51 55.9203C165.132 56.326 164.823 56.583 164.585 56.6912C164.228 56.886 163.985 56.9969 163.855 57.024C163.471 57.1538 163.168 57.2188 162.946 57.2188H162.264C161.967 57.2188 161.553 57.1024 161.022 56.8698L160.747 56.675C160.509 56.4478 160.389 56.1773 160.389 55.8635C160.389 55.436 160.609 55.1087 161.047 54.8815C161.198 54.822 161.342 54.7922 161.477 54.7922C161.65 54.7922 161.888 54.8625 162.191 55.0032C162.38 55.0519 162.548 55.0762 162.694 55.0762C163.262 55.0762 163.725 54.7841 164.082 54.1998C164.201 53.9617 164.261 53.7237 164.261 53.4856C164.261 53.0365 164.093 52.6226 163.757 52.2439C163.638 52.0492 163.579 51.8436 163.579 51.6271C163.579 51.2592 163.757 50.9563 164.115 50.7182C164.288 50.6154 164.466 50.564 164.65 50.564ZM172.758 43.3412H179.542L179.575 43.3574H179.599C180.005 43.3574 180.335 43.5657 180.589 43.9823C180.676 44.1554 180.719 44.334 180.719 44.5179C180.719 44.967 180.497 45.3133 180.053 45.5567C179.902 45.6271 179.75 45.6622 179.599 45.6622H172.685C172.36 45.6622 172.073 45.5134 171.824 45.2159C171.662 44.9995 171.581 44.7776 171.581 44.5504V44.453C171.581 44.0959 171.759 43.7902 172.116 43.5359C172.311 43.4169 172.503 43.3574 172.693 43.3574H172.725L172.758 43.3412ZM172.741 49.1438L176.239 49.16C176.472 49.16 176.721 49.279 176.986 49.5171C177.197 49.7606 177.302 50.0257 177.302 50.3124C177.302 50.7128 177.116 51.0401 176.742 51.2944C176.558 51.4026 176.38 51.4567 176.207 51.4567H172.668C172.322 51.4567 172.022 51.2836 171.767 50.9373C171.643 50.7425 171.581 50.5478 171.581 50.353V50.2556C171.581 49.8877 171.773 49.5712 172.157 49.3061C172.352 49.2087 172.536 49.16 172.709 49.16H172.725C172.736 49.16 172.741 49.1546 172.741 49.1438ZM179.534 49.16H179.591C180.029 49.16 180.373 49.3873 180.622 49.8417C180.686 50.004 180.719 50.1609 180.719 50.3124C180.719 50.7669 180.494 51.1159 180.045 51.3593C179.883 51.4243 179.74 51.4567 179.615 51.4567H179.502C179.134 51.4567 178.82 51.2646 178.56 50.8805C178.457 50.6857 178.406 50.4937 178.406 50.3043C178.406 49.8607 178.628 49.5144 179.071 49.2655C179.239 49.1952 179.393 49.16 179.534 49.16ZM172.758 54.9221H179.542C179.542 54.9329 179.626 54.9464 179.794 54.9626C180.075 55.033 180.289 55.1601 180.435 55.3441C180.624 55.5659 180.719 55.8202 180.719 56.1069C180.719 56.5452 180.497 56.8914 180.053 57.1457C179.918 57.1944 179.826 57.2188 179.778 57.2188H172.522C172.333 57.2188 172.106 57.0916 171.841 56.8373C171.667 56.6047 171.581 56.3693 171.581 56.1313V56.0582C171.581 55.6579 171.784 55.3305 172.189 55.0762C172.308 55.0059 172.492 54.9572 172.741 54.9302C172.741 54.9248 172.747 54.9221 172.758 54.9221Z" fill="white"/>
</svg>
