<svg width="191" height="84" viewBox="0 0 191 84" fill="none" xmlns="http://www.w3.org/2000/svg">
<path d="M8.53011 34.2889H8.62695C8.94978 34.2889 9.24571 34.4235 9.51473 34.6925C10.042 35.2897 10.4106 36.0376 10.6204 36.9361C10.6904 37.259 10.7253 37.571 10.7253 37.8723V38.0983C10.7253 39.056 10.4079 40.003 9.77299 40.9392C9.61158 41.1598 9.3587 41.4369 9.01435 41.7705C8.55701 42.1417 8.15885 42.4 7.81988 42.5453V46.4676C7.81988 46.968 7.59659 47.4038 7.15002 47.7751C6.83795 47.9849 6.58238 48.0898 6.3833 48.0898H5.8587C5.60582 48.0576 5.35294 47.9526 5.10006 47.7751C4.65348 47.4146 4.43019 46.9492 4.43019 46.3789V42.3516C4.43019 42.3301 4.43288 42.3031 4.43826 42.2709C4.43288 42.2601 4.43019 42.2359 4.43019 42.1982C4.43019 41.4234 4.80144 40.8585 5.54395 40.5034C5.78069 40.4281 5.97438 40.3904 6.12504 40.3904C6.58776 40.2882 6.97784 40.0998 7.29529 39.8254C7.84948 39.2982 8.12657 38.6902 8.12657 38.0015V37.9288C8.12657 37.4392 7.97054 36.9738 7.65847 36.5326C7.66385 36.5165 7.66654 36.5057 7.66654 36.5003C7.41366 36.2367 7.28722 35.9488 7.28722 35.6367V35.5238C7.28722 35.1848 7.43518 34.8754 7.73111 34.5956C7.98937 34.3912 8.2557 34.2889 8.53011 34.2889ZM22.1777 34.2889H22.2907C22.7641 34.2889 23.1731 34.5768 23.5174 35.1525C24.0931 36.008 24.381 36.9415 24.381 37.953V37.9853C24.381 39.2282 23.9559 40.3447 23.1058 41.3347C22.6807 41.7651 22.3875 42.0234 22.2261 42.1095C21.9678 42.287 21.7203 42.4296 21.4836 42.5372V42.5533C23.1354 44.6679 24.0366 45.83 24.1873 46.0399C24.3056 46.2659 24.3648 46.473 24.3648 46.6613V46.7985C24.3648 47.2451 24.1335 47.6244 23.6707 47.9365C23.4609 48.0387 23.3076 48.0898 23.2107 48.0898H22.7507C22.5086 48.0683 22.253 47.9365 21.984 47.6944C19.5359 44.5576 18.2876 42.9488 18.2392 42.8681C18.1423 42.6475 18.0939 42.4269 18.0939 42.2063V42.0933C18.0939 41.5714 18.3333 41.1141 18.8122 40.7213C19.1242 40.5115 19.4175 40.4065 19.6919 40.4065C19.9394 40.3581 20.1519 40.2962 20.3295 40.2209C20.8998 39.9465 21.3168 39.5268 21.5804 38.9619C21.7149 38.6229 21.7822 38.3243 21.7822 38.066V38.0257C21.7822 38.0042 21.7849 37.988 21.7903 37.9773L21.7822 37.9208V37.8804C21.7822 37.4284 21.6262 36.9765 21.3141 36.5245C21.3195 36.5084 21.3222 36.4976 21.3222 36.4922C21.0693 36.2447 20.9428 35.9434 20.9428 35.5883V35.5641C20.9428 35.1122 21.15 34.749 21.5643 34.4746C21.7687 34.3508 21.9732 34.2889 22.1777 34.2889ZM34.8567 34.2889H34.9455C35.3544 34.2889 35.6934 34.4907 35.9624 34.8942C36.0539 35.0772 36.0996 35.252 36.0996 35.4188V46.9599C36.0996 47.4442 35.8494 47.802 35.3491 48.0333C35.2361 48.071 35.158 48.0898 35.115 48.0898H34.6873C34.4936 48.0898 34.2622 47.9661 33.9932 47.7186C33.7995 47.4926 33.7026 47.229 33.7026 46.9277V35.4592C33.7026 34.9534 33.9609 34.5849 34.4774 34.3535C34.6173 34.3105 34.7437 34.2889 34.8567 34.2889ZM48.2622 34.2889H48.359C48.9347 34.2889 49.5078 34.445 50.0781 34.757C50.3632 35.0045 50.5058 35.2843 50.5058 35.5964V35.661C50.5058 36.0376 50.3148 36.347 49.9328 36.5891C49.766 36.6644 49.6073 36.7021 49.4566 36.7021H49.4163C49.2764 36.7021 49.0262 36.6348 48.6657 36.5003C48.5258 36.4627 48.3805 36.4438 48.2299 36.4438C47.8156 36.4438 47.4282 36.6214 47.0677 36.9765C46.7933 37.3424 46.6561 37.7109 46.6561 38.0822C46.6561 38.5126 46.8148 38.9 47.1323 39.2444C47.2614 39.4381 47.326 39.6479 47.326 39.8739C47.326 40.2882 47.1188 40.611 46.7045 40.8424C46.5539 40.9069 46.4194 40.9392 46.301 40.9392H46.1961C45.7872 40.9392 45.424 40.6675 45.1065 40.1241C44.703 39.4676 44.5012 38.7843 44.5012 38.0741C44.5012 37.2025 44.8133 36.3766 45.4374 35.5964C45.6903 35.3166 45.9136 35.1148 46.1073 34.9911C46.8337 34.523 47.552 34.2889 48.2622 34.2889ZM48.5931 40.1321C49.0397 40.1321 49.3732 40.3608 49.5938 40.8181C49.6369 40.9527 49.6584 41.0737 49.6584 41.1813V41.2297C49.6584 41.6171 49.4674 41.9265 49.0854 42.1579C48.924 42.2386 48.776 42.2789 48.6415 42.2789H48.5366C48.1922 42.2789 47.899 42.0987 47.6569 41.7382C47.5654 41.5553 47.5197 41.3912 47.5197 41.2459V41.1813C47.5197 40.8424 47.673 40.5572 47.9797 40.3258C48.1626 40.1967 48.3671 40.1321 48.5931 40.1321ZM50.9174 41.4719H50.9497C51.3371 41.4719 51.6626 41.6736 51.9263 42.0772C52.4374 42.7928 52.693 43.5568 52.693 44.3692C52.693 45.2247 52.3863 46.0345 51.7729 46.7985C51.3963 47.2021 51.0896 47.4576 50.8529 47.5652C50.4978 47.7589 50.2556 47.8692 50.1265 47.8961C49.7445 48.0253 49.4432 48.0898 49.2226 48.0898H48.5446C48.2487 48.0898 47.8371 47.9742 47.3098 47.7428L47.0354 47.5491C46.7987 47.3231 46.6803 47.0541 46.6803 46.742C46.6803 46.317 46.8982 45.9915 47.334 45.7655C47.4847 45.7063 47.6273 45.6767 47.7618 45.6767C47.934 45.6767 48.1707 45.7466 48.472 45.8865C48.6603 45.935 48.8271 45.9592 48.9724 45.9592C49.5373 45.9592 49.9974 45.6686 50.3525 45.0875C50.4709 44.8508 50.53 44.6141 50.53 44.3773C50.53 43.9307 50.3632 43.5191 50.0297 43.1425C49.9113 42.9488 49.8521 42.7443 49.8521 42.5291C49.8521 42.1633 50.0297 41.862 50.3848 41.6252C50.5569 41.523 50.7345 41.4719 50.9174 41.4719ZM58.9801 34.2889H65.7272L65.7595 34.3051H65.7837C66.1872 34.3051 66.5154 34.5122 66.7683 34.9265C66.8544 35.0987 66.8974 35.2763 66.8974 35.4592C66.8974 35.9058 66.6768 36.2501 66.2356 36.4922C66.085 36.5622 65.9343 36.5972 65.7837 36.5972H58.9074C58.5846 36.5972 58.2994 36.4492 58.0519 36.1533C57.8905 35.9381 57.8098 35.7175 57.8098 35.4915V35.3946C57.8098 35.0395 57.9874 34.7355 58.3425 34.4826C58.5362 34.3643 58.7272 34.3051 58.9155 34.3051H58.9478L58.9801 34.2889ZM58.9639 40.0595L62.4424 40.0756C62.6738 40.0756 62.9213 40.194 63.1849 40.4307C63.3947 40.6729 63.4997 40.9365 63.4997 41.2217C63.4997 41.6198 63.314 41.9453 62.9428 42.1982C62.7598 42.3058 62.5823 42.3596 62.4101 42.3596H58.8913C58.5469 42.3596 58.2483 42.1875 57.9954 41.8431C57.8717 41.6494 57.8098 41.4557 57.8098 41.262V41.1652C57.8098 40.7993 58.0008 40.4846 58.3828 40.2209C58.5765 40.1241 58.7595 40.0756 58.9316 40.0756H58.9478C58.9585 40.0756 58.9639 40.0703 58.9639 40.0595ZM65.7191 40.0756H65.7756C66.2114 40.0756 66.5531 40.3016 66.8006 40.7536C66.8651 40.915 66.8974 41.071 66.8974 41.2217C66.8974 41.6736 66.6741 42.0207 66.2276 42.2628C66.0661 42.3274 65.9236 42.3596 65.7998 42.3596H65.6868C65.321 42.3596 65.0089 42.1686 64.7506 41.7866C64.6484 41.5929 64.5973 41.4019 64.5973 41.2136C64.5973 40.7724 64.8179 40.4281 65.2591 40.1806C65.4259 40.1106 65.5792 40.0756 65.7191 40.0756ZM58.9801 45.8058H65.7272C65.7272 45.8166 65.8106 45.83 65.9774 45.8462C66.2572 45.9161 66.4697 46.0426 66.615 46.2255C66.8033 46.4461 66.8974 46.699 66.8974 46.9842C66.8974 47.42 66.6768 47.7643 66.2356 48.0172C66.1011 48.0656 66.0097 48.0898 65.9612 48.0898H58.746C58.5577 48.0898 58.3317 47.9634 58.0681 47.7105C57.8959 47.4792 57.8098 47.2451 57.8098 47.0084V46.9357C57.8098 46.5376 58.0116 46.2121 58.4151 45.9592C58.5335 45.8892 58.7164 45.8408 58.9639 45.8139C58.9639 45.8085 58.9693 45.8058 58.9801 45.8058ZM76.098 34.2889H78.5596C79.9854 34.2889 81.3601 34.7786 82.6837 35.7578C82.8882 35.9138 83.176 36.1829 83.5473 36.5649C84.7525 37.9423 85.3551 39.4515 85.3551 41.0925V41.3105C85.3551 43.0537 84.6691 44.6571 83.2971 46.1206C82.7375 46.6317 82.2883 46.9707 81.9493 47.1375C81.7664 47.2613 81.4408 47.4254 80.9727 47.6298C80.1441 47.9365 79.4716 48.0898 78.9551 48.0898H75.9366C75.7806 48.0898 75.5869 47.9957 75.3555 47.8074C75.108 47.5652 74.9843 47.2801 74.9843 46.9519C74.9843 46.4999 75.2076 46.1529 75.6541 45.9108C75.8156 45.8408 75.9904 45.8058 76.1787 45.8058H78.4547C79.6707 45.8058 80.7199 45.3915 81.6022 44.5629C81.9681 44.1809 82.2291 43.8581 82.3851 43.5945C82.8317 42.8304 83.055 42.0745 83.055 41.3266V41.0845C83.055 40.0998 82.6999 39.161 81.9896 38.2678C81.0481 37.154 79.8267 36.5972 78.3255 36.5972H77.3006V38.4696C77.3006 39.0668 77.0154 39.465 76.4451 39.664C76.3321 39.6856 76.2352 39.6963 76.1545 39.6963H76.1465C75.673 39.6963 75.3179 39.4676 75.0811 39.0103C75.0166 38.8543 74.9843 38.6875 74.9843 38.5099V35.4592C74.9843 34.9588 75.2291 34.5956 75.7187 34.3696C75.8532 34.3158 75.9797 34.2889 76.098 34.2889ZM90.5204 34.2889H97.2675L97.2998 34.3051H97.324C97.7275 34.3051 98.0557 34.5122 98.3086 34.9265C98.3947 35.0987 98.4377 35.2763 98.4377 35.4592C98.4377 35.9058 98.2171 36.2501 97.7759 36.4922C97.6253 36.5622 97.4746 36.5972 97.324 36.5972H90.4477C90.1249 36.5972 89.8397 36.4492 89.5922 36.1533C89.4308 35.9381 89.3501 35.7175 89.3501 35.4915V35.3946C89.3501 35.0395 89.5277 34.7355 89.8828 34.4826C90.0765 34.3643 90.2675 34.3051 90.4558 34.3051H90.4881L90.5204 34.2889ZM90.5042 40.0595L93.9827 40.0756C94.2141 40.0756 94.4616 40.194 94.7252 40.4307C94.9351 40.6729 95.04 40.9365 95.04 41.2217C95.04 41.6198 94.8543 41.9453 94.4831 42.1982C94.3002 42.3058 94.1226 42.3596 93.9504 42.3596H90.4316C90.0873 42.3596 89.7886 42.1875 89.5358 41.8431C89.412 41.6494 89.3501 41.4557 89.3501 41.262V41.1652C89.3501 40.7993 89.5411 40.4846 89.9231 40.2209C90.1168 40.1241 90.2998 40.0756 90.472 40.0756H90.4881C90.4989 40.0756 90.5042 40.0703 90.5042 40.0595ZM97.2594 40.0756H97.3159C97.7517 40.0756 98.0934 40.3016 98.3409 40.7536C98.4055 40.915 98.4377 41.071 98.4377 41.2217C98.4377 41.6736 98.2144 42.0207 97.7679 42.2628C97.6065 42.3274 97.4639 42.3596 97.3401 42.3596H97.2271C96.8613 42.3596 96.5492 42.1686 96.2909 41.7866C96.1887 41.5929 96.1376 41.4019 96.1376 41.2136C96.1376 40.7724 96.3582 40.4281 96.7994 40.1806C96.9662 40.1106 97.1195 40.0756 97.2594 40.0756ZM90.5204 45.8058H97.2675C97.2675 45.8166 97.3509 45.83 97.5177 45.8462C97.7975 45.9161 98.01 46.0426 98.1553 46.2255C98.3436 46.4461 98.4377 46.699 98.4377 46.9842C98.4377 47.42 98.2171 47.7643 97.7759 48.0172C97.6414 48.0656 97.55 48.0898 97.5015 48.0898H90.2863C90.098 48.0898 89.872 47.9634 89.6084 47.7105C89.4362 47.4792 89.3501 47.2451 89.3501 47.0084V46.9357C89.3501 46.5376 89.5519 46.2121 89.9554 45.9592C90.0738 45.8892 90.2567 45.8408 90.5042 45.8139C90.5042 45.8085 90.5096 45.8058 90.5204 45.8058ZM107.695 34.5311H107.743C108.131 34.5311 108.472 34.7167 108.768 35.0879C108.876 35.2332 110.197 36.9119 112.731 40.1241C113.124 40.6137 113.323 40.8612 113.328 40.8666C115.168 38.5476 116.739 36.5595 118.041 34.9023C118.31 34.6548 118.596 34.5311 118.897 34.5311H118.978C119.392 34.5311 119.736 34.7355 120.011 35.1444C120.124 35.3489 120.18 35.5534 120.18 35.7578C120.18 36.1129 120.016 36.4653 119.688 36.8151L114.2 43.7639C113.936 44.0007 113.646 44.1191 113.328 44.1191C112.871 44.1191 112.505 43.9092 112.231 43.4895L108.994 39.4058V46.7985C108.994 47.4119 108.709 47.8289 108.139 48.0495C108.058 48.0764 107.999 48.0898 107.961 48.0898H107.558C107.359 48.0898 107.127 47.9742 106.864 47.7428C106.627 47.4899 106.508 47.1859 106.508 46.8308V36.1049L106.468 35.774C106.468 35.3059 106.691 34.9373 107.138 34.6683C107.321 34.5768 107.507 34.5311 107.695 34.5311ZM133.166 34.2889C133.295 34.2889 133.43 34.3105 133.57 34.3535C134.065 34.5849 134.312 34.9427 134.312 35.4269V35.4431C134.312 35.5937 134.28 35.7497 134.215 35.9112C133.968 36.3577 133.626 36.581 133.19 36.581H133.142C133.007 36.581 132.862 36.5487 132.706 36.4842C132.249 36.2421 132.02 35.895 132.02 35.4431C132.02 35.287 132.052 35.1283 132.117 34.9669C132.364 34.5149 132.709 34.2889 133.15 34.2889H133.166ZM123.982 34.2889C124.191 34.2889 124.385 34.3401 124.563 34.4423C124.945 34.6844 125.136 35.018 125.136 35.4431V42.3031C125.136 43.2178 125.407 43.9819 125.951 44.5952C126.666 45.3969 127.511 45.7978 128.485 45.7978H128.663C128.969 45.7978 129.284 45.7493 129.607 45.6525C130.419 45.3781 131.062 44.8804 131.536 44.1594C131.832 43.6752 132.004 43.1667 132.052 42.634C132.052 42.2413 132.09 41.9884 132.165 41.8754C132.402 41.4342 132.746 41.2136 133.198 41.2136H133.231C133.37 41.2136 133.524 41.2486 133.691 41.3185C134.132 41.566 134.352 41.9104 134.352 42.3516C134.352 44.2455 133.567 45.8005 131.996 47.0164C131.641 47.2693 131.277 47.4792 130.906 47.646C130.158 47.9419 129.537 48.0898 129.042 48.0898H128.098C127.673 48.0898 127.105 47.9607 126.395 47.7025C126.061 47.5626 125.709 47.3716 125.337 47.1294C123.675 45.8919 122.844 44.3154 122.844 42.4V35.4431C122.844 35.3032 122.87 35.1579 122.924 35.0072C123.161 34.5284 123.513 34.2889 123.982 34.2889ZM142.011 34.2889H142.108C142.684 34.2889 143.257 34.445 143.827 34.757C144.113 35.0045 144.255 35.2843 144.255 35.5964V35.661C144.255 36.0376 144.064 36.347 143.682 36.5891C143.515 36.6644 143.357 36.7021 143.206 36.7021H143.166C143.026 36.7021 142.775 36.6348 142.415 36.5003C142.275 36.4627 142.13 36.4438 141.979 36.4438C141.565 36.4438 141.177 36.6214 140.817 36.9765C140.543 37.3424 140.405 37.7109 140.405 38.0822C140.405 38.5126 140.564 38.9 140.882 39.2444C141.011 39.4381 141.075 39.6479 141.075 39.8739C141.075 40.2882 140.868 40.611 140.454 40.8424C140.303 40.9069 140.169 40.9392 140.05 40.9392H139.945C139.536 40.9392 139.173 40.6675 138.856 40.1241C138.452 39.4676 138.251 38.7843 138.251 38.0741C138.251 37.2025 138.563 36.3766 139.187 35.5964C139.44 35.3166 139.663 35.1148 139.857 34.9911C140.583 34.523 141.301 34.2889 142.011 34.2889ZM142.342 40.1321C142.789 40.1321 143.123 40.3608 143.343 40.8181C143.386 40.9527 143.408 41.0737 143.408 41.1813V41.2297C143.408 41.6171 143.217 41.9265 142.835 42.1579C142.673 42.2386 142.525 42.2789 142.391 42.2789H142.286C141.942 42.2789 141.648 42.0987 141.406 41.7382C141.315 41.5553 141.269 41.3912 141.269 41.2459V41.1813C141.269 40.8424 141.422 40.5572 141.729 40.3258C141.912 40.1967 142.116 40.1321 142.342 40.1321ZM144.667 41.4719H144.699C145.086 41.4719 145.412 41.6736 145.676 42.0772C146.187 42.7928 146.442 43.5568 146.442 44.3692C146.442 45.2247 146.136 46.0345 145.522 46.7985C145.146 47.2021 144.839 47.4576 144.602 47.5652C144.247 47.7589 144.005 47.8692 143.876 47.8961C143.494 48.0253 143.192 48.0898 142.972 48.0898H142.294C141.998 48.0898 141.586 47.9742 141.059 47.7428L140.785 47.5491C140.548 47.3231 140.43 47.0541 140.43 46.742C140.43 46.317 140.648 45.9915 141.083 45.7655C141.234 45.7063 141.377 45.6767 141.511 45.6767C141.683 45.6767 141.92 45.7466 142.221 45.8865C142.41 45.935 142.576 45.9592 142.722 45.9592C143.287 45.9592 143.747 45.6686 144.102 45.0875C144.22 44.8508 144.279 44.6141 144.279 44.3773C144.279 43.9307 144.113 43.5191 143.779 43.1425C143.661 42.9488 143.601 42.7443 143.601 42.5291C143.601 42.1633 143.779 41.862 144.134 41.6252C144.306 41.523 144.484 41.4719 144.667 41.4719ZM157.015 34.2889H157.079C157.461 34.2889 157.787 34.4665 158.056 34.8216C158.196 35.0314 158.266 35.2628 158.266 35.5157C158.266 35.973 158.045 36.3308 157.604 36.5891C157.4 36.6806 157.217 36.7263 157.055 36.7263C156.571 36.7263 156.197 36.4869 155.933 36.008C155.863 35.8251 155.829 35.6556 155.829 35.4995C155.829 35.0476 156.046 34.6898 156.482 34.4261C156.671 34.3347 156.848 34.2889 157.015 34.2889ZM154.182 35.4995C154.602 35.4995 154.935 35.7094 155.183 36.1291C155.258 36.3066 155.296 36.4707 155.296 36.6214C155.296 37.0518 155.083 37.3854 154.658 37.6221C153.84 38.2032 153.278 38.9592 152.971 39.89C152.805 40.4334 152.721 40.9392 152.721 41.4073C152.721 42.5211 153.146 43.546 153.996 44.4822C154.384 44.8589 154.696 45.1037 154.933 45.2167C155.681 45.6364 156.463 45.8462 157.281 45.8462C158.282 45.8462 159.226 45.4965 160.114 44.797C160.308 44.684 160.504 44.6275 160.703 44.6275C161.144 44.6275 161.486 44.8508 161.728 45.2974C161.793 45.4534 161.825 45.6068 161.825 45.7574C161.825 46.2094 161.567 46.5833 161.05 46.8792C160.69 47.1267 160.362 47.3204 160.066 47.4603C159.721 47.6217 159.398 47.7509 159.097 47.8477C158.5 48.0091 158.059 48.0898 157.774 48.0898H156.757C156.342 48.0898 155.724 47.9607 154.9 47.7025C153.313 47.1375 152.081 46.0211 151.204 44.3531C150.714 43.3792 150.47 42.3946 150.47 41.3992C150.47 40.2424 150.757 39.1152 151.333 38.0176C151.521 37.6733 151.807 37.2886 152.189 36.8635C152.56 36.4707 152.845 36.2071 153.044 36.0726C153.501 35.7013 153.848 35.5157 154.085 35.5157L154.182 35.4995ZM166.385 34.2889C166.837 34.2889 167.181 34.5149 167.418 34.9669C167.483 35.1122 167.515 35.2467 167.515 35.3704V47.0164C167.515 47.4092 167.308 47.7347 166.893 47.993C166.743 48.0576 166.638 48.0898 166.579 48.0898H166.175C165.992 48.0791 165.78 47.9715 165.538 47.767C165.333 47.5195 165.231 47.2747 165.231 47.0326C165.225 47.0326 165.223 46.9842 165.223 46.8873V35.4915C165.223 34.9211 165.505 34.5338 166.07 34.3293C166.178 34.3024 166.283 34.2889 166.385 34.2889ZM170.921 45.8139H173.197C173.794 45.8139 174.195 46.0883 174.399 46.6371C174.426 46.7501 174.44 46.8443 174.44 46.9196V47.0245C174.44 47.4011 174.238 47.7213 173.834 47.9849C173.673 48.0549 173.56 48.0898 173.495 48.0898H170.646C170.442 48.0898 170.213 47.9607 169.96 47.7025C169.783 47.4819 169.694 47.2532 169.694 47.0164V46.9277C169.694 46.5295 169.896 46.204 170.299 45.9511C170.477 45.8596 170.684 45.8139 170.921 45.8139ZM180.17 34.2889H186.917L186.949 34.3051H186.973C187.377 34.3051 187.705 34.5122 187.958 34.9265C188.044 35.0987 188.087 35.2763 188.087 35.4592C188.087 35.9058 187.866 36.2501 187.425 36.4922C187.275 36.5622 187.124 36.5972 186.973 36.5972H180.097C179.774 36.5972 179.489 36.4492 179.242 36.1533C179.08 35.9381 178.999 35.7175 178.999 35.4915V35.3946C178.999 35.0395 179.177 34.7355 179.532 34.4826C179.726 34.3643 179.917 34.3051 180.105 34.3051H180.137L180.17 34.2889ZM180.154 40.0595L183.632 40.0756C183.863 40.0756 184.111 40.194 184.375 40.4307C184.584 40.6729 184.689 40.9365 184.689 41.2217C184.689 41.6198 184.504 41.9453 184.132 42.1982C183.95 42.3058 183.772 42.3596 183.6 42.3596H180.081C179.737 42.3596 179.438 42.1875 179.185 41.8431C179.061 41.6494 178.999 41.4557 178.999 41.262V41.1652C178.999 40.7993 179.19 40.4846 179.573 40.2209C179.766 40.1241 179.949 40.0756 180.121 40.0756H180.137C180.148 40.0756 180.154 40.0703 180.154 40.0595ZM186.909 40.0756H186.965C187.401 40.0756 187.743 40.3016 187.99 40.7536C188.055 40.915 188.087 41.071 188.087 41.2217C188.087 41.6736 187.864 42.0207 187.417 42.2628C187.256 42.3274 187.113 42.3596 186.989 42.3596H186.876C186.511 42.3596 186.199 42.1686 185.94 41.7866C185.838 41.5929 185.787 41.4019 185.787 41.2136C185.787 40.7724 186.008 40.4281 186.449 40.1806C186.616 40.1106 186.769 40.0756 186.909 40.0756ZM180.17 45.8058H186.917C186.917 45.8166 187 45.83 187.167 45.8462C187.447 45.9161 187.659 46.0426 187.805 46.2255C187.993 46.4461 188.087 46.699 188.087 46.9842C188.087 47.42 187.866 47.7643 187.425 48.0172C187.291 48.0656 187.199 48.0898 187.151 48.0898H179.936C179.747 48.0898 179.521 47.9634 179.258 47.7105C179.086 47.4792 178.999 47.2451 178.999 47.0084V46.9357C178.999 46.5376 179.201 46.2121 179.605 45.9592C179.723 45.8892 179.906 45.8408 180.154 45.8139C180.154 45.8085 180.159 45.8058 180.17 45.8058Z" fill="white"/>
</svg>
