<svg width="170" height="200" viewBox="0 0 170 200" fill="none" xmlns="http://www.w3.org/2000/svg">
<g clip-path="url(#clip0_5980_5268)">
<path d="M140.758 39.5053H127.989C126.973 28.6966 122.005 18.6589 114.055 11.3535C106.106 4.04816 95.7458 0 85 0C74.2542 0 63.8945 4.04816 55.945 11.3535C47.9954 18.6589 43.0273 28.6966 42.0113 39.5053H29.2425C21.4898 39.5149 14.0574 42.6309 8.57544 48.1698C3.09348 53.7087 0.00952417 61.2183 0 69.0515V170.454C0.00952417 178.287 3.09348 185.797 8.57544 191.336C14.0574 196.874 21.4898 199.99 29.2425 200H140.758C148.51 199.99 155.943 196.874 161.425 191.336C166.907 185.797 169.99 178.287 170 170.454V69.0526C169.991 61.2192 166.907 53.7093 161.425 48.1702C155.943 42.6311 148.51 39.5149 140.758 39.5053ZM85 13.632C92.1688 13.6548 99.0908 16.2797 104.504 21.0282C109.918 25.7767 113.462 32.3325 114.491 39.5008H55.509C56.5381 32.3325 60.0825 25.7767 65.4958 21.0282C70.9092 16.2797 77.8312 13.6548 85 13.632ZM156.502 170.454C156.498 174.672 154.838 178.716 151.886 181.699C148.934 184.682 144.931 186.359 140.756 186.363H29.2425C25.0677 186.359 21.065 184.682 18.113 181.699C15.161 178.716 13.5007 174.672 13.4965 170.454V69.0526C13.5007 64.8344 15.161 60.7902 18.113 57.8076C21.065 54.8249 25.0677 53.1473 29.2425 53.1431H140.758C144.932 53.1473 148.935 54.8249 151.887 57.8076C154.839 60.7902 156.499 64.8344 156.503 69.0526L156.502 170.454Z" fill="#A5A5A5"/>
<path fill-rule="evenodd" clip-rule="evenodd" d="M48.9569 74.1591C49.8281 74.1591 50.6127 74.6859 50.9425 75.4922L61.523 101.364L79.5379 54.3772C79.856 53.5477 80.6525 53 81.5409 53H89.7168C90.6052 53 91.4017 53.5477 91.7198 54.3772L109.735 101.364L120.315 75.4922C120.645 74.6859 121.43 74.1591 122.301 74.1591H135.961C137.549 74.1591 138.586 75.824 137.887 77.2493L117.152 119.5L137.887 161.751C138.586 163.176 137.549 164.841 135.961 164.841H122.301C121.43 164.841 120.645 164.314 120.315 163.508L109.735 137.636L91.7198 184.623C91.4017 185.452 90.6052 186 89.7168 186H81.5409C80.6525 186 79.856 185.452 79.5379 184.623L61.523 137.636L50.9425 163.508C50.6127 164.314 49.8281 164.841 48.9569 164.841H35.2966C33.7089 164.841 32.6714 163.176 33.3709 161.751L54.1058 119.5L31.6759 77.3113C30.9162 75.8825 31.9518 74.1591 33.57 74.1591H35.5629H48.9569ZM86.0357 72.3523C85.905 71.9618 85.3527 71.9618 85.222 72.3523L74.5031 104.386H96.7546L86.0357 72.3523ZM67.0859 119.5L70.7945 116.477H100.463L104.172 119.5L100.463 122.523H70.7945L67.0859 119.5ZM85.222 166.648C85.3527 167.038 85.905 167.038 86.0357 166.648L96.7546 134.614H74.5031L85.222 166.648Z" fill="#A5A5A5"/>
</g>
<defs>
<clipPath id="clip0_5980_5268">
<rect width="170" height="200" fill="white"/>
</clipPath>
</defs>
</svg>
