<svg width="151" height="42" viewBox="0 0 151 42" fill="none" xmlns="http://www.w3.org/2000/svg">
<path fill-rule="evenodd" clip-rule="evenodd" d="M6.36536 6.88266C6.63489 6.88266 6.87767 7.04566 6.97969 7.29514L10.2534 15.2999L15.8273 0.76205C15.9257 0.505384 16.1721 0.335938 16.447 0.335938H18.9766C19.2515 0.335938 19.498 0.505384 19.5964 0.76205L25.1703 15.2999L28.444 7.29514C28.546 7.04566 28.7888 6.88266 29.0583 6.88266H33.2848C33.7761 6.88266 34.0971 7.39779 33.8807 7.83879L27.4652 20.9113L33.8807 33.9839C34.0971 34.4249 33.7761 34.94 33.2849 34.94H29.0583C28.7888 34.94 28.546 34.777 28.444 34.5276L25.1703 26.5228L19.5964 41.0606C19.498 41.3173 19.2515 41.4868 18.9766 41.4868H16.447C16.1721 41.4868 15.9257 41.3173 15.8273 41.0606L10.2534 26.5228L6.97969 34.5276C6.87766 34.777 6.6349 34.94 6.36536 34.94H2.1388C1.64755 34.94 1.32653 34.4249 1.54296 33.9839L7.95846 20.9113L1.01852 7.85796C0.783489 7.41588 1.10389 6.88266 1.60457 6.88266H2.22118H6.36536ZM17.8377 6.32362C17.7973 6.20279 17.6264 6.20279 17.5859 6.32362L14.2695 16.2351H21.1542L17.8377 6.32362ZM11.9746 20.9113L13.122 19.9761H22.3016L23.4491 20.9113L22.3016 21.8466H13.122L11.9746 20.9113ZM17.5859 35.4991C17.6264 35.6199 17.7973 35.6199 17.8377 35.4991L21.1542 25.5876H14.2695L17.5859 35.4991Z" fill="white"/>
<path d="M61.3951 12.056C61.3939 12.2338 61.3594 12.4096 61.2934 12.5732C61.2275 12.7368 61.1315 12.8849 61.0109 13.009C60.8904 13.1331 60.7478 13.2307 60.5913 13.2962C60.4348 13.3616 60.2676 13.3937 60.0994 13.3904L43.3836 13.3904C43.0454 13.3912 42.7203 13.2519 42.4781 13.0025C42.2359 12.753 42.0958 12.4133 42.0879 12.056C42.0891 11.8782 42.1237 11.7025 42.1896 11.5389C42.2555 11.3753 42.3516 11.2272 42.4721 11.103C42.5926 10.9789 42.7352 10.8813 42.8917 10.8159C43.0482 10.7504 43.2154 10.7184 43.3836 10.7217L60.1312 10.7217C60.4645 10.7278 60.7824 10.8703 61.0182 11.1192C61.254 11.3681 61.3891 11.704 61.3951 12.056Z" fill="white"/>
<path d="M72.5635 31.4791C72.3981 31.4779 72.2346 31.4407 72.0825 31.3698C71.9304 31.2989 71.7926 31.1956 71.6772 31.0661C71.5618 30.9365 71.471 30.7831 71.4101 30.6149C71.3492 30.4466 71.3194 30.2668 71.3225 30.0859V12.112C71.3217 11.7483 71.4513 11.3988 71.6832 11.1383C71.9152 10.8778 72.2312 10.7272 72.5635 10.7188C72.7288 10.72 72.8923 10.7572 73.0444 10.8281C73.1965 10.899 73.3343 11.0023 73.4497 11.1318C73.5651 11.2614 73.6559 11.4148 73.7168 11.583C73.7777 11.7513 73.8075 11.9311 73.8044 12.112V30.1201C73.7987 30.4784 73.6661 30.8204 73.4347 31.0739C73.2032 31.3274 72.8909 31.4727 72.5635 31.4791Z" fill="white"/>
<path d="M43.3291 31.4791C43.1637 31.4779 43.0002 31.4407 42.8481 31.3698C42.696 31.2989 42.5582 31.1956 42.4428 31.0661C42.3274 30.9365 42.2366 30.7831 42.1757 30.6149C42.1148 30.4466 42.085 30.2668 42.0881 30.0859V12.112C42.0874 11.7483 42.2169 11.3988 42.4489 11.1383C42.6809 10.8778 42.9968 10.7272 43.3291 10.7188C43.4944 10.72 43.6579 10.7572 43.81 10.8281C43.9622 10.899 44.0999 11.0023 44.2153 11.1318C44.3308 11.2614 44.4215 11.4148 44.4824 11.583C44.5433 11.7513 44.5731 11.9311 44.57 12.112V30.1201C44.5643 30.4784 44.4318 30.8204 44.2003 31.0739C43.9688 31.3274 43.6565 31.4727 43.3291 31.4791Z" fill="white"/>
<path d="M61.3951 30.1498C61.3939 30.3276 61.3594 30.5033 61.2934 30.6669C61.2275 30.8305 61.1315 30.9786 61.0109 31.1027C60.8904 31.2268 60.7478 31.3245 60.5913 31.3899C60.4348 31.4554 60.2676 31.4874 60.0994 31.4841L43.3836 31.4841C43.0454 31.4849 42.7203 31.3457 42.4781 31.0962C42.2359 30.8468 42.0958 30.507 42.0879 30.1498C42.0891 29.972 42.1237 29.7962 42.1896 29.6326C42.2555 29.469 42.3516 29.3209 42.4721 29.1968C42.5926 29.0727 42.7352 28.9751 42.8917 28.9096C43.0482 28.8441 43.2154 28.8121 43.3836 28.8154L60.1312 28.8154C60.4645 28.8215 60.7824 28.9641 61.0182 29.213C61.254 29.4619 61.3891 29.7977 61.3951 30.1498Z" fill="white"/>
<path d="M97.9384 31.4791C97.7731 31.4779 97.6096 31.4407 97.4575 31.3698C97.3054 31.2989 97.1676 31.1956 97.0522 31.0661C96.9367 30.9365 96.846 30.7831 96.7851 30.6149C96.7242 30.4466 96.6944 30.2668 96.6975 30.0859V12.112C96.6967 11.7483 96.8262 11.3988 97.0582 11.1383C97.2902 10.8778 97.6062 10.7272 97.9384 10.7188C98.1038 10.72 98.2673 10.7572 98.4194 10.8281C98.5715 10.899 98.7093 11.0023 98.8247 11.1318C98.9401 11.2614 99.0309 11.4148 99.0918 11.583C99.1527 11.7513 99.1825 11.9311 99.1794 12.112V30.1201C99.1792 30.4803 99.0484 30.8257 98.8157 31.0805C98.5831 31.3353 98.2676 31.4787 97.9384 31.4791Z" fill="white"/>
<path d="M89.858 26.0544C89.6166 26.3034 89.2953 26.4424 88.9609 26.4424C88.6266 26.4424 88.3052 26.3034 88.0638 26.0544L80.6614 18.0852C80.5434 17.9585 80.4497 17.808 80.3858 17.6423C80.322 17.4765 80.2891 17.2989 80.2891 17.1194C80.2891 16.94 80.322 16.7623 80.3858 16.5966C80.4497 16.4309 80.5434 16.2803 80.6614 16.1536C80.9028 15.9046 81.2242 15.7656 81.5585 15.7656C81.8928 15.7656 82.2142 15.9046 82.4556 16.1536L89.858 24.1228C90.0893 24.3827 90.2185 24.7287 90.2185 25.0886C90.2185 25.4485 90.0893 25.7946 89.858 26.0544Z" fill="white"/>
<path d="M112.833 31.4791C112.668 31.4779 112.504 31.4407 112.352 31.3698C112.2 31.2989 112.062 31.1956 111.947 31.0661C111.831 30.9365 111.741 30.7831 111.68 30.6149C111.619 30.4466 111.589 30.2668 111.592 30.0859V12.112C111.591 11.7483 111.721 11.3988 111.953 11.1383C112.185 10.8778 112.501 10.7272 112.833 10.7188C112.998 10.72 113.162 10.7572 113.314 10.8281C113.466 10.899 113.604 11.0023 113.719 11.1318C113.835 11.2614 113.925 11.4148 113.986 11.583C114.047 11.7513 114.077 11.9311 114.074 12.112V30.1201C114.068 30.4784 113.936 30.8204 113.704 31.0739C113.473 31.3274 113.16 31.4727 112.833 31.4791Z" fill="white"/>
<path d="M142.624 31.479C142.459 31.4777 142.295 31.4406 142.143 31.3696C141.991 31.2987 141.853 31.1955 141.738 31.0659C141.622 30.9363 141.532 30.783 141.471 30.6147C141.41 30.4465 141.38 30.2667 141.383 30.0857V12.112C141.382 11.7483 141.512 11.3987 141.744 11.1383C141.976 10.8778 142.292 10.7272 142.624 10.7188C142.789 10.72 142.953 10.7572 143.105 10.8281C143.257 10.899 143.395 11.0023 143.51 11.1318C143.626 11.2614 143.716 11.4148 143.777 11.583C143.838 11.7513 143.868 11.9311 143.865 12.112V30.12C143.868 30.2991 143.837 30.477 143.776 30.6431C143.714 30.8092 143.623 30.9601 143.507 31.0869C143.391 31.2136 143.254 31.3136 143.102 31.381C142.95 31.4483 142.788 31.4817 142.624 31.479Z" fill="white"/>
<path d="M127.728 26.4424C127.562 26.4411 127.399 26.4045 127.247 26.3346C127.094 26.2647 126.957 26.163 126.841 26.0353C126.726 25.9075 126.635 25.7564 126.574 25.5905C126.513 25.4247 126.483 25.2475 126.487 25.0692V17.1389C126.486 16.7804 126.615 16.4358 126.847 16.1791C127.079 15.9224 127.395 15.774 127.728 15.7656C127.893 15.7669 128.056 15.8035 128.208 15.8734C128.361 15.9433 128.498 16.0451 128.614 16.1728C128.729 16.3005 128.82 16.4517 128.881 16.6175C128.942 16.7833 128.972 16.9605 128.968 17.1389V25.0692C128.972 25.2475 128.942 25.4247 128.881 25.5905C128.82 25.7564 128.729 25.9075 128.614 26.0353C128.498 26.163 128.361 26.2647 128.208 26.3346C128.056 26.4045 127.893 26.4411 127.728 26.4424Z" fill="white"/>
<path d="M147.278 12.3337V13.3987H146.744V10.7518L147.775 10.7518C148.084 10.7379 148.391 10.8056 148.653 10.9455C148.761 11.0111 148.846 11.0999 148.9 11.2027C148.953 11.3055 148.973 11.4186 148.958 11.5302C148.96 11.6554 148.918 11.7782 148.836 11.8826C148.754 11.9869 148.637 12.0679 148.5 12.1149C148.649 12.1653 148.775 12.2557 148.858 12.3723C148.94 12.489 148.976 12.6254 148.958 12.7606V12.9543C148.95 13.0866 148.976 13.2188 149.034 13.3419V13.4062H148.5C148.46 13.2799 148.447 13.1488 148.461 13.0187V12.6562C148.423 12.4624 148.271 12.3655 147.968 12.3329L147.278 12.3337ZM147.278 11.9462H147.851C148 11.9533 148.147 11.9193 148.271 11.8493C148.32 11.8211 148.361 11.7825 148.387 11.7373C148.414 11.6921 148.427 11.6417 148.424 11.5912C148.435 11.5307 148.427 11.4686 148.4 11.4117C148.373 11.3548 148.328 11.3052 148.271 11.268C148.121 11.1947 147.949 11.161 147.777 11.1711H147.283L147.278 11.9462Z" fill="white"/>
<path d="M150.247 12.0785C150.247 10.7403 149.176 9.66046 147.86 9.66046C146.544 9.66046 145.472 10.7403 145.472 12.0785C145.472 13.4167 146.544 14.4966 147.86 14.4966C149.176 14.4966 150.247 13.4167 150.247 12.0785Z" stroke="white" stroke-width="0.506861"/>
</svg>