<svg width="5260" height="1435" viewBox="0 0 5260 1435" fill="none" xmlns="http://www.w3.org/2000/svg">
<path fill-rule="evenodd" clip-rule="evenodd" d="M218.985 228.295C219.661 228.295 220.27 228.704 220.527 229.331L340.159 521.818L539.843 1.06928C540.09 0.425187 540.709 0 541.398 0H659.164C659.854 0 660.472 0.42521 660.719 1.06931L860.403 521.818L980.036 229.331C980.292 228.704 980.901 228.295 981.578 228.295H1177.88C1179.11 228.295 1179.92 229.588 1179.38 230.695L940.441 717.5L1179.38 1204.31C1179.92 1205.41 1179.11 1206.7 1177.88 1206.7H981.578C980.901 1206.7 980.292 1206.3 980.036 1205.67L860.403 913.182L660.719 1433.93C660.472 1434.57 659.854 1435 659.164 1435H541.398C540.709 1435 540.09 1434.57 539.843 1433.93L340.159 913.182L220.527 1205.67C220.27 1206.3 219.661 1206.7 218.985 1206.7H22.6824C21.4496 1206.7 20.6439 1205.41 21.1871 1204.31L260.122 717.5L1.30148 230.743C0.711557 229.634 1.51565 228.295 2.77219 228.295H60.0281H218.985ZM600.597 196.626C600.496 196.323 600.067 196.323 599.965 196.626L480.225 554.432H720.338L600.597 196.626ZM400.188 717.5L440.206 684.886H760.356L800.375 717.5L760.356 750.114H440.206L400.188 717.5ZM599.965 1238.37C600.067 1238.68 600.496 1238.68 600.597 1238.37L720.338 880.568H480.225L599.965 1238.37Z" fill="#929292"/>
<path d="M2123.8 408.796C2123.76 414.996 2122.55 421.126 2120.25 426.83C2117.95 432.535 2114.6 437.7 2110.4 442.028C2106.2 446.355 2101.22 449.759 2095.76 452.042C2090.31 454.325 2084.48 455.442 2078.61 455.328L1495.63 455.328C1483.83 455.356 1472.49 450.499 1464.04 441.8C1455.6 433.102 1450.71 421.254 1450.44 408.796C1450.48 402.596 1451.68 396.467 1453.98 390.762C1456.28 385.058 1459.63 379.892 1463.84 375.564C1468.04 371.236 1473.01 367.832 1478.47 365.549C1483.93 363.266 1489.76 362.15 1495.63 362.265L2079.72 362.265C2091.34 362.478 2102.43 367.449 2110.65 376.128C2118.87 384.808 2123.59 396.519 2123.8 408.796Z" fill="#929292"/>
<path d="M2513.28 1086.15C2507.51 1086.1 2501.81 1084.81 2496.5 1082.33C2491.2 1079.86 2486.39 1076.26 2482.37 1071.74C2478.34 1067.22 2475.17 1061.87 2473.05 1056.01C2470.93 1050.14 2469.89 1043.87 2469.99 1037.56V410.781C2469.97 398.098 2474.49 385.908 2482.58 376.826C2490.67 367.743 2501.69 362.491 2513.28 362.195C2519.04 362.24 2524.74 363.536 2530.05 366.009C2535.35 368.482 2540.16 372.082 2544.18 376.601C2548.21 381.119 2551.38 386.467 2553.5 392.335C2555.62 398.202 2556.66 404.472 2556.55 410.781V1038.75C2556.36 1051.25 2551.73 1063.17 2543.66 1072.01C2535.59 1080.85 2524.69 1085.92 2513.28 1086.15Z" fill="#929292"/>
<path d="M1493.72 1086.15C1487.96 1086.1 1482.26 1084.81 1476.95 1082.33C1471.64 1079.86 1466.84 1076.26 1462.81 1071.74C1458.79 1067.22 1455.62 1061.87 1453.5 1056.01C1451.38 1050.14 1450.34 1043.87 1450.44 1037.56V410.781C1450.42 398.098 1454.94 385.908 1463.03 376.826C1471.12 367.743 1482.14 362.491 1493.72 362.195C1499.49 362.24 1505.19 363.536 1510.5 366.009C1515.8 368.482 1520.61 372.082 1524.63 376.601C1528.66 381.119 1531.83 386.467 1533.95 392.335C1536.07 398.202 1537.11 404.472 1537 410.781V1038.75C1536.81 1051.25 1532.18 1063.17 1524.11 1072.01C1516.04 1080.85 1505.14 1085.92 1493.72 1086.15Z" fill="#929292"/>
<path d="M2123.8 1039.62C2123.76 1045.82 2122.55 1051.95 2120.25 1057.66C2117.95 1063.36 2114.6 1068.53 2110.4 1072.86C2106.2 1077.18 2101.22 1080.59 2095.76 1082.87C2090.31 1085.15 2084.48 1086.27 2078.61 1086.16L1495.63 1086.16C1483.83 1086.18 1472.49 1081.33 1464.04 1072.63C1455.6 1063.93 1450.71 1052.08 1450.44 1039.62C1450.48 1033.42 1451.68 1027.29 1453.98 1021.59C1456.28 1015.89 1459.63 1010.72 1463.84 1006.39C1468.04 1002.06 1473.01 998.66 1478.47 996.377C1483.93 994.095 1489.76 992.978 1495.63 993.093L2079.72 993.093C2091.34 993.307 2102.43 998.277 2110.65 1006.96C2118.87 1015.64 2123.59 1027.35 2123.8 1039.62Z" fill="#929292"/>
<path d="M3398.29 1086.15C3392.52 1086.1 3386.82 1084.81 3381.51 1082.33C3376.21 1079.86 3371.4 1076.26 3367.38 1071.74C3363.35 1067.22 3360.19 1061.87 3358.06 1056.01C3355.94 1050.14 3354.9 1043.87 3355.01 1037.56V410.781C3354.98 398.098 3359.5 385.908 3367.59 376.826C3375.68 367.743 3386.7 362.491 3398.29 362.195C3404.05 362.24 3409.76 363.536 3415.06 366.009C3420.37 368.482 3425.17 372.082 3429.2 376.601C3433.22 381.119 3436.39 386.467 3438.51 392.335C3440.63 398.202 3441.67 404.472 3441.57 410.781V1038.75C3441.56 1051.32 3437 1063.36 3428.88 1072.25C3420.77 1081.13 3409.77 1086.13 3398.29 1086.15Z" fill="#929292"/>
<path d="M3116.48 896.765C3108.06 905.448 3096.85 910.295 3085.19 910.295C3073.53 910.295 3062.32 905.448 3053.9 896.765L2795.73 618.865C2791.62 614.447 2788.35 609.198 2786.12 603.418C2783.89 597.639 2782.75 591.443 2782.75 585.186C2782.75 578.928 2783.89 572.733 2786.12 566.953C2788.35 561.174 2791.62 555.925 2795.73 551.507C2804.15 542.824 2815.36 537.977 2827.02 537.977C2838.68 537.977 2849.89 542.824 2858.31 551.507L3116.48 829.407C3124.54 838.469 3129.05 850.535 3129.05 863.086C3129.05 875.636 3124.54 887.702 3116.48 896.765Z" fill="#929292"/>
<path d="M3917.75 1086.15C3911.98 1086.1 3906.28 1084.81 3900.97 1082.33C3895.67 1079.86 3890.86 1076.26 3886.84 1071.74C3882.81 1067.22 3879.65 1061.87 3877.52 1056.01C3875.4 1050.14 3874.36 1043.87 3874.47 1037.56V410.781C3874.44 398.098 3878.96 385.908 3887.05 376.826C3895.14 367.743 3906.16 362.491 3917.75 362.195C3923.51 362.24 3929.22 363.536 3934.52 366.009C3939.83 368.482 3944.63 372.082 3948.66 376.601C3952.68 381.119 3955.85 386.467 3957.97 392.335C3960.1 398.202 3961.13 404.472 3961.03 410.781V1038.75C3960.83 1051.25 3956.21 1063.17 3948.13 1072.01C3940.06 1080.85 3929.17 1085.92 3917.75 1086.15Z" fill="#929292"/>
<path d="M4956.71 1086.14C4950.94 1086.1 4945.24 1084.8 4939.94 1082.33C4934.63 1079.85 4929.83 1076.25 4925.8 1071.74C4921.78 1067.22 4918.61 1061.87 4916.49 1056C4914.36 1050.13 4913.32 1043.87 4913.43 1037.56V410.781C4913.41 398.098 4917.92 385.908 4926.01 376.826C4934.1 367.743 4945.12 362.491 4956.71 362.195C4962.48 362.24 4968.18 363.536 4973.49 366.009C4978.79 368.482 4983.6 372.082 4987.62 376.6C4991.65 381.119 4994.81 386.467 4996.94 392.334C4999.06 398.202 5000.1 404.472 4999.99 410.781V1038.75C5000.08 1045 4999.02 1051.2 4996.88 1056.99C4994.74 1062.78 4991.55 1068.05 4987.52 1072.47C4983.48 1076.89 4978.67 1080.37 4973.38 1082.72C4968.09 1085.07 4962.42 1086.23 4956.71 1086.14Z" fill="#929292"/>
<path d="M4437.21 910.294C4431.45 910.25 4425.75 908.973 4420.44 906.536C4415.13 904.098 4410.33 900.55 4406.3 896.096C4402.28 891.642 4399.11 886.371 4396.99 880.589C4394.87 874.806 4393.83 868.626 4393.93 862.407V585.864C4393.91 573.363 4398.42 561.348 4406.51 552.397C4414.61 543.445 4425.63 538.268 4437.21 537.977C4442.98 538.021 4448.68 539.298 4453.99 541.735C4459.29 544.172 4464.1 547.721 4468.12 552.175C4472.15 556.628 4475.31 561.899 4477.44 567.682C4479.56 573.465 4480.6 579.645 4480.49 585.864V862.407C4480.6 868.626 4479.56 874.806 4477.44 880.589C4475.31 886.371 4472.15 891.642 4468.12 896.096C4464.1 900.55 4459.29 904.098 4453.99 906.536C4448.68 908.973 4442.98 910.25 4437.21 910.294Z" fill="#929292"/>
<path d="M5136.51 415.493V463.23H5116.25V344.579H5155.34C5167.07 343.959 5178.69 346.994 5188.62 353.265C5192.71 356.204 5195.95 360.185 5197.98 364.793C5200.01 369.402 5200.78 374.471 5200.19 379.474C5200.28 385.085 5198.66 390.591 5195.56 395.269C5192.46 399.946 5188.02 403.576 5182.82 405.683C5188.48 407.941 5193.25 411.995 5196.39 417.223C5199.53 422.451 5200.86 428.564 5200.19 434.625V443.311C5199.9 449.242 5200.88 455.166 5203.08 460.684V463.567H5182.82C5181.32 457.906 5180.82 452.026 5181.36 446.194V429.945C5179.9 421.259 5174.13 416.915 5162.64 415.455L5136.51 415.493ZM5136.51 398.12H5158.22C5163.86 398.439 5169.44 396.914 5174.13 393.777C5176.02 392.513 5177.54 390.783 5178.56 388.756C5179.58 386.729 5180.05 384.473 5179.94 382.207C5180.37 379.493 5180.05 376.714 5179.03 374.163C5178.01 371.612 5176.32 369.385 5174.13 367.718C5168.47 364.435 5161.95 362.923 5155.41 363.375H5136.69L5136.51 398.12Z" fill="#929292"/>
<path d="M5253 407C5253 458.362 5211.36 500 5160 500C5108.64 500 5067 458.362 5067 407C5067 355.638 5108.64 314 5160 314C5211.36 314 5253 355.638 5253 407Z" stroke="#929292" stroke-width="14"/>
</svg>