<svg width="70" height="18" viewBox="0 0 70 18" fill="none" xmlns="http://www.w3.org/2000/svg">
<path d="M10.392 12.656C10.392 13.968 9.944 15.04 9.048 15.872C8.056 16.784 6.688 17.24 4.944 17.24C3.296 17.24 1.976 16.896 0.984 16.208L1.488 14.696C2.56 15.368 3.752 15.704 5.064 15.704C6.152 15.704 7 15.44 7.608 14.912C8.232 14.384 8.544 13.68 8.544 12.8C8.544 12 8.304 11.344 7.824 10.832C7.36 10.304 6.584 9.84 5.496 9.44C2.728 8.384 1.344 6.864 1.344 4.88C1.344 3.632 1.808 2.608 2.736 1.808C3.664 0.992 4.872 0.584 6.36 0.584C7.768 0.584 8.904 0.84 9.768 1.352L9.216 2.84C8.416 2.344 7.44 2.096 6.288 2.096C5.248 2.096 4.44 2.376 3.864 2.936C3.4 3.4 3.168 3.968 3.168 4.64C3.168 5.408 3.424 6.04 3.936 6.536C4.4 6.968 5.208 7.424 6.36 7.904C7.752 8.464 8.76 9.096 9.384 9.8C10.056 10.568 10.392 11.52 10.392 12.656ZM22.9821 2.36H18.0621V17H16.2381V2.36H11.3661V0.823999H22.9821V2.36ZM34.8264 17H32.9304C32.6904 16.568 32.3464 15.272 31.8984 13.112C31.6424 11.96 31.2584 11.136 30.7464 10.64C30.2504 10.128 29.5304 9.872 28.5864 9.872H26.5464V17H24.7224V1.04C25.8104 0.816 27.0744 0.704 28.5144 0.704C30.5624 0.704 32.0744 1.144 33.0504 2.024C33.8504 2.776 34.2504 3.784 34.2504 5.048C34.2504 7.112 33.2344 8.496 31.2024 9.2V9.272C32.3864 9.672 33.1864 10.784 33.6024 12.608C34.1464 15.024 34.5544 16.488 34.8264 17ZM32.4264 5.288C32.4264 3.192 31.1544 2.144 28.6104 2.144C27.7144 2.144 27.0264 2.2 26.5464 2.312V8.48H28.7064C29.8424 8.48 30.7464 8.192 31.4184 7.616C32.0904 7.024 32.4264 6.248 32.4264 5.288ZM45.9272 17H37.1912V0.823999H45.5672V2.336H39.0152V7.784H45.2072V9.296H39.0152V15.488H45.9272V17ZM57.3178 17H48.5818V0.823999H56.9578V2.336H50.4058V7.784H56.5978V9.296H50.4058V15.488H57.3178V17ZM69.7164 2.36H64.7964V17H62.9724V2.36H58.1004V0.823999H69.7164V2.36Z" fill="#0047FF"/>
</svg>
