<svg width="190" height="83" viewBox="0 0 190 83" fill="none" xmlns="http://www.w3.org/2000/svg">
<path d="M8.18164 22.2231H8.27832C8.60059 22.2231 8.896 22.3574 9.16455 22.626C9.69092 23.2222 10.0588 23.9688 10.2683 24.8657C10.3381 25.188 10.373 25.4995 10.373 25.8003V26.0259C10.373 26.9819 10.0562 27.9272 9.42236 28.8618C9.26123 29.082 9.00879 29.3586 8.66504 29.6917C8.2085 30.0623 7.81104 30.3201 7.47266 30.4651V34.3806C7.47266 34.8801 7.24976 35.3152 6.80396 35.6858C6.49243 35.8953 6.2373 36 6.03857 36H5.51489C5.26245 35.9678 5.01001 35.863 4.75757 35.6858C4.31177 35.3259 4.08887 34.8613 4.08887 34.292V30.2717C4.08887 30.2502 4.09155 30.2234 4.09692 30.1912C4.09155 30.1804 4.08887 30.1562 4.08887 30.1187C4.08887 29.3452 4.45947 28.7812 5.20068 28.4268C5.43701 28.3516 5.63037 28.314 5.78076 28.314C6.24268 28.2119 6.63208 28.0239 6.94897 27.75C7.5022 27.2236 7.77881 26.6167 7.77881 25.9292V25.8567C7.77881 25.3679 7.62305 24.9033 7.31152 24.4629C7.31689 24.4468 7.31958 24.436 7.31958 24.4307C7.06714 24.1675 6.94092 23.8801 6.94092 23.5686V23.4558C6.94092 23.1174 7.08862 22.8086 7.38403 22.5293C7.64185 22.3252 7.90771 22.2231 8.18164 22.2231ZM21.8054 22.2231H21.9182C22.3909 22.2231 22.7991 22.5105 23.1428 23.0852C23.7175 23.9392 24.0049 24.8711 24.0049 25.8809V25.9131C24.0049 27.1538 23.5806 28.2683 22.7319 29.2566C22.3076 29.6863 22.0149 29.9441 21.8538 30.03C21.5959 30.2073 21.3489 30.3496 21.1125 30.457V30.4731C22.7615 32.584 23.6611 33.7441 23.8115 33.9536C23.9297 34.1792 23.9888 34.386 23.9888 34.574V34.7109C23.9888 35.1567 23.7578 35.5354 23.2959 35.8469C23.0864 35.949 22.9333 36 22.8367 36H22.3774C22.1357 35.9785 21.8806 35.8469 21.6121 35.6052C19.1682 32.4739 17.9221 30.8679 17.8738 30.7874C17.7771 30.5671 17.7288 30.3469 17.7288 30.1267V30.0139C17.7288 29.4929 17.9678 29.0364 18.4458 28.6443C18.7573 28.4348 19.05 28.3301 19.324 28.3301C19.571 28.2817 19.7832 28.22 19.9604 28.1448C20.5298 27.8708 20.946 27.4519 21.2092 26.8879C21.3435 26.5496 21.4106 26.2515 21.4106 25.9937V25.9534C21.4106 25.9319 21.4133 25.9158 21.4187 25.905L21.4106 25.8486V25.8083C21.4106 25.3572 21.2549 24.906 20.9434 24.4548C20.9487 24.4387 20.9514 24.428 20.9514 24.4226C20.699 24.1755 20.5728 23.8748 20.5728 23.5203V23.4961C20.5728 23.0449 20.7795 22.6824 21.1931 22.4084C21.3972 22.2849 21.6013 22.2231 21.8054 22.2231ZM34.4624 22.2231H34.551C34.9592 22.2231 35.2976 22.4246 35.5662 22.8274C35.6575 23.01 35.7031 23.1846 35.7031 23.3511V34.8721C35.7031 35.3555 35.4534 35.7126 34.9539 35.9436C34.8411 35.9812 34.7632 36 34.7202 36H34.2932C34.0999 36 33.8689 35.8765 33.6003 35.6294C33.407 35.4038 33.3103 35.1406 33.3103 34.8398V23.3914C33.3103 22.8865 33.5681 22.5186 34.0837 22.2876C34.2234 22.2446 34.3496 22.2231 34.4624 22.2231ZM47.8445 22.2231H47.9412C48.5159 22.2231 49.0879 22.3789 49.6572 22.6904C49.9419 22.9375 50.0842 23.2168 50.0842 23.5283V23.5928C50.0842 23.9688 49.8936 24.2776 49.5122 24.5193C49.3457 24.5945 49.1873 24.6321 49.0369 24.6321H48.9966C48.8569 24.6321 48.6072 24.5649 48.2473 24.4307C48.1077 24.3931 47.9626 24.3743 47.8123 24.3743C47.3987 24.3743 47.012 24.5515 46.6521 24.906C46.3782 25.2712 46.2412 25.6392 46.2412 26.0098C46.2412 26.4395 46.3997 26.8262 46.7166 27.1699C46.8455 27.3633 46.9099 27.5728 46.9099 27.7983C46.9099 28.2119 46.7031 28.5342 46.2896 28.7651C46.1392 28.8296 46.0049 28.8618 45.8867 28.8618H45.782C45.3738 28.8618 45.0112 28.5906 44.6943 28.0481C44.2915 27.3928 44.0901 26.7107 44.0901 26.0017C44.0901 25.1316 44.4016 24.3071 45.0247 23.5283C45.2771 23.249 45.5 23.0476 45.6934 22.9241C46.4185 22.4568 47.1355 22.2231 47.8445 22.2231ZM48.1748 28.0562C48.6206 28.0562 48.9536 28.2844 49.1738 28.741C49.2168 28.8752 49.2383 28.9961 49.2383 29.1035V29.1519C49.2383 29.5386 49.0476 29.8474 48.6663 30.0784C48.5051 30.1589 48.3574 30.1992 48.2231 30.1992H48.1184C47.7747 30.1992 47.4819 30.0193 47.2402 29.6594C47.1489 29.4768 47.1033 29.313 47.1033 29.168V29.1035C47.1033 28.7651 47.2563 28.4805 47.5625 28.2495C47.7451 28.1206 47.9492 28.0562 48.1748 28.0562ZM50.4951 29.3936H50.5273C50.9141 29.3936 51.239 29.595 51.5022 29.9978C52.0125 30.7122 52.2676 31.4749 52.2676 32.2859C52.2676 33.1399 51.9614 33.9482 51.3491 34.7109C50.9731 35.1138 50.667 35.3689 50.4307 35.4763C50.0762 35.6697 49.8345 35.7798 49.7056 35.8066C49.3242 35.9355 49.0234 36 48.8032 36H48.1265C47.8311 36 47.4202 35.8845 46.8938 35.6536L46.6199 35.4602C46.3835 35.2346 46.2654 34.9661 46.2654 34.6545C46.2654 34.2302 46.4829 33.9053 46.918 33.6797C47.0684 33.6206 47.2107 33.5911 47.345 33.5911C47.5168 33.5911 47.7532 33.6609 48.054 33.8005C48.2419 33.8489 48.4084 33.873 48.5535 33.873C49.1174 33.873 49.5767 33.583 49.9312 33.0029C50.0493 32.7666 50.1084 32.5303 50.1084 32.2939C50.1084 31.8481 49.9419 31.4373 49.6089 31.0613C49.4907 30.8679 49.4316 30.6638 49.4316 30.449C49.4316 30.0837 49.6089 29.783 49.9634 29.5466C50.1353 29.4446 50.3125 29.3936 50.4951 29.3936ZM58.5437 22.2231H65.2791L65.3113 22.2393H65.3354C65.7383 22.2393 66.0659 22.446 66.3184 22.8596C66.4043 23.0315 66.4473 23.2087 66.4473 23.3914C66.4473 23.8372 66.2271 24.1809 65.7866 24.4226C65.6362 24.4924 65.4858 24.5273 65.3354 24.5273H58.4712C58.1489 24.5273 57.8643 24.3796 57.6172 24.0842C57.4561 23.8694 57.3755 23.6492 57.3755 23.4236V23.3269C57.3755 22.9724 57.5527 22.6689 57.9072 22.4165C58.1006 22.2983 58.2913 22.2393 58.4792 22.2393H58.5115L58.5437 22.2231ZM58.5276 27.9836L62 27.9998C62.231 27.9998 62.478 28.1179 62.7412 28.3542C62.9507 28.5959 63.0554 28.8591 63.0554 29.1438C63.0554 29.5413 62.8701 29.8662 62.4995 30.1187C62.3169 30.2261 62.1396 30.2798 61.9678 30.2798H58.4551C58.1113 30.2798 57.8132 30.1079 57.5608 29.7642C57.4373 29.5708 57.3755 29.3774 57.3755 29.1841V29.0874C57.3755 28.7222 57.5662 28.408 57.9475 28.1448C58.1409 28.0481 58.3235 27.9998 58.4954 27.9998H58.5115C58.5222 27.9998 58.5276 27.9944 58.5276 27.9836ZM65.271 27.9998H65.3274C65.7625 27.9998 66.1035 28.2253 66.3506 28.6765C66.415 28.8376 66.4473 28.9934 66.4473 29.1438C66.4473 29.595 66.2244 29.9414 65.7786 30.1831C65.6174 30.2476 65.4751 30.2798 65.3516 30.2798H65.2388C64.8735 30.2798 64.562 30.0891 64.3042 29.7078C64.2021 29.5144 64.1511 29.3237 64.1511 29.1357C64.1511 28.6953 64.3713 28.3516 64.8118 28.1045C64.9783 28.0347 65.1313 27.9998 65.271 27.9998ZM58.5437 33.72H65.2791C65.2791 33.7307 65.3623 33.7441 65.5288 33.7603C65.8081 33.8301 66.0203 33.9563 66.1653 34.1389C66.3533 34.3591 66.4473 34.6116 66.4473 34.8962C66.4473 35.3313 66.2271 35.675 65.7866 35.9275C65.6523 35.9758 65.561 36 65.5127 36H58.3101C58.1221 36 57.8965 35.8738 57.6333 35.6213C57.4614 35.3904 57.3755 35.1567 57.3755 34.9204V34.8479C57.3755 34.4504 57.5769 34.1255 57.9797 33.873C58.0979 33.8032 58.2805 33.7549 58.5276 33.728C58.5276 33.7227 58.533 33.72 58.5437 33.72ZM75.6318 22.2231H78.0891C79.5125 22.2231 80.8848 22.7119 82.2061 23.6895C82.4102 23.8452 82.6975 24.1138 83.0681 24.4951C84.2712 25.8701 84.8728 27.3767 84.8728 29.0149V29.2324C84.8728 30.9727 84.188 32.5732 82.8184 34.0342C82.2598 34.5444 81.8113 34.8828 81.4729 35.0493C81.2903 35.1729 80.9653 35.3367 80.498 35.5408C79.6709 35.8469 78.9995 36 78.4839 36H75.4707C75.3149 36 75.1216 35.906 74.8906 35.718C74.6436 35.4763 74.52 35.1917 74.52 34.864C74.52 34.4128 74.7429 34.0664 75.1887 33.8247C75.3499 33.7549 75.5244 33.72 75.7124 33.72H77.9844C79.1982 33.72 80.2456 33.3064 81.1265 32.4792C81.4917 32.0979 81.7522 31.7756 81.908 31.5125C82.3538 30.7498 82.5767 29.9951 82.5767 29.2485V29.0068C82.5767 28.0239 82.2222 27.0867 81.5132 26.1951C80.5732 25.0833 79.354 24.5273 77.8555 24.5273H76.8323V26.3965C76.8323 26.9927 76.5476 27.3901 75.9783 27.5889C75.8655 27.6104 75.7688 27.6211 75.6882 27.6211H75.6802C75.2075 27.6211 74.853 27.3928 74.6167 26.9363C74.5522 26.7805 74.52 26.614 74.52 26.4368V23.3914C74.52 22.8918 74.7644 22.5293 75.2532 22.3037C75.3875 22.25 75.5137 22.2231 75.6318 22.2231ZM90.0291 22.2231H96.7644L96.7966 22.2393H96.8208C97.2236 22.2393 97.5513 22.446 97.8037 22.8596C97.8896 23.0315 97.9326 23.2087 97.9326 23.3914C97.9326 23.8372 97.7124 24.1809 97.272 24.4226C97.1216 24.4924 96.9712 24.5273 96.8208 24.5273H89.9565C89.6343 24.5273 89.3496 24.3796 89.1025 24.0842C88.9414 23.8694 88.8608 23.6492 88.8608 23.4236V23.3269C88.8608 22.9724 89.0381 22.6689 89.3926 22.4165C89.5859 22.2983 89.7766 22.2393 89.9646 22.2393H89.9968L90.0291 22.2231ZM90.0129 27.9836L93.4854 27.9998C93.7163 27.9998 93.9634 28.1179 94.2266 28.3542C94.436 28.5959 94.5408 28.8591 94.5408 29.1438C94.5408 29.5413 94.3555 29.8662 93.9849 30.1187C93.8022 30.2261 93.625 30.2798 93.4531 30.2798H89.9404C89.5967 30.2798 89.2986 30.1079 89.0461 29.7642C88.9226 29.5708 88.8608 29.3774 88.8608 29.1841V29.0874C88.8608 28.7222 89.0515 28.408 89.4329 28.1448C89.6262 28.0481 89.8088 27.9998 89.9807 27.9998H89.9968C90.0076 27.9998 90.0129 27.9944 90.0129 27.9836ZM96.7563 27.9998H96.8127C97.2478 27.9998 97.5889 28.2253 97.8359 28.6765C97.9004 28.8376 97.9326 28.9934 97.9326 29.1438C97.9326 29.595 97.7097 29.9414 97.2639 30.1831C97.1028 30.2476 96.9604 30.2798 96.8369 30.2798H96.7241C96.3589 30.2798 96.0474 30.0891 95.7896 29.7078C95.6875 29.5144 95.6365 29.3237 95.6365 29.1357C95.6365 28.6953 95.8567 28.3516 96.2971 28.1045C96.4636 28.0347 96.6167 27.9998 96.7563 27.9998ZM90.0291 33.72H96.7644C96.7644 33.7307 96.8477 33.7441 97.0142 33.7603C97.2935 33.8301 97.5056 33.9563 97.6506 34.1389C97.8386 34.3591 97.9326 34.6116 97.9326 34.8962C97.9326 35.3313 97.7124 35.675 97.272 35.9275C97.1377 35.9758 97.0464 36 96.998 36H89.7954C89.6074 36 89.3818 35.8738 89.1187 35.6213C88.9468 35.3904 88.8608 35.1567 88.8608 34.9204V34.8479C88.8608 34.4504 89.0623 34.1255 89.4651 33.873C89.5833 33.8032 89.7659 33.7549 90.0129 33.728C90.0129 33.7227 90.0183 33.72 90.0291 33.72ZM107.174 22.4648H107.222C107.609 22.4648 107.95 22.6501 108.245 23.0208C108.353 23.1658 109.671 24.8416 112.201 28.0481C112.593 28.5369 112.792 28.7839 112.797 28.7893C114.634 26.4744 116.202 24.4897 117.502 22.8354C117.771 22.5884 118.055 22.4648 118.356 22.4648H118.437C118.85 22.4648 119.194 22.6689 119.468 23.0771C119.581 23.2812 119.637 23.4854 119.637 23.6895C119.637 24.0439 119.473 24.3958 119.146 24.7449L113.667 31.6816C113.404 31.918 113.114 32.0361 112.797 32.0361C112.341 32.0361 111.975 31.8267 111.701 31.4077L108.471 27.3311V34.7109C108.471 35.3232 108.186 35.7395 107.617 35.9597C107.536 35.9866 107.477 36 107.439 36H107.037C106.838 36 106.607 35.8845 106.344 35.6536C106.107 35.4011 105.989 35.0977 105.989 34.7432V24.0359L105.949 23.7056C105.949 23.2383 106.172 22.8704 106.618 22.6018C106.8 22.5105 106.986 22.4648 107.174 22.4648ZM132.6 22.2231C132.729 22.2231 132.864 22.2446 133.003 22.2876C133.497 22.5186 133.744 22.8757 133.744 23.3591V23.3752C133.744 23.5256 133.712 23.6814 133.648 23.8425C133.401 24.2883 133.06 24.5112 132.625 24.5112H132.576C132.442 24.5112 132.297 24.479 132.141 24.4146C131.685 24.1729 131.456 23.8264 131.456 23.3752C131.456 23.2195 131.489 23.061 131.553 22.8999C131.8 22.4487 132.144 22.2231 132.584 22.2231H132.6ZM123.432 22.2231C123.641 22.2231 123.835 22.2742 124.012 22.3762C124.393 22.6179 124.584 22.9509 124.584 23.3752V30.2234C124.584 31.1365 124.855 31.8992 125.398 32.5115C126.112 33.3118 126.955 33.7119 127.927 33.7119H128.105C128.411 33.7119 128.725 33.6636 129.047 33.5669C129.858 33.293 130.5 32.7961 130.973 32.0764C131.268 31.593 131.44 31.0854 131.489 30.5537C131.489 30.1616 131.526 29.9092 131.601 29.7964C131.838 29.356 132.181 29.1357 132.633 29.1357H132.665C132.804 29.1357 132.958 29.1707 133.124 29.2405C133.564 29.4875 133.785 29.8313 133.785 30.2717C133.785 32.1624 133 33.7146 131.432 34.9285C131.078 35.1809 130.715 35.3904 130.344 35.5569C129.598 35.8523 128.978 36 128.483 36H127.541C127.116 36 126.55 35.8711 125.841 35.6133C125.508 35.4736 125.156 35.283 124.785 35.0413C123.126 33.8059 122.296 32.2322 122.296 30.3201V23.3752C122.296 23.2356 122.323 23.0906 122.376 22.9402C122.613 22.4622 122.965 22.2231 123.432 22.2231ZM141.43 22.2231H141.527C142.102 22.2231 142.674 22.3789 143.243 22.6904C143.528 22.9375 143.67 23.2168 143.67 23.5283V23.5928C143.67 23.9688 143.479 24.2776 143.098 24.5193C142.932 24.5945 142.773 24.6321 142.623 24.6321H142.583C142.443 24.6321 142.193 24.5649 141.833 24.4307C141.694 24.3931 141.549 24.3743 141.398 24.3743C140.985 24.3743 140.598 24.5515 140.238 24.906C139.964 25.2712 139.827 25.6392 139.827 26.0098C139.827 26.4395 139.986 26.8262 140.302 27.1699C140.431 27.3633 140.496 27.5728 140.496 27.7983C140.496 28.2119 140.289 28.5342 139.875 28.7651C139.725 28.8296 139.591 28.8618 139.473 28.8618H139.368C138.96 28.8618 138.597 28.5906 138.28 28.0481C137.877 27.3928 137.676 26.7107 137.676 26.0017C137.676 25.1316 137.988 24.3071 138.611 23.5283C138.863 23.249 139.086 23.0476 139.279 22.9241C140.004 22.4568 140.721 22.2231 141.43 22.2231ZM141.761 28.0562C142.207 28.0562 142.54 28.2844 142.76 28.741C142.803 28.8752 142.824 28.9961 142.824 29.1035V29.1519C142.824 29.5386 142.634 29.8474 142.252 30.0784C142.091 30.1589 141.943 30.1992 141.809 30.1992H141.704C141.361 30.1992 141.068 30.0193 140.826 29.6594C140.735 29.4768 140.689 29.313 140.689 29.168V29.1035C140.689 28.7651 140.842 28.4805 141.148 28.2495C141.331 28.1206 141.535 28.0562 141.761 28.0562ZM144.081 29.3936H144.113C144.5 29.3936 144.825 29.595 145.088 29.9978C145.598 30.7122 145.854 31.4749 145.854 32.2859C145.854 33.1399 145.547 33.9482 144.935 34.7109C144.559 35.1138 144.253 35.3689 144.017 35.4763C143.662 35.6697 143.42 35.7798 143.292 35.8066C142.91 35.9355 142.609 36 142.389 36H141.712C141.417 36 141.006 35.8845 140.48 35.6536L140.206 35.4602C139.969 35.2346 139.851 34.9661 139.851 34.6545C139.851 34.2302 140.069 33.9053 140.504 33.6797C140.654 33.6206 140.797 33.5911 140.931 33.5911C141.103 33.5911 141.339 33.6609 141.64 33.8005C141.828 33.8489 141.994 33.873 142.139 33.873C142.703 33.873 143.163 33.583 143.517 33.0029C143.635 32.7666 143.694 32.5303 143.694 32.2939C143.694 31.8481 143.528 31.4373 143.195 31.0613C143.077 30.8679 143.018 30.6638 143.018 30.449C143.018 30.0837 143.195 29.783 143.549 29.5466C143.721 29.4446 143.898 29.3936 144.081 29.3936ZM156.408 22.2231H156.472C156.854 22.2231 157.178 22.4004 157.447 22.7549C157.587 22.9644 157.656 23.1953 157.656 23.4478C157.656 23.9043 157.436 24.2615 156.996 24.5193C156.792 24.6106 156.609 24.6562 156.448 24.6562C155.965 24.6562 155.591 24.4172 155.328 23.9392C155.258 23.7566 155.223 23.5874 155.223 23.4316C155.223 22.9805 155.441 22.6233 155.876 22.3601C156.064 22.2688 156.241 22.2231 156.408 22.2231ZM153.58 23.4316C153.999 23.4316 154.332 23.6411 154.579 24.0601C154.654 24.2373 154.692 24.4011 154.692 24.5515C154.692 24.9812 154.479 25.3142 154.055 25.5505C153.239 26.1306 152.677 26.8853 152.371 27.8145C152.205 28.3569 152.122 28.8618 152.122 29.3291C152.122 30.4409 152.546 31.4641 153.395 32.3987C153.781 32.7747 154.093 33.019 154.329 33.1318C155.076 33.5508 155.857 33.7603 156.674 33.7603C157.673 33.7603 158.615 33.4111 159.501 32.7129C159.695 32.6001 159.891 32.5437 160.09 32.5437C160.53 32.5437 160.871 32.7666 161.113 33.2124C161.177 33.3682 161.209 33.5212 161.209 33.6716C161.209 34.1228 160.952 34.4961 160.436 34.7915C160.076 35.0386 159.749 35.2319 159.453 35.3716C159.109 35.5327 158.787 35.6616 158.486 35.7583C157.89 35.9194 157.45 36 157.165 36H156.15C155.736 36 155.119 35.8711 154.297 35.6133C152.712 35.0493 151.482 33.9348 150.607 32.2698C150.118 31.2976 149.874 30.3147 149.874 29.321C149.874 28.1663 150.161 27.041 150.736 25.9453C150.924 25.6016 151.208 25.2175 151.59 24.7932C151.96 24.4011 152.245 24.1379 152.444 24.0037C152.9 23.6331 153.247 23.4478 153.483 23.4478L153.58 23.4316ZM165.761 22.2231C166.213 22.2231 166.556 22.4487 166.793 22.8999C166.857 23.0449 166.889 23.1792 166.889 23.3027V34.9285C166.889 35.3206 166.683 35.6455 166.269 35.9033C166.119 35.9678 166.014 36 165.955 36H165.552C165.369 35.9893 165.157 35.8818 164.916 35.6777C164.711 35.4307 164.609 35.1863 164.609 34.9446C164.604 34.9446 164.601 34.8962 164.601 34.7996V23.4236C164.601 22.8542 164.883 22.4675 165.447 22.2634C165.555 22.2366 165.659 22.2231 165.761 22.2231ZM170.289 33.728H172.561C173.157 33.728 173.558 34.002 173.762 34.5498C173.789 34.6626 173.802 34.7566 173.802 34.8318V34.9365C173.802 35.3125 173.601 35.6321 173.198 35.8953C173.037 35.9651 172.924 36 172.859 36H170.015C169.811 36 169.583 35.8711 169.331 35.6133C169.153 35.3931 169.065 35.1648 169.065 34.9285V34.8398C169.065 34.4424 169.266 34.1174 169.669 33.865C169.846 33.7737 170.053 33.728 170.289 33.728ZM179.522 22.2231H186.258L186.29 22.2393H186.314C186.717 22.2393 187.044 22.446 187.297 22.8596C187.383 23.0315 187.426 23.2087 187.426 23.3914C187.426 23.8372 187.206 24.1809 186.765 24.4226C186.615 24.4924 186.464 24.5273 186.314 24.5273H179.45C179.127 24.5273 178.843 24.3796 178.596 24.0842C178.435 23.8694 178.354 23.6492 178.354 23.4236V23.3269C178.354 22.9724 178.531 22.6689 178.886 22.4165C179.079 22.2983 179.27 22.2393 179.458 22.2393H179.49L179.522 22.2231ZM179.506 27.9836L182.979 27.9998C183.209 27.9998 183.457 28.1179 183.72 28.3542C183.929 28.5959 184.034 28.8591 184.034 29.1438C184.034 29.5413 183.849 29.8662 183.478 30.1187C183.295 30.2261 183.118 30.2798 182.946 30.2798H179.434C179.09 30.2798 178.792 30.1079 178.539 29.7642C178.416 29.5708 178.354 29.3774 178.354 29.1841V29.0874C178.354 28.7222 178.545 28.408 178.926 28.1448C179.119 28.0481 179.302 27.9998 179.474 27.9998H179.49C179.501 27.9998 179.506 27.9944 179.506 27.9836ZM186.25 27.9998H186.306C186.741 27.9998 187.082 28.2253 187.329 28.6765C187.394 28.8376 187.426 28.9934 187.426 29.1438C187.426 29.595 187.203 29.9414 186.757 30.1831C186.596 30.2476 186.454 30.2798 186.33 30.2798H186.217C185.852 30.2798 185.541 30.0891 185.283 29.7078C185.181 29.5144 185.13 29.3237 185.13 29.1357C185.13 28.6953 185.35 28.3516 185.79 28.1045C185.957 28.0347 186.11 27.9998 186.25 27.9998ZM179.522 33.72H186.258C186.258 33.7307 186.341 33.7441 186.507 33.7603C186.787 33.8301 186.999 33.9563 187.144 34.1389C187.332 34.3591 187.426 34.6116 187.426 34.8962C187.426 35.3313 187.206 35.675 186.765 35.9275C186.631 35.9758 186.54 36 186.491 36H179.289C179.101 36 178.875 35.8738 178.612 35.6213C178.44 35.3904 178.354 35.1567 178.354 34.9204V34.8479C178.354 34.4504 178.555 34.1255 178.958 33.873C179.076 33.8032 179.259 33.7549 179.506 33.728C179.506 33.7227 179.511 33.72 179.522 33.72Z" fill="white"/>
<path d="M17.9062 43.6406H18C18.3125 43.6406 18.599 43.7708 18.8594 44.0312C19.3698 44.6094 19.7266 45.3333 19.9297 46.2031C19.9974 46.5156 20.0312 46.8177 20.0312 47.1094V47.3281C20.0312 48.2552 19.724 49.1719 19.1094 50.0781C18.9531 50.2917 18.7083 50.5599 18.375 50.8828C17.9323 51.2422 17.5469 51.4922 17.2188 51.6328V55.4297C17.2188 55.9141 17.0026 56.3359 16.5703 56.6953C16.2682 56.8984 16.0208 57 15.8281 57H15.3203C15.0755 56.9688 14.8307 56.8672 14.5859 56.6953C14.1536 56.3464 13.9375 55.8958 13.9375 55.3438V51.4453C13.9375 51.4245 13.9401 51.3984 13.9453 51.3672C13.9401 51.3568 13.9375 51.3333 13.9375 51.2969C13.9375 50.5469 14.2969 50 15.0156 49.6562C15.2448 49.5833 15.4323 49.5469 15.5781 49.5469C16.026 49.4479 16.4036 49.2656 16.7109 49C17.2474 48.4896 17.5156 47.901 17.5156 47.2344V47.1641C17.5156 46.6901 17.3646 46.2396 17.0625 45.8125C17.0677 45.7969 17.0703 45.7865 17.0703 45.7812C16.8255 45.526 16.7031 45.2474 16.7031 44.9453V44.8359C16.7031 44.5078 16.8464 44.2083 17.1328 43.9375C17.3828 43.7396 17.6406 43.6406 17.9062 43.6406ZM26.8984 43.6406H33.4297L33.4609 43.6562H33.4844C33.875 43.6562 34.1927 43.8568 34.4375 44.2578C34.5208 44.4245 34.5625 44.5964 34.5625 44.7734C34.5625 45.2057 34.349 45.5391 33.9219 45.7734C33.776 45.8411 33.6302 45.875 33.4844 45.875H26.8281C26.5156 45.875 26.2396 45.7318 26 45.4453C25.8438 45.237 25.7656 45.0234 25.7656 44.8047V44.7109C25.7656 44.3672 25.9375 44.0729 26.2812 43.8281C26.4688 43.7135 26.6536 43.6562 26.8359 43.6562H26.8672L26.8984 43.6406ZM26.8828 49.2266L30.25 49.2422C30.474 49.2422 30.7135 49.3568 30.9688 49.5859C31.1719 49.8203 31.2734 50.0755 31.2734 50.3516C31.2734 50.737 31.0938 51.0521 30.7344 51.2969C30.5573 51.401 30.3854 51.4531 30.2188 51.4531H26.8125C26.4792 51.4531 26.1901 51.2865 25.9453 50.9531C25.8255 50.7656 25.7656 50.5781 25.7656 50.3906V50.2969C25.7656 49.9427 25.9505 49.638 26.3203 49.3828C26.5078 49.2891 26.6849 49.2422 26.8516 49.2422H26.8672C26.8776 49.2422 26.8828 49.237 26.8828 49.2266ZM33.4219 49.2422H33.4766C33.8984 49.2422 34.2292 49.4609 34.4688 49.8984C34.5312 50.0547 34.5625 50.2057 34.5625 50.3516C34.5625 50.7891 34.3464 51.125 33.9141 51.3594C33.7578 51.4219 33.6198 51.4531 33.5 51.4531H33.3906C33.0365 51.4531 32.7344 51.2682 32.4844 50.8984C32.3854 50.7109 32.3359 50.526 32.3359 50.3438C32.3359 49.9167 32.5495 49.5833 32.9766 49.3438C33.138 49.276 33.2865 49.2422 33.4219 49.2422ZM26.8984 54.7891H33.4297C33.4297 54.7995 33.5104 54.8125 33.6719 54.8281C33.9427 54.8958 34.1484 55.0182 34.2891 55.1953C34.4714 55.4089 34.5625 55.6536 34.5625 55.9297C34.5625 56.3516 34.349 56.6849 33.9219 56.9297C33.7917 56.9766 33.7031 57 33.6562 57H26.6719C26.4896 57 26.2708 56.8776 26.0156 56.6328C25.849 56.4089 25.7656 56.1823 25.7656 55.9531V55.8828C25.7656 55.4974 25.9609 55.1823 26.3516 54.9375C26.4661 54.8698 26.6432 54.8229 26.8828 54.7969C26.8828 54.7917 26.888 54.7891 26.8984 54.7891ZM44.3984 43.6406H44.5078C44.9661 43.6406 45.362 43.9193 45.6953 44.4766C46.2526 45.3047 46.5312 46.2083 46.5312 47.1875V47.2188C46.5312 48.4219 46.1198 49.5026 45.2969 50.4609C44.8854 50.8776 44.6016 51.1276 44.4453 51.2109C44.1953 51.3828 43.9557 51.5208 43.7266 51.625V51.6406C45.3255 53.6875 46.1979 54.8125 46.3438 55.0156C46.4583 55.2344 46.5156 55.4349 46.5156 55.6172V55.75C46.5156 56.1823 46.2917 56.5495 45.8438 56.8516C45.6406 56.9505 45.4922 57 45.3984 57H44.9531C44.7188 56.9792 44.4714 56.8516 44.2109 56.6172C41.8411 53.5807 40.6328 52.0234 40.5859 51.9453C40.4922 51.7318 40.4453 51.5182 40.4453 51.3047V51.1953C40.4453 50.6901 40.6771 50.2474 41.1406 49.8672C41.4427 49.6641 41.7266 49.5625 41.9922 49.5625C42.2318 49.5156 42.4375 49.4557 42.6094 49.3828C43.1615 49.1172 43.5651 48.7109 43.8203 48.1641C43.9505 47.8359 44.0156 47.5469 44.0156 47.2969V47.2578C44.0156 47.237 44.0182 47.2214 44.0234 47.2109L44.0156 47.1562V47.1172C44.0156 46.6797 43.8646 46.2422 43.5625 45.8047C43.5677 45.7891 43.5703 45.7786 43.5703 45.7734C43.3255 45.5339 43.2031 45.2422 43.2031 44.8984V44.875C43.2031 44.4375 43.4036 44.0859 43.8047 43.8203C44.0026 43.7005 44.2005 43.6406 44.3984 43.6406ZM56.3672 43.6406H56.4609C57.0182 43.6406 57.5729 43.7917 58.125 44.0938C58.401 44.3333 58.5391 44.6042 58.5391 44.9062V44.9688C58.5391 45.3333 58.3542 45.6328 57.9844 45.8672C57.8229 45.9401 57.6693 45.9766 57.5234 45.9766H57.4844C57.349 45.9766 57.1068 45.9115 56.7578 45.7812C56.6224 45.7448 56.4818 45.7266 56.3359 45.7266C55.9349 45.7266 55.5599 45.8984 55.2109 46.2422C54.9453 46.5964 54.8125 46.9531 54.8125 47.3125C54.8125 47.7292 54.9661 48.1042 55.2734 48.4375C55.3984 48.625 55.4609 48.8281 55.4609 49.0469C55.4609 49.4479 55.2604 49.7604 54.8594 49.9844C54.7135 50.0469 54.5833 50.0781 54.4688 50.0781H54.3672C53.9714 50.0781 53.6198 49.8151 53.3125 49.2891C52.9219 48.6536 52.7266 47.9922 52.7266 47.3047C52.7266 46.4609 53.0286 45.6615 53.6328 44.9062C53.8776 44.6354 54.0938 44.4401 54.2812 44.3203C54.9844 43.8672 55.6797 43.6406 56.3672 43.6406ZM56.6875 49.2969C57.1198 49.2969 57.4427 49.5182 57.6562 49.9609C57.6979 50.0911 57.7188 50.2083 57.7188 50.3125V50.3594C57.7188 50.7344 57.5339 51.0339 57.1641 51.2578C57.0078 51.3359 56.8646 51.375 56.7344 51.375H56.6328C56.2995 51.375 56.0156 51.2005 55.7812 50.8516C55.6927 50.6745 55.6484 50.5156 55.6484 50.375V50.3125C55.6484 49.9844 55.7969 49.7083 56.0938 49.4844C56.2708 49.3594 56.4688 49.2969 56.6875 49.2969ZM58.9375 50.5938H58.9688C59.3438 50.5938 59.6589 50.7891 59.9141 51.1797C60.4089 51.8724 60.6562 52.612 60.6562 53.3984C60.6562 54.2266 60.3594 55.0104 59.7656 55.75C59.401 56.1406 59.1042 56.388 58.875 56.4922C58.5312 56.6797 58.2969 56.7865 58.1719 56.8125C57.8021 56.9375 57.5104 57 57.2969 57H56.6406C56.3542 57 55.9557 56.888 55.4453 56.6641L55.1797 56.4766C54.9505 56.2578 54.8359 55.9974 54.8359 55.6953C54.8359 55.2839 55.0469 54.9688 55.4688 54.75C55.6146 54.6927 55.7526 54.6641 55.8828 54.6641C56.0495 54.6641 56.2786 54.7318 56.5703 54.8672C56.7526 54.9141 56.9141 54.9375 57.0547 54.9375C57.6016 54.9375 58.0469 54.6562 58.3906 54.0938C58.5052 53.8646 58.5625 53.6354 58.5625 53.4062C58.5625 52.974 58.401 52.5755 58.0781 52.2109C57.9635 52.0234 57.9062 51.8255 57.9062 51.6172C57.9062 51.263 58.0781 50.9714 58.4219 50.7422C58.5885 50.6432 58.7604 50.5938 58.9375 50.5938ZM74.1719 43.6406C74.5521 43.6406 74.9089 43.8255 75.2422 44.1953C75.263 44.1953 75.4557 44.388 75.8203 44.7734C77.0443 46.1589 77.6562 47.7734 77.6562 49.6172C77.6562 52.1068 76.5573 54.1536 74.3594 55.7578C73.9688 56.0234 73.5781 56.2448 73.1875 56.4219C72.8385 56.5729 72.4792 56.6979 72.1094 56.7969C71.5208 56.9323 71.0677 57 70.75 57H69.6953C69.1536 57 68.4531 56.8542 67.5938 56.5625C67.099 56.3594 66.6589 56.1328 66.2734 55.8828C65.9505 55.6849 65.5156 55.3255 64.9688 54.8047C64.75 54.5651 64.6406 54.2943 64.6406 53.9922V53.9688C64.6406 53.5104 64.8646 53.1484 65.3125 52.8828C65.4896 52.7995 65.6797 52.7578 65.8828 52.7578C66.1536 52.7578 66.4089 52.8516 66.6484 53.0391C67.612 54.0443 68.8073 54.5469 70.2344 54.5469C71.9167 54.5469 73.2812 53.8255 74.3281 52.3828C74.8802 51.5703 75.1562 50.6432 75.1562 49.6016C75.1562 48.0495 74.5156 46.7474 73.2344 45.6953C73.0312 45.4401 72.9297 45.1667 72.9297 44.875C72.9297 44.4167 73.1484 44.0521 73.5859 43.7812C73.7786 43.6875 73.974 43.6406 74.1719 43.6406ZM81.7578 43.7969C82.1432 43.7969 82.5 43.9948 82.8281 44.3906C85.8125 47.375 88.6562 50.2161 91.3594 52.9141H91.3672V45.0078C91.3672 44.5078 91.6146 44.1354 92.1094 43.8906C92.2656 43.8281 92.4245 43.7969 92.5859 43.7969C92.9922 43.7969 93.3281 43.9896 93.5938 44.375C93.7083 44.5677 93.7656 44.763 93.7656 44.9609V55.8672C93.7656 56.2526 93.5755 56.5781 93.1953 56.8438C93.013 56.9479 92.8698 57 92.7656 57H92.3672C92.1849 57 91.9635 56.888 91.7031 56.6641C91.3698 56.3099 89.4062 54.3411 85.8125 50.7578C82.6771 47.6224 81.0156 45.9583 80.8281 45.7656C80.6458 45.5312 80.5547 45.2917 80.5547 45.0469V44.9297C80.5547 44.5859 80.7292 44.276 81.0781 44C81.3021 43.8646 81.5286 43.7969 81.7578 43.7969ZM81.9922 54.0703H82.0703C82.5443 54.0703 82.9453 54.2943 83.2734 54.7422C83.4297 55.0026 83.5078 55.2474 83.5078 55.4766V55.5859C83.5078 56.0547 83.2891 56.4505 82.8516 56.7734C82.6068 56.9245 82.4062 57 82.25 57H81.8125C81.5833 57 81.3099 56.8698 80.9922 56.6094C80.7005 56.2865 80.5547 55.9557 80.5547 55.6172V55.5C80.5547 55.0521 80.7604 54.6667 81.1719 54.3438C81.4323 54.1615 81.7057 54.0703 81.9922 54.0703ZM98.1641 43.7969C98.5495 43.7969 98.9062 43.9948 99.2344 44.3906C102.219 47.375 105.062 50.2161 107.766 52.9141H107.773V45.0078C107.773 44.5078 108.021 44.1354 108.516 43.8906C108.672 43.8281 108.831 43.7969 108.992 43.7969C109.398 43.7969 109.734 43.9896 110 44.375C110.115 44.5677 110.172 44.763 110.172 44.9609V55.8672C110.172 56.2526 109.982 56.5781 109.602 56.8438C109.419 56.9479 109.276 57 109.172 57H108.773C108.591 57 108.37 56.888 108.109 56.6641C107.776 56.3099 105.812 54.3411 102.219 50.7578C99.0833 47.6224 97.4219 45.9583 97.2344 45.7656C97.0521 45.5312 96.9609 45.2917 96.9609 45.0469V44.9297C96.9609 44.5859 97.1354 44.276 97.4844 44C97.7083 43.8646 97.9349 43.7969 98.1641 43.7969ZM98.3984 54.0703H98.4766C98.9505 54.0703 99.3516 54.2943 99.6797 54.7422C99.8359 55.0026 99.9141 55.2474 99.9141 55.4766V55.5859C99.9141 56.0547 99.6953 56.4505 99.2578 56.7734C99.013 56.9245 98.8125 57 98.6562 57H98.2188C97.9896 57 97.7161 56.8698 97.3984 56.6094C97.1068 56.2865 96.9609 55.9557 96.9609 55.6172V55.5C96.9609 55.0521 97.1667 54.6667 97.5781 54.3438C97.8385 54.1615 98.112 54.0703 98.3984 54.0703ZM119.266 43.7578C119.62 43.7578 119.935 43.9271 120.211 44.2656C120.258 44.3333 120.583 44.9766 121.188 46.1953C123.948 51.6953 125.328 54.4531 125.328 54.4688C125.682 55.1198 125.859 55.5625 125.859 55.7969C125.859 56.1354 125.734 56.4323 125.484 56.6875C125.234 56.8958 125.018 57 124.836 57H124.422C124.391 57 124.354 56.9948 124.312 56.9844C124.01 56.8854 123.781 56.7188 123.625 56.4844L119.625 48.5703C119.521 48.2786 119.385 48.1328 119.219 48.1328C119.13 48.1328 119.049 48.1693 118.977 48.2422C117.898 50.4036 117.344 51.5078 117.312 51.5547C117.036 51.9245 116.695 52.1094 116.289 52.1094C116.102 52.1094 115.911 52.0625 115.719 51.9688C115.266 51.7031 115.039 51.3359 115.039 50.8672C115.039 50.8151 115.076 50.6615 115.148 50.4062C115.174 50.3229 116.18 48.3099 118.164 44.3672C118.43 43.9609 118.766 43.7578 119.172 43.7578H119.266ZM113.844 54.6172C114.062 54.6172 114.284 54.6927 114.508 54.8438C114.836 55.1094 115 55.4349 115 55.8203C115 56.1224 114.888 56.401 114.664 56.6562C114.404 56.8854 114.18 57 113.992 57H113.586C113.508 57 113.391 56.9635 113.234 56.8906C112.797 56.625 112.578 56.2656 112.578 55.8125C112.578 55.625 112.635 55.4245 112.75 55.2109C113.016 54.8151 113.346 54.6172 113.742 54.6172H113.844ZM129.961 43.6406C130.398 43.6406 130.732 43.8594 130.961 44.2969C131.023 44.4375 131.055 44.5677 131.055 44.6875V55.9609C131.055 56.3411 130.854 56.6562 130.453 56.9062C130.307 56.9688 130.206 57 130.148 57H129.758C129.581 56.9896 129.375 56.8854 129.141 56.6875C128.943 56.4479 128.844 56.2109 128.844 55.9766C128.839 55.9766 128.836 55.9297 128.836 55.8359V44.8047C128.836 44.2526 129.109 43.8776 129.656 43.6797C129.76 43.6536 129.862 43.6406 129.961 43.6406ZM134.352 54.7969H136.555C137.133 54.7969 137.521 55.0625 137.719 55.5938C137.745 55.7031 137.758 55.7943 137.758 55.8672V55.9688C137.758 56.3333 137.562 56.6432 137.172 56.8984C137.016 56.9661 136.906 57 136.844 57H134.086C133.888 57 133.667 56.875 133.422 56.625C133.25 56.4115 133.164 56.1901 133.164 55.9609V55.875C133.164 55.4896 133.359 55.1745 133.75 54.9297C133.922 54.8411 134.122 54.7969 134.352 54.7969ZM146.516 43.6406H146.602C146.997 43.6406 147.326 43.8359 147.586 44.2266C147.674 44.4036 147.719 44.5729 147.719 44.7344V55.9062C147.719 56.375 147.477 56.7214 146.992 56.9453C146.883 56.9818 146.807 57 146.766 57H146.352C146.164 57 145.94 56.8802 145.68 56.6406C145.492 56.4219 145.398 56.1667 145.398 55.875V44.7734C145.398 44.2839 145.648 43.9271 146.148 43.7031C146.284 43.6615 146.406 43.6406 146.516 43.6406ZM159.492 43.6406H159.586C160.143 43.6406 160.698 43.7917 161.25 44.0938C161.526 44.3333 161.664 44.6042 161.664 44.9062V44.9688C161.664 45.3333 161.479 45.6328 161.109 45.8672C160.948 45.9401 160.794 45.9766 160.648 45.9766H160.609C160.474 45.9766 160.232 45.9115 159.883 45.7812C159.747 45.7448 159.607 45.7266 159.461 45.7266C159.06 45.7266 158.685 45.8984 158.336 46.2422C158.07 46.5964 157.938 46.9531 157.938 47.3125C157.938 47.7292 158.091 48.1042 158.398 48.4375C158.523 48.625 158.586 48.8281 158.586 49.0469C158.586 49.4479 158.385 49.7604 157.984 49.9844C157.839 50.0469 157.708 50.0781 157.594 50.0781H157.492C157.096 50.0781 156.745 49.8151 156.438 49.2891C156.047 48.6536 155.852 47.9922 155.852 47.3047C155.852 46.4609 156.154 45.6615 156.758 44.9062C157.003 44.6354 157.219 44.4401 157.406 44.3203C158.109 43.8672 158.805 43.6406 159.492 43.6406ZM159.812 49.2969C160.245 49.2969 160.568 49.5182 160.781 49.9609C160.823 50.0911 160.844 50.2083 160.844 50.3125V50.3594C160.844 50.7344 160.659 51.0339 160.289 51.2578C160.133 51.3359 159.99 51.375 159.859 51.375H159.758C159.424 51.375 159.141 51.2005 158.906 50.8516C158.818 50.6745 158.773 50.5156 158.773 50.375V50.3125C158.773 49.9844 158.922 49.7083 159.219 49.4844C159.396 49.3594 159.594 49.2969 159.812 49.2969ZM162.062 50.5938H162.094C162.469 50.5938 162.784 50.7891 163.039 51.1797C163.534 51.8724 163.781 52.612 163.781 53.3984C163.781 54.2266 163.484 55.0104 162.891 55.75C162.526 56.1406 162.229 56.388 162 56.4922C161.656 56.6797 161.422 56.7865 161.297 56.8125C160.927 56.9375 160.635 57 160.422 57H159.766C159.479 57 159.081 56.888 158.57 56.6641L158.305 56.4766C158.076 56.2578 157.961 55.9974 157.961 55.6953C157.961 55.2839 158.172 54.9688 158.594 54.75C158.74 54.6927 158.878 54.6641 159.008 54.6641C159.174 54.6641 159.404 54.7318 159.695 54.8672C159.878 54.9141 160.039 54.9375 160.18 54.9375C160.727 54.9375 161.172 54.6562 161.516 54.0938C161.63 53.8646 161.688 53.6354 161.688 53.4062C161.688 52.974 161.526 52.5755 161.203 52.2109C161.089 52.0234 161.031 51.8255 161.031 51.6172C161.031 51.263 161.203 50.9714 161.547 50.7422C161.714 50.6432 161.885 50.5938 162.062 50.5938ZM169.867 43.6406H176.398L176.43 43.6562H176.453C176.844 43.6562 177.161 43.8568 177.406 44.2578C177.49 44.4245 177.531 44.5964 177.531 44.7734C177.531 45.2057 177.318 45.5391 176.891 45.7734C176.745 45.8411 176.599 45.875 176.453 45.875H169.797C169.484 45.875 169.208 45.7318 168.969 45.4453C168.812 45.237 168.734 45.0234 168.734 44.8047V44.7109C168.734 44.3672 168.906 44.0729 169.25 43.8281C169.438 43.7135 169.622 43.6562 169.805 43.6562H169.836L169.867 43.6406ZM169.852 49.2266L173.219 49.2422C173.443 49.2422 173.682 49.3568 173.938 49.5859C174.141 49.8203 174.242 50.0755 174.242 50.3516C174.242 50.737 174.062 51.0521 173.703 51.2969C173.526 51.401 173.354 51.4531 173.188 51.4531H169.781C169.448 51.4531 169.159 51.2865 168.914 50.9531C168.794 50.7656 168.734 50.5781 168.734 50.3906V50.2969C168.734 49.9427 168.919 49.638 169.289 49.3828C169.477 49.2891 169.654 49.2422 169.82 49.2422H169.836C169.846 49.2422 169.852 49.237 169.852 49.2266ZM176.391 49.2422H176.445C176.867 49.2422 177.198 49.4609 177.438 49.8984C177.5 50.0547 177.531 50.2057 177.531 50.3516C177.531 50.7891 177.315 51.125 176.883 51.3594C176.727 51.4219 176.589 51.4531 176.469 51.4531H176.359C176.005 51.4531 175.703 51.2682 175.453 50.8984C175.354 50.7109 175.305 50.526 175.305 50.3438C175.305 49.9167 175.518 49.5833 175.945 49.3438C176.107 49.276 176.255 49.2422 176.391 49.2422ZM169.867 54.7891H176.398C176.398 54.7995 176.479 54.8125 176.641 54.8281C176.911 54.8958 177.117 55.0182 177.258 55.1953C177.44 55.4089 177.531 55.6536 177.531 55.9297C177.531 56.3516 177.318 56.6849 176.891 56.9297C176.76 56.9766 176.672 57 176.625 57H169.641C169.458 57 169.24 56.8776 168.984 56.6328C168.818 56.4089 168.734 56.1823 168.734 55.9531V55.8828C168.734 55.4974 168.93 55.1823 169.32 54.9375C169.435 54.8698 169.612 54.8229 169.852 54.7969C169.852 54.7917 169.857 54.7891 169.867 54.7891Z" fill="white"/>
</svg>
