<svg width="190" height="84" viewBox="0 0 190 84" fill="none" xmlns="http://www.w3.org/2000/svg">
<path d="M12.1912 31.1431C12.7151 31.1431 13.2001 31.4122 13.6461 31.9502C17.7027 36.0068 21.5681 39.8687 25.2424 43.5359H25.253V32.7891C25.253 32.1095 25.5893 31.6033 26.2619 31.2706C26.4743 31.1856 26.6902 31.1431 26.9096 31.1431C27.4619 31.1431 27.9185 31.4051 28.2795 31.929C28.4353 32.1909 28.5132 32.4564 28.5132 32.7254V47.55C28.5132 48.0739 28.2548 48.5164 27.738 48.8775C27.4902 49.019 27.2955 49.0898 27.1539 49.0898H26.6123C26.3645 49.0898 26.0636 48.9376 25.7097 48.6332C25.2566 48.1518 22.5876 45.4757 17.7027 40.605C13.4408 36.3431 11.1824 34.0812 10.9275 33.8192C10.6797 33.5006 10.5559 33.175 10.5559 32.8422V32.683C10.5559 32.2157 10.793 31.7945 11.2673 31.4193C11.5718 31.2352 11.8797 31.1431 12.1912 31.1431ZM12.5098 45.1076H12.616C13.2602 45.1076 13.8054 45.412 14.2514 46.0209C14.4638 46.3748 14.57 46.7076 14.57 47.0191V47.1677C14.57 47.8049 14.2726 48.3429 13.6779 48.7819C13.3452 48.9872 13.0726 49.0898 12.8603 49.0898H12.2656C11.9541 49.0898 11.5824 48.9129 11.1505 48.5589C10.7541 48.1199 10.5559 47.6704 10.5559 47.2102V47.0509C10.5559 46.4421 10.8355 45.9182 11.3948 45.4793C11.7488 45.2315 12.1204 45.1076 12.5098 45.1076ZM45.6846 30.9308C45.8546 30.9308 46.0315 30.9591 46.2156 31.0157C46.8669 31.3201 47.1926 31.7909 47.1926 32.4281V32.4493C47.1926 32.6476 47.1501 32.8529 47.0652 33.0653C46.7395 33.6529 46.29 33.9467 45.7165 33.9467H45.6528C45.4758 33.9467 45.2847 33.9042 45.0793 33.8192C44.4776 33.5006 44.1767 33.044 44.1767 32.4493C44.1767 32.244 44.2192 32.0352 44.3041 31.8228C44.6298 31.2281 45.0829 30.9308 45.6634 30.9308H45.6846ZM33.5998 30.9308C33.8759 30.9308 34.1308 30.998 34.3644 31.1325C34.8671 31.4511 35.1184 31.89 35.1184 32.4493V41.4758C35.1184 42.6793 35.4759 43.6846 36.191 44.4917C37.1325 45.5465 38.244 46.0739 39.5254 46.0739H39.7591C40.1626 46.0739 40.5767 46.0102 41.0015 45.8828C42.0705 45.5217 42.9165 44.8669 43.5395 43.9182C43.9289 43.2811 44.1555 42.612 44.2192 41.9112C44.2192 41.3944 44.2687 41.0616 44.3679 40.9129C44.6794 40.3324 45.1324 40.0422 45.7271 40.0422H45.7696C45.9537 40.0422 46.1554 40.0882 46.3749 40.1802C46.9554 40.5059 47.2457 40.959 47.2457 41.5395C47.2457 44.0315 46.2121 46.0775 44.1448 47.6775C43.6776 48.0102 43.1997 48.2863 42.7112 48.5058C41.7272 48.8952 40.9095 49.0898 40.2582 49.0898H39.0157C38.4564 49.0898 37.7095 48.9199 36.775 48.5801C36.3361 48.396 35.8724 48.1447 35.3839 47.8261C33.1963 46.1978 32.1025 44.1235 32.1025 41.6032V32.4493C32.1025 32.2653 32.1379 32.0741 32.2087 31.8759C32.5202 31.2458 32.9839 30.9308 33.5998 30.9308ZM63.8756 30.9308C64.1234 30.9308 64.3747 31.0051 64.6296 31.1538C65.111 31.4936 65.3517 31.9254 65.3517 32.4493C65.3517 32.683 65.2809 32.9449 65.1393 33.2352C64.7853 33.7237 64.3712 33.9679 63.8968 33.9679H59.2987V47.4757C59.2987 47.9713 59.1571 48.3677 58.8739 48.6651C58.5624 48.9341 58.2827 49.0757 58.0349 49.0898H57.5146C57.4367 49.0898 57.3022 49.0509 57.1111 48.973C56.5376 48.6403 56.2509 48.1907 56.2509 47.6244V32.4175C56.2509 32.198 56.3111 31.9679 56.4314 31.7272C56.7712 31.1962 57.1996 30.9308 57.7164 30.9308H63.8756ZM51.7695 30.9308C51.9961 30.9308 52.2262 30.9945 52.4598 31.1219C52.9837 31.4546 53.2456 31.8936 53.2456 32.4387C53.2456 32.6865 53.1819 32.9343 53.0545 33.1821C52.7217 33.706 52.297 33.9679 51.7802 33.9679H51.6633C51.4651 33.9679 51.2456 33.9113 51.0049 33.798C50.4669 33.4582 50.1979 33.0157 50.1979 32.4706C50.1979 32.1945 50.2651 31.929 50.3996 31.6741C50.7536 31.1785 51.1713 30.9308 51.6527 30.9308H51.7695ZM77.1604 30.9308H77.3091C77.9321 30.9308 78.4701 31.3095 78.9232 32.067C79.6807 33.1927 80.0595 34.421 80.0595 35.7519V35.7944C80.0595 37.4298 79.5002 38.8988 78.3816 40.2015C77.8223 40.7678 77.4365 41.1076 77.2241 41.2209C76.8843 41.4545 76.5586 41.6421 76.2471 41.7837V41.805C78.4206 44.5872 79.6064 46.1164 79.8046 46.3925C79.9604 46.6899 80.0382 46.9624 80.0382 47.2102V47.3907C80.0382 47.9784 79.7338 48.4775 79.125 48.8881C78.8489 49.0226 78.6471 49.0898 78.5197 49.0898H77.9144C77.5958 49.0615 77.2595 48.8881 76.9055 48.5695C73.6843 44.4421 72.0419 42.3253 71.9781 42.2191C71.8507 41.9289 71.787 41.6386 71.787 41.3483V41.1997C71.787 40.513 72.102 39.9112 72.7321 39.3944C73.1427 39.1183 73.5286 38.9802 73.8896 38.9802C74.2153 38.9165 74.4949 38.8351 74.7286 38.736C75.479 38.3749 76.0277 37.8227 76.3746 37.0794C76.5515 36.6334 76.64 36.2404 76.64 35.9006V35.8475C76.64 35.8192 76.6436 35.798 76.6507 35.7838L76.64 35.7095V35.6564C76.64 35.0617 76.4347 34.467 76.0241 33.8723C76.0312 33.8511 76.0347 33.8369 76.0347 33.8298C75.702 33.5042 75.5356 33.1077 75.5356 32.6405V32.6086C75.5356 32.0139 75.8082 31.5361 76.3533 31.175C76.6223 31.0122 76.8914 30.9308 77.1604 30.9308ZM93.8434 30.9308H93.9602C94.4982 30.9308 94.9443 31.1962 95.2982 31.7272C95.4186 31.9679 95.4788 32.198 95.4788 32.4175V47.6031C95.4788 48.2403 95.1496 48.7111 94.4912 49.0155C94.3425 49.0651 94.2398 49.0898 94.1832 49.0898H93.6204C93.3655 49.0898 93.0611 48.927 92.7071 48.6014C92.4522 48.304 92.3248 47.9571 92.3248 47.5607V32.4706C92.3248 31.8051 92.6646 31.3201 93.3443 31.0157C93.5283 30.9591 93.6947 30.9308 93.8434 30.9308ZM118.034 30.9308C118.282 30.9308 118.533 31.0051 118.788 31.1538C119.27 31.4936 119.51 31.9254 119.51 32.4493C119.51 32.683 119.44 32.9449 119.298 33.2352C118.944 33.7237 118.53 33.9679 118.055 33.9679H113.457V47.4757C113.457 47.9713 113.316 48.3677 113.033 48.6651C112.721 48.9341 112.441 49.0757 112.194 49.0898H111.673C111.595 49.0898 111.461 49.0509 111.27 48.973C110.696 48.6403 110.41 48.1907 110.41 47.6244V32.4175C110.41 32.198 110.47 31.9679 110.59 31.7272C110.93 31.1962 111.358 30.9308 111.875 30.9308H118.034ZM105.928 30.9308C106.155 30.9308 106.385 30.9945 106.618 31.1219C107.142 31.4546 107.404 31.8936 107.404 32.4387C107.404 32.6865 107.341 32.9343 107.213 33.1821C106.88 33.706 106.456 33.9679 105.939 33.9679H105.822C105.624 33.9679 105.404 33.9113 105.164 33.798C104.626 33.4582 104.357 33.0157 104.357 32.4706C104.357 32.1945 104.424 31.929 104.558 31.6741C104.912 31.1785 105.33 30.9308 105.811 30.9308H105.928ZM129.949 30.9308H130.066C130.604 30.9308 131.05 31.1962 131.404 31.7272C131.524 31.9679 131.585 32.198 131.585 32.4175V47.6031C131.585 48.2403 131.255 48.7111 130.597 49.0155C130.448 49.0651 130.346 49.0898 130.289 49.0898H129.726C129.471 49.0898 129.167 48.927 128.813 48.6014C128.558 48.304 128.431 47.9571 128.431 47.5607V32.4706C128.431 31.8051 128.77 31.3201 129.45 31.0157C129.634 30.9591 129.8 30.9308 129.949 30.9308ZM153.737 30.9308C154.253 30.9308 154.738 31.1821 155.191 31.6847C155.22 31.6847 155.482 31.9467 155.977 32.4706C157.641 34.3537 158.473 36.5484 158.473 39.0546C158.473 42.4386 156.979 45.2209 153.991 47.4014C153.46 47.7624 152.929 48.0633 152.398 48.304C151.924 48.5093 151.436 48.6792 150.933 48.8137C150.133 48.9978 149.517 49.0898 149.085 49.0898H147.652C146.915 49.0898 145.963 48.8916 144.795 48.4952C144.122 48.2191 143.524 47.9111 143 47.5713C142.561 47.3023 141.97 46.8138 141.227 46.1058C140.93 45.7801 140.781 45.412 140.781 45.0014V44.9695C140.781 44.3465 141.085 43.8545 141.694 43.4934C141.935 43.3802 142.193 43.3235 142.469 43.3235C142.838 43.3235 143.184 43.451 143.51 43.7058C144.82 45.0722 146.445 45.7554 148.384 45.7554C150.671 45.7554 152.526 44.7748 153.949 42.8138C154.699 41.7094 155.075 40.4492 155.075 39.0333C155.075 36.9236 154.204 35.1537 152.462 33.7237C152.186 33.3768 152.048 33.0051 152.048 32.6086C152.048 31.9856 152.345 31.49 152.94 31.1219C153.202 30.9945 153.467 30.9308 153.737 30.9308ZM164.048 31.1431C164.572 31.1431 165.057 31.4122 165.503 31.9502C169.559 36.0068 173.425 39.8687 177.099 43.5359H177.11V32.7891C177.11 32.1095 177.446 31.6033 178.119 31.2706C178.331 31.1856 178.547 31.1431 178.766 31.1431C179.319 31.1431 179.775 31.4051 180.136 31.929C180.292 32.1909 180.37 32.4564 180.37 32.7254V47.55C180.37 48.0739 180.111 48.5164 179.595 48.8775C179.347 49.019 179.152 49.0898 179.011 49.0898H178.469C178.221 49.0898 177.92 48.9376 177.566 48.6332C177.113 48.1518 174.444 45.4757 169.559 40.605C165.297 36.3431 163.039 34.0812 162.784 33.8192C162.536 33.5006 162.413 33.175 162.413 32.8422V32.683C162.413 32.2157 162.65 31.7945 163.124 31.4193C163.428 31.2352 163.736 31.1431 164.048 31.1431ZM164.366 45.1076H164.473C165.117 45.1076 165.662 45.412 166.108 46.0209C166.32 46.3748 166.427 46.7076 166.427 47.0191V47.1677C166.427 47.8049 166.129 48.3429 165.535 48.7819C165.202 48.9872 164.929 49.0898 164.717 49.0898H164.122C163.811 49.0898 163.439 48.9129 163.007 48.5589C162.611 48.1199 162.413 47.6704 162.413 47.2102V47.0509C162.413 46.4421 162.692 45.9182 163.251 45.4793C163.605 45.2315 163.977 45.1076 164.366 45.1076Z" fill="white"/>
</svg>
